{"glyphs":{"0":{"ha":925,"x_min":35,"x_max":922,"o":"m 381 -14 q 122 66 210 -14 q 35 299 35 146 q 51 447 35 367 q 222 794 100 681 q 578 908 343 908 q 838 825 753 908 q 922 590 922 742 q 907 447 922 518 q 738 101 860 215 q 381 -14 615 -14 m 428 208 q 565 267 515 208 q 640 447 614 325 q 656 567 656 521 q 626 657 656 628 q 531 686 597 686 q 394 628 443 686 q 318 447 344 569 q 301 321 301 372 q 330 235 301 263 q 428 208 358 208 z "},"1":{"ha":507,"x_min":90,"x_max":560,"o":"m 243 653 l 90 631 l 136 849 l 560 908 l 367 0 l 106 0 l 243 653 z "},"2":{"ha":725,"x_min":-43,"x_max":743,"o":"m -18 119 q 92 240 31 185 q 253 371 154 294 l 276 389 q 413 500 376 464 q 461 588 450 536 q 465 618 465 604 q 438 669 465 653 q 354 686 411 686 q 121 638 247 686 l 168 860 q 313 895 231 882 q 475 908 394 908 q 674 851 606 908 q 743 693 743 794 q 735 619 743 660 q 673 473 715 529 q 539 349 631 417 q 485 308 529 340 q 408 249 440 276 q 356 200 376 222 l 654 200 l 613 0 l -43 0 l -18 119 z "},"3":{"ha":742,"x_min":-36,"x_max":756,"o":"m 246 -14 q 96 0 182 -14 q -36 35 10 14 l 8 243 q 123 206 58 218 q 249 193 188 193 q 373 213 335 193 q 422 285 411 232 q 424 303 424 292 q 317 363 424 363 l 165 363 l 219 538 l 346 538 q 437 557 406 538 q 476 619 468 576 q 479 640 479 633 q 449 686 479 671 q 350 701 418 701 q 225 688 290 701 q 108 651 160 674 l 153 858 q 290 894 210 881 q 444 908 369 908 q 610 881 539 908 q 718 804 681 853 q 756 694 756 756 q 750 650 756 681 q 700 532 736 585 q 611 450 664 479 q 692 319 692 414 q 685 263 692 297 q 542 54 654 122 q 246 -14 429 -14 z "},"4":{"ha":763,"x_min":-36,"x_max":786,"o":"m 371 168 l -36 168 l 0 339 l 560 894 l 786 894 l 678 379 l 758 379 l 713 168 l 632 168 l 597 0 l 336 0 l 371 168 m 460 368 l 511 611 l 258 368 l 460 368 z "},"5":{"ha":728,"x_min":-32,"x_max":749,"o":"m 239 -14 q 93 -2 171 -14 q -32 33 15 10 l 13 243 q 122 208 54 221 q 242 194 190 194 q 360 217 321 194 q 410 293 399 240 q 414 324 414 310 q 390 370 414 356 q 310 385 365 385 l 38 385 l 64 504 l 169 894 l 749 894 l 689 694 l 351 694 l 315 567 l 417 567 q 615 510 549 567 q 682 353 682 454 q 675 283 682 325 q 541 65 647 143 q 239 -14 435 -14 z "},"6":{"ha":818,"x_min":18,"x_max":801,"o":"m 329 -14 q 97 50 176 -14 q 18 240 18 114 q 31 349 18 290 l 67 521 q 232 807 106 706 q 572 908 358 908 q 699 899 646 908 q 801 871 753 890 l 758 668 q 554 707 676 707 q 322 575 344 707 l 318 550 q 413 585 357 572 q 515 599 468 599 q 710 541 643 599 q 776 378 776 483 q 768 300 776 342 q 630 71 739 156 q 329 -14 521 -14 m 371 171 q 480 201 439 171 q 533 290 521 232 q 538 331 538 314 q 511 392 538 371 q 425 413 485 413 q 279 371 358 413 l 265 306 q 260 254 260 279 q 285 191 260 211 q 371 171 311 171 z "},"7":{"ha":692,"x_min":6,"x_max":782,"o":"m 447 694 l 90 694 l 132 894 l 782 894 l 750 744 l 278 0 l 6 0 l 447 694 z "},"8":{"ha":847,"x_min":4,"x_max":854,"o":"m 340 -14 q 4 196 4 -14 q 11 260 4 222 q 68 381 25 325 q 171 463 111 436 q 124 518 140 485 q 108 589 108 551 q 114 635 108 604 q 246 837 142 765 q 538 908 350 908 q 774 853 694 908 q 854 696 854 797 q 847 635 854 672 q 800 533 835 581 q 711 456 765 485 q 794 313 794 410 q 789 260 794 286 q 650 55 761 124 q 340 -14 539 -14 m 490 528 q 563 565 539 543 q 597 629 588 588 q 600 656 600 649 q 576 703 600 688 q 497 719 551 719 q 403 697 438 719 q 360 629 369 675 q 357 606 357 613 q 417 543 357 556 l 490 528 m 381 174 q 493 197 454 174 q 542 265 532 219 q 544 289 544 282 q 526 333 544 317 q 465 358 507 349 l 375 378 q 299 342 328 367 q 261 274 271 318 q 258 247 258 254 q 288 192 258 210 q 381 174 318 174 z "},"9":{"ha":818,"x_min":50,"x_max":832,"o":"m 279 -14 q 150 -6 203 -14 q 50 21 97 1 l 93 224 q 185 194 136 203 q 297 186 233 186 q 458 223 400 186 q 528 318 515 260 l 533 344 q 439 308 494 322 q 336 294 383 294 q 145 357 215 294 q 75 524 75 419 q 82 593 75 564 q 522 908 149 908 q 754 841 676 908 q 832 649 832 774 q 821 546 832 596 l 785 374 q 620 88 746 190 q 279 -14 494 -14 m 425 481 q 572 524 490 481 l 585 588 q 590 635 590 611 q 563 702 590 681 q 479 724 536 724 q 371 692 413 724 q 318 603 329 661 q 313 558 313 581 q 338 500 313 519 q 425 481 364 481 z "},"\r":{"ha":556,"x_min":0,"x_max":0,"o":""}," ":{"ha":472,"x_min":0,"x_max":0,"o":""},"A":{"ha":1032,"x_min":-43,"x_max":919,"o":"m 489 894 l 765 894 l 919 0 l 647 0 l 615 190 l 343 190 l 229 0 l -43 0 l 489 894 m 617 378 l 572 640 l 417 378 l 617 378 z "},"Á":{"ha":1032,"x_min":-43,"x_max":926,"o":"m 724 1242 l 926 1242 l 732 956 l 540 956 l 724 1242 m 489 894 l 765 894 l 919 0 l 647 0 l 615 190 l 343 190 l 229 0 l -43 0 l 489 894 m 617 378 l 572 640 l 417 378 l 617 378 z "},"Ă":{"ha":1032,"x_min":-43,"x_max":958,"o":"m 639 957 q 482 1006 539 957 q 425 1144 425 1054 q 433 1217 425 1179 l 594 1217 q 589 1172 589 1183 q 663 1100 589 1100 q 782 1217 758 1100 l 958 1217 q 846 1025 932 1093 q 639 957 760 957 m 489 894 l 765 894 l 919 0 l 647 0 l 615 190 l 343 190 l 229 0 l -43 0 l 489 894 m 617 378 l 572 640 l 417 378 l 617 378 z "},"Ắ":{"ha":1032,"x_min":-43,"x_max":944,"o":"m 753 1407 l 926 1407 l 765 1189 l 615 1189 l 753 1407 m 642 956 q 492 1000 550 956 q 433 1132 433 1044 q 440 1194 433 1167 l 586 1194 q 582 1154 582 1174 q 669 1083 582 1083 q 754 1113 721 1083 q 799 1194 788 1143 l 944 1194 q 843 1013 918 1071 q 642 956 768 956 m 489 894 l 765 894 l 919 0 l 647 0 l 615 190 l 343 190 l 229 0 l -43 0 l 489 894 m 617 378 l 572 640 l 417 378 l 617 378 z "},"Ặ":{"ha":1032,"x_min":-43,"x_max":958,"o":"m 639 956 q 482 1004 539 956 q 425 1143 425 1053 q 433 1215 425 1178 l 594 1215 q 589 1171 589 1182 q 663 1099 589 1099 q 782 1215 758 1099 l 958 1215 q 846 1024 932 1092 q 639 956 760 956 m 489 894 l 765 894 l 919 0 l 647 0 l 615 190 l 343 190 l 229 0 l -43 0 l 489 894 m 617 378 l 572 640 l 417 378 l 617 378 m 331 -78 l 511 -78 l 476 -244 l 296 -244 l 331 -78 z "},"Ằ":{"ha":1032,"x_min":-43,"x_max":943,"o":"m 546 1407 l 719 1407 l 765 1189 l 615 1189 l 546 1407 m 640 956 q 490 1000 549 956 q 432 1132 432 1044 q 439 1194 432 1167 l 585 1194 q 581 1154 581 1174 q 668 1083 581 1083 q 753 1113 719 1083 q 797 1194 786 1143 l 943 1194 q 842 1013 917 1071 q 640 956 767 956 m 489 894 l 765 894 l 919 0 l 647 0 l 615 190 l 343 190 l 229 0 l -43 0 l 489 894 m 617 378 l 572 640 l 417 378 l 617 378 z "},"Ẳ":{"ha":1032,"x_min":-43,"x_max":943,"o":"m 624 1282 q 739 1333 729 1286 q 731 1364 744 1356 q 682 1372 717 1372 q 608 1360 643 1372 l 628 1453 q 774 1471 686 1471 q 877 1444 840 1471 q 914 1374 914 1418 q 911 1351 914 1368 q 870 1278 900 1304 q 782 1238 840 1251 l 774 1196 l 606 1196 l 624 1282 m 640 956 q 490 1000 549 956 q 432 1132 432 1044 q 439 1194 432 1167 l 585 1194 q 581 1154 581 1174 q 668 1083 581 1083 q 753 1113 719 1083 q 797 1194 786 1143 l 943 1194 q 842 1013 917 1071 q 640 956 767 956 m 489 894 l 765 894 l 919 0 l 647 0 l 615 190 l 343 190 l 229 0 l -43 0 l 489 894 m 617 378 l 572 640 l 417 378 l 617 378 z "},"Ẵ":{"ha":1032,"x_min":-43,"x_max":985,"o":"m 828 1219 q 769 1227 797 1219 q 701 1250 742 1235 q 644 1269 668 1263 q 594 1276 619 1276 q 451 1224 513 1276 l 482 1365 q 543 1397 506 1385 q 619 1410 581 1410 q 674 1403 650 1410 q 740 1381 699 1396 q 801 1360 778 1367 q 851 1353 825 1353 q 928 1367 893 1353 q 985 1407 963 1382 l 954 1264 q 902 1233 938 1246 q 828 1219 867 1219 m 640 956 q 490 1000 549 956 q 432 1132 432 1044 q 439 1194 432 1167 l 585 1194 q 581 1154 581 1174 q 668 1083 581 1083 q 753 1113 719 1083 q 797 1194 786 1143 l 943 1194 q 842 1013 917 1071 q 640 956 767 956 m 489 894 l 765 894 l 919 0 l 647 0 l 615 190 l 343 190 l 229 0 l -43 0 l 489 894 m 617 378 l 572 640 l 417 378 l 617 378 z "},"Ǎ":{"ha":1032,"x_min":-43,"x_max":993,"o":"m 406 1233 l 592 1233 l 660 1082 l 797 1233 l 993 1233 l 719 956 l 561 956 l 406 1233 m 489 894 l 765 894 l 919 0 l 647 0 l 615 190 l 343 190 l 229 0 l -43 0 l 489 894 m 617 378 l 572 640 l 417 378 l 617 378 z "},"Â":{"ha":1032,"x_min":-43,"x_max":935,"o":"m 619 1233 l 778 1233 l 935 956 l 753 956 l 678 1106 l 549 956 l 347 956 l 619 1233 m 489 894 l 765 894 l 919 0 l 647 0 l 615 190 l 343 190 l 229 0 l -43 0 l 489 894 m 617 378 l 572 640 l 417 378 l 617 378 z "},"Ấ":{"ha":1032,"x_min":-43,"x_max":1182,"o":"m 989 1346 l 1182 1346 l 1028 1129 l 846 1129 l 989 1346 m 589 1167 l 781 1167 l 932 956 l 729 956 l 667 1065 l 557 956 l 346 956 l 589 1167 m 489 894 l 765 894 l 919 0 l 647 0 l 615 190 l 343 190 l 229 0 l -43 0 l 489 894 m 617 378 l 572 640 l 417 378 l 617 378 z "},"Ậ":{"ha":1032,"x_min":-43,"x_max":935,"o":"m 619 1233 l 778 1233 l 935 956 l 753 956 l 678 1106 l 549 956 l 347 956 l 619 1233 m 489 894 l 765 894 l 919 0 l 647 0 l 615 190 l 343 190 l 229 0 l -43 0 l 489 894 m 617 378 l 572 640 l 417 378 l 617 378 m 331 -78 l 511 -78 l 476 -244 l 296 -244 l 331 -78 z "},"Ầ":{"ha":1032,"x_min":-43,"x_max":936,"o":"m 267 1344 l 460 1344 l 513 1128 l 329 1128 l 267 1344 m 594 1165 l 786 1165 l 936 954 l 735 954 l 672 1064 l 563 954 l 351 954 l 594 1165 m 489 894 l 765 894 l 919 0 l 647 0 l 615 190 l 343 190 l 229 0 l -43 0 l 489 894 m 617 378 l 572 640 l 417 378 l 617 378 z "},"Ẩ":{"ha":1032,"x_min":-43,"x_max":1164,"o":"m 874 1199 q 954 1211 931 1200 q 982 1242 978 1222 q 931 1272 988 1272 q 858 1263 897 1272 l 881 1363 q 1019 1379 940 1379 q 1128 1355 1092 1379 q 1164 1286 1164 1331 q 1161 1260 1164 1279 q 1035 1143 1139 1160 l 1025 1097 l 853 1097 l 874 1199 m 589 1167 l 781 1167 l 931 956 l 729 956 l 667 1065 l 557 956 l 346 956 l 589 1167 m 489 894 l 765 894 l 919 0 l 647 0 l 615 190 l 343 190 l 229 0 l -43 0 l 489 894 m 617 378 l 572 640 l 417 378 l 617 378 z "},"Ẫ":{"ha":1032,"x_min":-43,"x_max":988,"o":"m 829 1188 q 771 1195 799 1188 q 703 1218 743 1203 q 645 1238 669 1231 q 596 1244 621 1244 q 453 1192 514 1244 l 485 1338 q 545 1369 508 1357 q 621 1382 582 1382 q 678 1374 651 1382 q 742 1353 704 1367 q 803 1332 778 1339 q 854 1325 828 1325 q 931 1340 896 1325 q 988 1379 965 1354 l 957 1232 q 903 1201 939 1214 q 829 1188 868 1188 m 590 1167 l 782 1167 l 932 956 l 731 956 l 668 1065 l 558 956 l 347 956 l 590 1167 m 489 894 l 765 894 l 919 0 l 647 0 l 615 190 l 343 190 l 229 0 l -43 0 l 489 894 m 617 378 l 572 640 l 417 378 l 617 378 z "},"Ä":{"ha":1032,"x_min":-43,"x_max":925,"o":"m 444 1158 l 625 1158 l 589 992 l 408 992 l 444 1158 m 743 1158 l 925 1158 l 889 992 l 707 992 l 743 1158 m 489 894 l 765 894 l 919 0 l 647 0 l 615 190 l 343 190 l 229 0 l -43 0 l 489 894 m 617 378 l 572 640 l 417 378 l 617 378 z "},"Ạ":{"ha":1032,"x_min":-43,"x_max":919,"o":"m 489 894 l 765 894 l 919 0 l 647 0 l 615 190 l 343 190 l 229 0 l -43 0 l 489 894 m 617 378 l 572 640 l 417 378 l 617 378 m 329 -78 l 510 -78 l 475 -244 l 294 -244 l 329 -78 z "},"À":{"ha":1032,"x_min":-43,"x_max":919,"o":"m 469 1242 l 674 1242 l 735 956 l 543 956 l 469 1242 m 489 894 l 765 894 l 919 0 l 647 0 l 615 190 l 343 190 l 229 0 l -43 0 l 489 894 m 617 378 l 572 640 l 417 378 l 617 378 z "},"Ả":{"ha":1032,"x_min":-43,"x_max":919,"o":"m 567 1068 q 666 1087 636 1072 q 701 1129 696 1101 q 628 1175 711 1175 q 543 1164 590 1175 l 567 1272 q 731 1292 632 1292 q 856 1262 813 1292 q 899 1181 899 1232 q 896 1151 899 1161 q 849 1062 883 1093 q 750 1013 814 1031 l 738 956 l 542 956 l 567 1068 m 489 894 l 765 894 l 919 0 l 647 0 l 615 190 l 343 190 l 229 0 l -43 0 l 489 894 m 617 378 l 572 640 l 417 378 l 617 378 z "},"Ā":{"ha":1032,"x_min":-43,"x_max":919,"o":"m 450 1131 l 904 1131 l 871 975 l 417 975 l 450 1131 m 489 894 l 765 894 l 919 0 l 647 0 l 615 190 l 343 190 l 229 0 l -43 0 l 489 894 m 617 378 l 572 640 l 417 378 l 617 378 z "},"Ą":{"ha":1032,"x_min":-43,"x_max":919,"o":"m 717 -306 q 601 -279 644 -306 q 558 -200 558 -253 q 561 -171 558 -182 q 610 -75 572 -119 q 700 0 647 -31 l 647 0 l 615 190 l 343 190 l 229 0 l -43 0 l 489 894 l 765 894 l 919 0 l 874 0 q 768 -124 781 -60 q 765 -140 765 -135 q 778 -169 765 -158 q 814 -179 790 -179 q 853 -175 832 -179 q 886 -164 874 -171 l 861 -283 q 797 -299 836 -293 q 717 -306 757 -306 m 617 378 l 572 640 l 417 378 l 617 378 z "},"Å":{"ha":1032,"x_min":-43,"x_max":919,"o":"m 478 876 q 453 958 453 913 q 458 1003 453 972 q 537 1135 476 1083 q 689 1186 597 1186 q 807 1148 765 1186 q 849 1047 849 1110 q 843 1003 849 1033 q 768 875 825 922 l 919 0 l 647 0 l 615 190 l 343 190 l 229 0 l -43 0 l 478 876 m 633 928 q 703 956 676 928 q 731 1024 731 983 q 715 1063 731 1049 q 665 1078 699 1078 q 596 1049 622 1078 q 569 981 569 1019 q 633 928 569 928 m 617 378 l 572 640 l 417 378 l 617 378 z "},"Ǻ":{"ha":1032,"x_min":-43,"x_max":986,"o":"m 792 1222 l 600 1222 l 783 1479 l 986 1479 l 792 1222 m 843 1003 q 768 875 825 922 l 919 0 l 647 0 l 615 190 l 343 190 l 229 0 l -43 0 l 478 876 q 453 960 453 910 q 458 1003 453 972 q 537 1135 476 1083 q 689 1186 597 1186 q 807 1148 765 1186 q 849 1047 849 1110 q 843 1003 849 1033 m 665 1078 q 596 1049 622 1078 q 569 981 569 1019 q 633 928 569 928 q 703 956 676 928 q 731 1024 731 983 q 715 1063 731 1049 q 665 1078 699 1078 m 617 378 l 572 640 l 417 378 l 617 378 z "},"Ã":{"ha":1032,"x_min":-43,"x_max":942,"o":"m 776 960 q 715 967 744 960 q 646 990 685 975 q 585 1011 610 1004 q 538 1018 561 1018 q 390 964 456 1018 l 425 1128 q 489 1160 450 1147 q 567 1174 528 1174 q 624 1167 597 1174 q 690 1144 650 1160 q 750 1123 724 1131 q 806 1115 776 1115 q 884 1131 849 1115 q 942 1171 919 1146 l 907 1006 q 852 973 889 986 q 776 960 815 960 m 489 894 l 765 894 l 919 0 l 647 0 l 615 190 l 343 190 l 229 0 l -43 0 l 489 894 m 617 378 l 572 640 l 417 378 l 617 378 z "},"Æ":{"ha":1193,"x_min":-43,"x_max":1269,"o":"m 489 894 l 1269 894 l 1228 694 l 883 694 l 851 549 l 1144 549 l 1101 346 l 808 346 l 778 200 l 1122 200 l 1081 0 l 481 0 l 521 192 l 347 192 l 233 0 l -43 0 l 489 894 m 564 394 l 628 694 l 619 694 l 440 394 l 564 394 z "},"Ǽ":{"ha":1193,"x_min":-43,"x_max":1269,"o":"m 888 1242 l 1090 1242 l 896 956 l 704 956 l 888 1242 m 489 894 l 1269 894 l 1228 694 l 883 694 l 851 549 l 1144 549 l 1101 346 l 808 346 l 778 200 l 1122 200 l 1081 0 l 481 0 l 521 192 l 347 192 l 233 0 l -43 0 l 489 894 m 564 394 l 628 694 l 619 694 l 440 394 l 564 394 z "},"B":{"ha":899,"x_min":-15,"x_max":899,"o":"m 174 894 l 665 894 q 839 846 779 894 q 899 710 899 797 q 892 647 899 685 q 757 456 864 517 q 825 404 801 436 q 849 322 849 372 q 842 265 849 300 q 722 69 814 138 q 488 0 631 0 l -15 0 l 174 894 m 519 538 q 633 624 614 538 q 636 650 636 633 q 615 696 636 681 q 549 711 594 711 l 386 711 l 350 538 l 519 538 m 454 182 q 537 204 507 182 q 578 278 567 226 q 581 303 581 297 q 558 350 581 335 q 488 365 536 365 l 313 365 l 274 182 l 454 182 z "},"C":{"ha":843,"x_min":38,"x_max":910,"o":"m 451 -14 q 147 75 257 -14 q 38 328 38 164 q 50 443 38 381 q 242 792 99 675 q 647 908 386 908 q 788 897 726 908 q 910 861 850 885 l 861 633 q 618 686 754 686 q 417 628 490 686 q 317 443 343 569 q 306 356 306 390 q 356 243 306 278 q 518 208 406 208 q 785 260 657 208 l 736 31 q 451 -14 599 -14 z "},"Ć":{"ha":843,"x_min":38,"x_max":925,"o":"m 722 1242 l 925 1242 l 731 956 l 539 956 l 722 1242 m 451 -14 q 147 75 257 -14 q 38 328 38 164 q 50 443 38 381 q 242 792 99 675 q 647 908 386 908 q 788 897 726 908 q 910 861 850 885 l 861 633 q 618 686 754 686 q 417 628 490 686 q 317 443 343 569 q 306 356 306 390 q 356 243 306 278 q 518 208 406 208 q 785 260 657 208 l 736 31 q 451 -14 599 -14 z "},"Č":{"ha":843,"x_min":38,"x_max":982,"o":"m 394 1233 l 581 1233 l 649 1082 l 786 1233 l 982 1233 l 708 956 l 550 956 l 394 1233 m 451 -14 q 147 75 257 -14 q 38 328 38 164 q 50 443 38 381 q 242 792 99 675 q 647 908 386 908 q 788 897 726 908 q 910 861 850 885 l 861 633 q 618 686 754 686 q 417 628 490 686 q 317 443 343 569 q 306 356 306 390 q 356 243 306 278 q 518 208 406 208 q 785 260 657 208 l 736 31 q 451 -14 599 -14 z "},"Ç":{"ha":843,"x_min":38,"x_max":910,"o":"m 363 -333 q 301 -330 338 -333 q 251 -322 265 -326 l 274 -219 q 353 -231 311 -231 q 438 -218 413 -231 q 464 -172 464 -206 q 447 -147 464 -153 q 397 -140 431 -140 l 310 -140 l 374 -10 q 125 94 213 7 q 38 326 38 181 q 50 443 38 381 q 242 792 99 675 q 647 908 386 908 q 788 897 726 908 q 910 861 850 885 l 861 633 q 618 686 754 686 q 417 628 490 686 q 317 443 343 569 q 306 356 306 390 q 356 243 306 278 q 518 208 406 208 q 785 260 657 208 l 736 31 q 515 -11 624 -6 l 489 -57 q 588 -83 556 -57 q 621 -154 621 -108 q 617 -187 621 -171 q 538 -295 601 -257 q 363 -333 474 -333 z "},"Ĉ":{"ha":843,"x_min":38,"x_max":910,"o":"m 588 1233 l 746 1233 l 903 956 l 721 956 l 646 1106 l 517 956 l 315 956 l 588 1233 m 451 -14 q 147 75 257 -14 q 38 328 38 164 q 50 443 38 381 q 242 792 99 675 q 647 908 386 908 q 788 897 726 908 q 910 861 850 885 l 861 633 q 618 686 754 686 q 417 628 490 686 q 317 443 343 569 q 306 356 306 390 q 356 243 306 278 q 518 208 406 208 q 785 260 657 208 l 736 31 q 451 -14 599 -14 z "},"Ċ":{"ha":843,"x_min":38,"x_max":910,"o":"m 579 1160 l 760 1160 l 724 993 l 543 993 l 579 1160 m 451 -14 q 147 75 257 -14 q 38 328 38 164 q 50 443 38 381 q 242 792 99 675 q 647 908 386 908 q 788 897 726 908 q 910 861 850 885 l 861 633 q 618 686 754 686 q 417 628 490 686 q 317 443 343 569 q 306 356 306 390 q 356 243 306 278 q 518 208 406 208 q 785 260 657 208 l 736 31 q 451 -14 599 -14 z "},"D":{"ha":932,"x_min":-15,"x_max":926,"o":"m 174 894 l 574 894 q 831 813 736 894 q 926 569 926 731 q 913 442 926 507 q 744 105 865 210 q 394 0 622 0 l -15 0 l 174 894 m 393 200 q 510 220 463 200 q 591 293 557 240 q 646 442 625 346 q 661 564 661 518 q 623 666 661 638 q 499 694 585 694 l 393 694 l 288 200 l 393 200 z "},"Ð":{"ha":986,"x_min":3,"x_max":953,"o":"m 600 894 q 858 813 763 894 q 953 569 953 731 q 939 442 953 507 q 770 105 892 210 q 421 0 649 0 l 11 0 l 85 349 l 3 349 l 40 528 l 122 528 l 200 894 l 600 894 m 672 442 q 688 564 688 518 q 649 666 688 638 q 525 694 611 694 l 419 694 l 383 528 l 553 528 l 515 349 l 346 349 l 314 200 l 419 200 q 536 220 489 200 q 617 293 583 240 q 672 442 651 346 z "},"Ď":{"ha":932,"x_min":-15,"x_max":926,"o":"m 301 1233 l 488 1233 l 556 1082 l 693 1233 l 889 1233 l 615 956 l 457 956 l 301 1233 m 174 894 l 574 894 q 831 813 736 894 q 926 569 926 731 q 913 442 926 507 q 744 105 865 210 q 394 0 622 0 l -15 0 l 174 894 m 393 200 q 510 220 463 200 q 591 293 557 240 q 646 442 625 346 q 661 564 661 518 q 623 666 661 638 q 499 694 585 694 l 393 694 l 288 200 l 393 200 z "},"Đ":{"ha":986,"x_min":3,"x_max":953,"o":"m 600 894 q 858 813 763 894 q 953 569 953 731 q 939 442 953 507 q 770 105 892 210 q 421 0 649 0 l 11 0 l 85 349 l 3 349 l 40 528 l 122 528 l 200 894 l 600 894 m 672 442 q 688 564 688 518 q 649 666 688 638 q 525 694 611 694 l 419 694 l 383 528 l 553 528 l 515 349 l 346 349 l 314 200 l 419 200 q 536 220 489 200 q 617 293 583 240 q 672 442 651 346 z "},"Ḍ":{"ha":932,"x_min":-15,"x_max":926,"o":"m 174 894 l 574 894 q 831 813 736 894 q 926 569 926 731 q 913 442 926 507 q 744 105 865 210 q 394 0 622 0 l -15 0 l 174 894 m 393 200 q 510 220 463 200 q 591 293 557 240 q 646 442 625 346 q 661 564 661 518 q 623 666 661 638 q 499 694 585 694 l 393 694 l 288 200 l 393 200 m 199 -107 l 379 -107 l 344 -274 l 164 -274 l 199 -107 z "},"Ḏ":{"ha":932,"x_min":-15,"x_max":926,"o":"m 174 894 l 574 894 q 831 813 736 894 q 926 569 926 731 q 913 442 926 507 q 744 105 865 210 q 394 0 622 0 l -15 0 l 174 894 m 393 200 q 510 220 463 200 q 591 293 557 240 q 646 442 625 346 q 661 564 661 518 q 623 666 661 638 q 499 694 585 694 l 393 694 l 288 200 l 393 200 m 129 -89 l 583 -89 l 550 -244 l 96 -244 l 129 -89 z "},"E":{"ha":775,"x_min":-15,"x_max":851,"o":"m 174 894 l 851 894 l 810 694 l 393 694 l 361 549 l 726 549 l 683 346 l 318 346 l 288 200 l 704 200 l 663 0 l -15 0 l 174 894 z "},"É":{"ha":775,"x_min":-15,"x_max":851,"o":"m 588 1242 l 790 1242 l 596 956 l 404 956 l 588 1242 m 174 894 l 851 894 l 810 694 l 393 694 l 361 549 l 726 549 l 683 346 l 318 346 l 288 200 l 704 200 l 663 0 l -15 0 l 174 894 z "},"Ĕ":{"ha":775,"x_min":-15,"x_max":851,"o":"m 529 957 q 372 1006 429 957 q 315 1144 315 1054 q 324 1217 315 1179 l 485 1217 q 479 1172 479 1183 q 553 1100 479 1100 q 672 1217 649 1100 l 849 1217 q 736 1025 822 1093 q 529 957 650 957 m 174 894 l 851 894 l 810 694 l 393 694 l 361 549 l 726 549 l 683 346 l 318 346 l 288 200 l 704 200 l 663 0 l -15 0 l 174 894 z "},"Ě":{"ha":775,"x_min":-15,"x_max":889,"o":"m 301 1233 l 488 1233 l 556 1082 l 693 1233 l 889 1233 l 615 956 l 457 956 l 301 1233 m 174 894 l 851 894 l 810 694 l 393 694 l 361 549 l 726 549 l 683 346 l 318 346 l 288 200 l 704 200 l 663 0 l -15 0 l 174 894 z "},"Ê":{"ha":775,"x_min":-15,"x_max":851,"o":"m 507 1233 l 665 1233 l 822 956 l 640 956 l 565 1106 l 436 956 l 235 956 l 507 1233 m 174 894 l 851 894 l 810 694 l 393 694 l 361 549 l 726 549 l 683 346 l 318 346 l 288 200 l 704 200 l 663 0 l -15 0 l 174 894 z "},"Ế":{"ha":775,"x_min":-15,"x_max":1042,"o":"m 849 1346 l 1042 1346 l 888 1129 l 706 1129 l 849 1346 m 449 1167 l 640 1167 l 792 956 l 589 956 l 526 1065 l 417 956 l 206 956 l 449 1167 m 174 894 l 851 894 l 810 694 l 393 694 l 361 549 l 726 549 l 683 346 l 318 346 l 288 200 l 704 200 l 663 0 l -15 0 l 174 894 z "},"Ệ":{"ha":775,"x_min":-15,"x_max":851,"o":"m 494 1233 l 653 1233 l 810 956 l 628 956 l 553 1106 l 424 956 l 222 956 l 494 1233 m 174 894 l 851 894 l 810 694 l 393 694 l 361 549 l 726 549 l 683 346 l 318 346 l 288 200 l 704 200 l 663 0 l -15 0 l 174 894 m 206 -78 l 386 -78 l 351 -244 l 171 -244 l 206 -78 z "},"Ề":{"ha":775,"x_min":-15,"x_max":851,"o":"m 140 1346 l 333 1346 l 386 1129 l 203 1129 l 140 1346 m 468 1167 l 660 1167 l 810 956 l 608 956 l 546 1065 l 436 956 l 225 956 l 468 1167 m 174 894 l 851 894 l 810 694 l 393 694 l 361 549 l 726 549 l 683 346 l 318 346 l 288 200 l 704 200 l 663 0 l -15 0 l 174 894 z "},"Ể":{"ha":775,"x_min":-15,"x_max":1033,"o":"m 743 1199 q 824 1211 800 1200 q 851 1242 847 1222 q 800 1272 857 1272 q 728 1263 767 1272 l 750 1363 q 889 1379 810 1379 q 997 1355 961 1379 q 1033 1286 1033 1331 q 1031 1260 1033 1279 q 904 1143 1008 1160 l 894 1097 l 722 1097 l 743 1199 m 458 1167 l 650 1167 l 800 956 l 599 956 l 536 1065 l 426 956 l 215 956 l 458 1167 m 174 894 l 851 894 l 810 694 l 393 694 l 361 549 l 726 549 l 683 346 l 318 346 l 288 200 l 704 200 l 663 0 l -15 0 l 174 894 z "},"Ễ":{"ha":775,"x_min":-15,"x_max":869,"o":"m 711 1188 q 653 1195 681 1188 q 585 1218 625 1203 q 527 1238 551 1231 q 478 1244 503 1244 q 335 1192 396 1244 l 367 1338 q 427 1369 390 1357 q 503 1382 464 1382 q 560 1374 533 1382 q 624 1353 586 1367 q 685 1332 660 1339 q 736 1325 710 1325 q 813 1340 778 1325 q 869 1379 847 1354 l 839 1232 q 785 1201 821 1214 q 711 1188 750 1188 m 472 1167 l 664 1167 l 814 956 l 613 956 l 550 1065 l 440 956 l 229 956 l 472 1167 m 174 894 l 851 894 l 810 694 l 393 694 l 361 549 l 726 549 l 683 346 l 318 346 l 288 200 l 704 200 l 663 0 l -15 0 l 174 894 z "},"Ë":{"ha":775,"x_min":-15,"x_max":851,"o":"m 336 1160 l 517 1160 l 481 993 l 300 993 l 336 1160 m 635 1160 l 817 1160 l 781 993 l 599 993 l 635 1160 m 174 894 l 851 894 l 810 694 l 393 694 l 361 549 l 726 549 l 683 346 l 318 346 l 288 200 l 704 200 l 663 0 l -15 0 l 174 894 z "},"Ė":{"ha":775,"x_min":-15,"x_max":851,"o":"m 476 1160 l 657 1160 l 621 993 l 440 993 l 476 1160 m 174 894 l 851 894 l 810 694 l 393 694 l 361 549 l 726 549 l 683 346 l 318 346 l 288 200 l 704 200 l 663 0 l -15 0 l 174 894 z "},"Ẹ":{"ha":775,"x_min":-15,"x_max":851,"o":"m 174 894 l 851 894 l 810 694 l 393 694 l 361 549 l 726 549 l 683 346 l 318 346 l 288 200 l 704 200 l 663 0 l -15 0 l 174 894 m 203 -78 l 383 -78 l 349 -244 l 168 -244 l 203 -78 z "},"È":{"ha":775,"x_min":-15,"x_max":851,"o":"m 382 1242 l 586 1242 l 647 956 l 456 956 l 382 1242 m 174 894 l 851 894 l 810 694 l 393 694 l 361 549 l 726 549 l 683 346 l 318 346 l 288 200 l 704 200 l 663 0 l -15 0 l 174 894 z "},"Ẻ":{"ha":775,"x_min":-15,"x_max":851,"o":"m 446 1067 q 545 1085 515 1071 q 581 1128 575 1100 q 507 1174 590 1174 q 422 1163 469 1174 l 446 1271 q 610 1290 511 1290 q 735 1260 692 1290 q 778 1179 778 1231 q 775 1150 778 1160 q 728 1060 763 1092 q 629 1011 693 1029 l 617 954 l 421 954 l 446 1067 m 174 894 l 851 894 l 810 694 l 393 694 l 361 549 l 726 549 l 683 346 l 318 346 l 288 200 l 704 200 l 663 0 l -15 0 l 174 894 z "},"Ē":{"ha":775,"x_min":-15,"x_max":851,"o":"m 329 1161 l 783 1161 l 750 1006 l 296 1006 l 329 1161 m 174 894 l 851 894 l 810 694 l 393 694 l 361 549 l 726 549 l 683 346 l 318 346 l 288 200 l 704 200 l 663 0 l -15 0 l 174 894 z "},"Ę":{"ha":775,"x_min":-15,"x_max":851,"o":"m 457 -306 q 342 -279 385 -306 q 299 -200 299 -253 q 301 -171 299 -182 q 350 -75 313 -119 q 440 0 388 -31 l -15 0 l 174 894 l 851 894 l 810 694 l 393 694 l 361 549 l 726 549 l 683 346 l 318 346 l 288 200 l 704 200 l 663 0 l 614 0 q 508 -124 521 -60 q 506 -140 506 -135 q 518 -169 506 -158 q 554 -179 531 -179 q 593 -175 572 -179 q 626 -164 614 -171 l 601 -283 q 537 -299 576 -293 q 457 -306 497 -306 z "},"Ẽ":{"ha":775,"x_min":-15,"x_max":851,"o":"m 669 967 q 608 974 638 967 q 539 997 578 982 q 478 1018 503 1011 q 431 1025 454 1025 q 283 971 349 1025 l 318 1135 q 382 1167 343 1154 q 460 1181 421 1181 q 517 1174 490 1181 q 583 1151 543 1167 q 643 1130 617 1138 q 699 1122 669 1122 q 777 1138 742 1122 q 835 1178 813 1153 l 800 1013 q 745 980 782 993 q 669 967 708 967 m 174 894 l 851 894 l 810 694 l 393 694 l 361 549 l 726 549 l 683 346 l 318 346 l 288 200 l 704 200 l 663 0 l -15 0 l 174 894 z "},"F":{"ha":742,"x_min":-15,"x_max":846,"o":"m 174 894 l 846 894 l 806 700 l 394 700 l 361 546 l 719 546 l 678 349 l 319 349 l 246 0 l -15 0 l 174 894 z "},"G":{"ha":904,"x_min":38,"x_max":926,"o":"m 442 -14 q 147 74 256 -14 q 38 325 38 163 q 50 439 38 379 q 657 908 150 908 q 926 869 815 908 l 878 646 q 628 686 779 686 q 424 626 504 686 q 317 439 343 565 q 304 344 304 385 q 347 240 304 272 q 489 208 390 208 q 621 226 556 208 l 649 357 l 471 357 l 506 518 l 901 518 l 806 68 q 649 9 740 32 q 442 -14 557 -14 z "},"Ğ":{"ha":904,"x_min":38,"x_max":967,"o":"m 647 957 q 490 1006 547 957 q 433 1144 433 1054 q 442 1217 433 1179 l 603 1217 q 597 1172 597 1183 q 671 1100 597 1100 q 790 1217 767 1100 l 967 1217 q 854 1025 940 1093 q 647 957 768 957 m 442 -14 q 147 74 256 -14 q 38 325 38 163 q 115 635 38 503 q 332 838 192 767 q 657 908 472 908 q 926 869 815 908 l 878 646 q 628 686 779 686 q 389 592 474 686 q 304 344 304 499 q 347 240 304 272 q 489 208 390 208 q 621 226 556 208 l 649 357 l 471 357 l 506 518 l 901 518 l 806 68 q 649 9 740 32 q 442 -14 557 -14 z "},"Ǧ":{"ha":904,"x_min":38,"x_max":996,"o":"m 408 1233 l 594 1233 l 663 1082 l 800 1233 l 996 1233 l 722 956 l 564 956 l 408 1233 m 442 -14 q 147 74 256 -14 q 38 325 38 163 q 115 635 38 503 q 332 838 192 767 q 657 908 472 908 q 926 869 815 908 l 878 646 q 628 686 779 686 q 389 592 474 686 q 304 344 304 499 q 347 240 304 272 q 489 208 390 208 q 621 226 556 208 l 649 357 l 471 357 l 506 518 l 901 518 l 806 68 q 649 9 740 32 q 442 -14 557 -14 z "},"Ĝ":{"ha":904,"x_min":38,"x_max":926,"o":"m 610 1233 l 768 1233 l 925 956 l 743 956 l 668 1106 l 539 956 l 338 956 l 610 1233 m 442 -14 q 147 74 256 -14 q 38 325 38 163 q 115 635 38 503 q 332 838 192 767 q 657 908 472 908 q 926 869 815 908 l 878 646 q 628 686 779 686 q 389 592 474 686 q 304 344 304 499 q 347 240 304 272 q 489 208 390 208 q 621 226 556 208 l 649 357 l 471 357 l 506 518 l 901 518 l 806 68 q 649 9 740 32 q 442 -14 557 -14 z "},"Ģ":{"ha":904,"x_min":38,"x_max":926,"o":"m 442 -14 q 147 74 256 -14 q 38 325 38 163 q 115 635 38 503 q 332 838 192 767 q 657 908 472 908 q 926 869 815 908 l 878 646 q 628 686 779 686 q 389 592 474 686 q 304 344 304 499 q 347 240 304 272 q 489 208 390 208 q 621 226 556 208 l 649 357 l 471 357 l 506 518 l 901 518 l 806 68 q 649 9 740 32 q 442 -14 557 -14 m 343 -51 l 556 -51 l 410 -364 l 231 -364 l 343 -51 z "},"Ġ":{"ha":904,"x_min":38,"x_max":926,"o":"m 614 1160 l 794 1160 l 758 993 l 578 993 l 614 1160 m 442 -14 q 147 74 256 -14 q 38 325 38 163 q 115 635 38 503 q 332 838 192 767 q 657 908 472 908 q 926 869 815 908 l 878 646 q 628 686 779 686 q 389 592 474 686 q 304 344 304 499 q 347 240 304 272 q 489 208 390 208 q 621 226 556 208 l 649 357 l 471 357 l 506 518 l 901 518 l 806 68 q 649 9 740 32 q 442 -14 557 -14 z "},"Ḡ":{"ha":904,"x_min":38,"x_max":926,"o":"m 464 1151 l 918 1151 l 885 996 l 431 996 l 464 1151 m 442 -14 q 147 74 256 -14 q 38 325 38 163 q 115 635 38 503 q 332 838 192 767 q 657 908 472 908 q 926 869 815 908 l 878 646 q 628 686 779 686 q 389 592 474 686 q 304 344 304 499 q 347 240 304 272 q 489 208 390 208 q 621 226 556 208 l 649 357 l 471 357 l 506 518 l 901 518 l 806 68 q 649 9 740 32 q 442 -14 557 -14 z "},"H":{"ha":956,"x_min":-15,"x_max":1004,"o":"m 174 894 l 435 894 l 364 561 l 672 561 l 743 894 l 1004 894 l 815 0 l 554 0 l 625 333 l 317 333 l 246 0 l -15 0 l 174 894 z "},"Ħ":{"ha":956,"x_min":-15,"x_max":1042,"o":"m 118 636 l 64 636 l 100 810 l 156 810 l 174 894 l 435 894 l 417 810 l 725 810 l 743 894 l 1004 894 l 986 810 l 1042 810 l 1006 636 l 949 636 l 815 0 l 554 0 l 625 333 l 317 333 l 246 0 l -15 0 l 118 636 m 672 561 l 688 636 l 379 636 l 364 561 l 672 561 z "},"Ḫ":{"ha":956,"x_min":-15,"x_max":1004,"o":"m 174 894 l 435 894 l 364 561 l 672 561 l 743 894 l 1004 894 l 815 0 l 554 0 l 625 333 l 317 333 l 246 0 l -15 0 l 174 894 m 332 -329 q 174 -281 231 -329 q 117 -142 117 -232 q 125 -69 117 -107 l 288 -69 q 282 -115 282 -92 q 356 -186 282 -186 q 433 -156 406 -186 q 474 -69 461 -125 l 650 -69 q 538 -261 624 -193 q 332 -329 451 -329 z "},"Ĥ":{"ha":956,"x_min":-15,"x_max":1004,"o":"m 582 1233 l 740 1233 l 897 956 l 715 956 l 640 1106 l 511 956 l 310 956 l 582 1233 m 174 894 l 435 894 l 364 561 l 672 561 l 743 894 l 1004 894 l 815 0 l 554 0 l 625 333 l 317 333 l 246 0 l -15 0 l 174 894 z "},"Ḥ":{"ha":956,"x_min":-15,"x_max":1004,"o":"m 174 894 l 435 894 l 364 561 l 672 561 l 743 894 l 1004 894 l 815 0 l 554 0 l 625 333 l 317 333 l 246 0 l -15 0 l 174 894 m 289 -107 l 469 -107 l 435 -274 l 254 -274 l 289 -107 z "},"I":{"ha":386,"x_min":-15,"x_max":435,"o":"m 174 894 l 435 894 l 246 0 l -15 0 l 174 894 z "},"Ĳ":{"ha":999,"x_min":-15,"x_max":1054,"o":"m 174 894 l 435 894 l 246 0 l -15 0 l 174 894 m 515 -14 q 310 18 396 -14 l 356 235 q 508 207 419 207 q 624 236 589 207 q 675 339 660 265 l 793 894 l 1054 894 l 928 297 q 794 65 894 143 q 515 -14 693 -14 z "},"Í":{"ha":386,"x_min":-15,"x_max":601,"o":"m 399 1242 l 601 1242 l 407 956 l 215 956 l 399 1242 m 174 894 l 435 894 l 246 0 l -15 0 l 174 894 z "},"Ĭ":{"ha":386,"x_min":-15,"x_max":642,"o":"m 322 985 q 165 1033 222 985 q 108 1172 108 1082 q 117 1244 108 1207 l 278 1244 q 272 1200 272 1211 q 346 1128 272 1128 q 465 1244 442 1128 l 642 1244 q 529 1053 615 1121 q 322 985 443 985 m 174 894 l 435 894 l 246 0 l -15 0 l 174 894 z "},"Ǐ":{"ha":386,"x_min":-15,"x_max":671,"o":"m 83 1233 l 269 1233 l 338 1082 l 475 1233 l 671 1233 l 397 956 l 239 956 l 83 1233 m 174 894 l 435 894 l 246 0 l -15 0 l 174 894 z "},"Î":{"ha":386,"x_min":-15,"x_max":613,"o":"m 297 1233 l 456 1233 l 613 956 l 431 956 l 356 1106 l 226 956 l 25 956 l 297 1233 m 174 894 l 435 894 l 246 0 l -15 0 l 174 894 z "},"Ï":{"ha":386,"x_min":-15,"x_max":604,"o":"m 124 1169 l 304 1169 l 268 1003 l 88 1003 l 124 1169 m 422 1169 l 604 1169 l 568 1003 l 386 1003 l 422 1169 m 174 894 l 435 894 l 246 0 l -15 0 l 174 894 z "},"İ":{"ha":386,"x_min":-15,"x_max":453,"o":"m 272 1169 l 453 1169 l 417 1003 l 236 1003 l 272 1169 m 174 894 l 435 894 l 246 0 l -15 0 l 174 894 z "},"Ị":{"ha":386,"x_min":-26,"x_max":435,"o":"m 174 894 l 435 894 l 246 0 l -15 0 l 174 894 m 8 -78 l 189 -78 l 154 -244 l -26 -244 l 8 -78 z "},"Ì":{"ha":386,"x_min":-15,"x_max":435,"o":"m 153 1242 l 357 1242 l 418 956 l 226 956 l 153 1242 m 174 894 l 435 894 l 246 0 l -15 0 l 174 894 z "},"Ỉ":{"ha":386,"x_min":-15,"x_max":567,"o":"m 235 1068 q 334 1087 304 1072 q 369 1129 364 1101 q 296 1175 379 1175 q 211 1164 258 1175 l 235 1272 q 399 1292 300 1292 q 524 1262 481 1292 q 567 1181 567 1232 q 564 1151 567 1161 q 517 1062 551 1093 q 418 1013 482 1031 l 406 956 l 210 956 l 235 1068 m 174 894 l 435 894 l 246 0 l -15 0 l 174 894 z "},"Ī":{"ha":386,"x_min":-15,"x_max":590,"o":"m 135 1161 l 590 1161 l 557 1006 l 101 1006 l 135 1161 m 174 894 l 435 894 l 246 0 l -15 0 l 174 894 z "},"Į":{"ha":386,"x_min":-112,"x_max":435,"o":"m 46 -306 q -69 -279 -26 -306 q -112 -200 -112 -253 q -110 -171 -112 -182 q -61 -75 -99 -119 q 29 0 -24 -31 l -15 0 l 174 894 l 435 894 l 246 0 l 203 0 q 97 -124 110 -60 q 94 -140 94 -135 q 107 -169 94 -158 q 143 -179 119 -179 q 182 -175 161 -179 q 215 -164 203 -171 l 190 -283 q 126 -299 165 -293 q 46 -306 86 -306 z "},"Ĩ":{"ha":386,"x_min":-15,"x_max":624,"o":"m 458 988 q 397 995 426 988 q 328 1018 367 1003 q 267 1039 292 1032 q 219 1046 243 1046 q 72 992 138 1046 l 107 1156 q 171 1188 132 1175 q 249 1201 210 1201 q 306 1194 279 1201 q 372 1172 332 1188 q 432 1151 406 1158 q 488 1143 458 1143 q 566 1158 531 1143 q 624 1199 601 1174 l 589 1033 q 534 1001 571 1014 q 458 988 497 988 m 174 894 l 435 894 l 246 0 l -15 0 l 174 894 z "},"J":{"ha":621,"x_min":-68,"x_max":676,"o":"m 138 -14 q -68 18 18 -14 l -22 235 q 131 207 42 207 q 247 236 211 207 q 297 339 282 265 l 415 894 l 676 894 l 550 297 q 416 65 517 143 q 138 -14 315 -14 z "},"Ĵ":{"ha":621,"x_min":-68,"x_max":839,"o":"m 524 1233 l 682 1233 l 839 956 l 657 956 l 582 1106 l 453 956 l 251 956 l 524 1233 m 138 -14 q -68 18 18 -14 l -22 235 q 131 207 42 207 q 247 236 211 207 q 297 339 282 265 l 415 894 l 676 894 l 550 297 q 416 65 517 143 q 138 -14 315 -14 z "},"K":{"ha":949,"x_min":-15,"x_max":1003,"o":"m 174 894 l 435 894 l 368 579 l 706 894 l 1003 894 l 610 528 l 836 0 l 558 0 l 414 361 l 300 258 l 246 0 l -15 0 l 174 894 z "},"Ķ":{"ha":949,"x_min":-15,"x_max":1003,"o":"m 174 894 l 435 894 l 368 579 l 706 894 l 1003 894 l 610 528 l 836 0 l 558 0 l 414 361 l 300 258 l 246 0 l -15 0 l 174 894 m 288 -51 l 500 -51 l 354 -364 l 175 -364 l 288 -51 z "},"L":{"ha":733,"x_min":-15,"x_max":690,"o":"m 174 894 l 435 894 l 288 200 l 690 200 l 649 0 l -15 0 l 174 894 z "},"Ĺ":{"ha":733,"x_min":-15,"x_max":690,"o":"m 399 1242 l 601 1242 l 407 956 l 215 956 l 399 1242 m 174 894 l 435 894 l 288 200 l 690 200 l 649 0 l -15 0 l 174 894 z "},"Ľ":{"ha":733,"x_min":-15,"x_max":836,"o":"m 624 1182 l 836 1182 l 690 869 l 511 869 l 624 1182 m 174 894 l 435 894 l 288 200 l 690 200 l 649 0 l -15 0 l 174 894 z "},"Ļ":{"ha":733,"x_min":-15,"x_max":690,"o":"m 174 894 l 435 894 l 288 200 l 690 200 l 649 0 l -15 0 l 174 894 m 222 -51 l 435 -51 l 289 -364 l 110 -364 l 222 -51 z "},"Ŀ":{"ha":733,"x_min":-15,"x_max":729,"o":"m 174 894 l 435 894 l 288 200 l 690 200 l 649 0 l -15 0 l 174 894 m 549 572 l 729 572 l 693 406 l 513 406 l 549 572 z "},"Ḷ":{"ha":733,"x_min":-15,"x_max":690,"o":"m 174 894 l 435 894 l 288 200 l 690 200 l 649 0 l -15 0 l 174 894 m 200 -78 l 381 -78 l 346 -244 l 165 -244 l 200 -78 z "},"Ḹ":{"ha":733,"x_min":-15,"x_max":690,"o":"m 136 1151 l 590 1151 l 557 996 l 103 996 l 136 1151 m 174 894 l 435 894 l 288 200 l 690 200 l 649 0 l -15 0 l 174 894 m 200 -78 l 381 -78 l 346 -244 l 165 -244 l 200 -78 z "},"Ḻ":{"ha":733,"x_min":-15,"x_max":690,"o":"m 174 894 l 435 894 l 288 200 l 690 200 l 649 0 l -15 0 l 174 894 m 67 -89 l 521 -89 l 488 -244 l 33 -244 l 67 -89 z "},"Ł":{"ha":733,"x_min":-67,"x_max":690,"o":"m 56 335 l -67 286 l -26 471 l 94 519 l 174 894 l 435 894 l 379 633 l 511 686 l 471 501 l 340 449 l 288 200 l 690 200 l 649 0 l -15 0 l 56 335 z "},"M":{"ha":1075,"x_min":-15,"x_max":1124,"o":"m 174 894 l 419 894 l 546 440 l 863 894 l 1124 894 l 935 0 l 674 0 l 768 447 l 563 153 l 422 153 l 340 447 l 246 0 l -15 0 l 174 894 z "},"Ṃ":{"ha":1075,"x_min":-15,"x_max":1124,"o":"m 174 894 l 419 894 l 546 440 l 863 894 l 1124 894 l 935 0 l 674 0 l 768 447 l 563 153 l 422 153 l 340 447 l 246 0 l -15 0 l 174 894 m 354 -78 l 535 -78 l 500 -244 l 319 -244 l 354 -78 z "},"N":{"ha":946,"x_min":-15,"x_max":994,"o":"m 174 894 l 396 894 l 633 421 l 733 894 l 994 894 l 806 0 l 582 0 l 346 472 l 246 0 l -15 0 l 174 894 z "},"Ń":{"ha":946,"x_min":-15,"x_max":994,"o":"m 656 1242 l 858 1242 l 664 956 l 472 956 l 656 1242 m 174 894 l 396 894 l 633 421 l 733 894 l 994 894 l 806 0 l 582 0 l 346 472 l 246 0 l -15 0 l 174 894 z "},"Ň":{"ha":946,"x_min":-15,"x_max":994,"o":"m 361 1233 l 547 1233 l 615 1082 l 753 1233 l 949 1233 l 675 956 l 517 956 l 361 1233 m 174 894 l 396 894 l 633 421 l 733 894 l 994 894 l 806 0 l 582 0 l 346 472 l 246 0 l -15 0 l 174 894 z "},"Ņ":{"ha":946,"x_min":-15,"x_max":994,"o":"m 174 894 l 396 894 l 633 421 l 733 894 l 994 894 l 806 0 l 582 0 l 346 472 l 246 0 l -15 0 l 174 894 m 293 -51 l 506 -51 l 360 -364 l 181 -364 l 293 -51 z "},"Ṅ":{"ha":946,"x_min":-15,"x_max":994,"o":"m 549 1160 l 729 1160 l 693 993 l 513 993 l 549 1160 m 174 894 l 396 894 l 633 421 l 733 894 l 994 894 l 806 0 l 582 0 l 346 472 l 246 0 l -15 0 l 174 894 z "},"Ṇ":{"ha":946,"x_min":-15,"x_max":994,"o":"m 174 894 l 396 894 l 633 421 l 733 894 l 994 894 l 806 0 l 582 0 l 346 472 l 246 0 l -15 0 l 174 894 m 289 -78 l 469 -78 l 435 -244 l 254 -244 l 289 -78 z "},"Ŋ":{"ha":946,"x_min":-15,"x_max":994,"o":"m 482 -325 q 310 -294 376 -325 l 346 -125 q 426 -139 386 -139 q 529 -64 513 -139 l 554 54 l 346 472 l 246 0 l -15 0 l 174 894 l 396 894 l 632 421 l 732 894 l 994 894 l 788 -83 q 687 -260 764 -194 q 482 -325 610 -325 z "},"Ṉ":{"ha":946,"x_min":-15,"x_max":994,"o":"m 174 894 l 396 894 l 633 421 l 733 894 l 994 894 l 806 0 l 582 0 l 346 472 l 246 0 l -15 0 l 174 894 m 157 -87 l 611 -87 l 578 -243 l 124 -243 l 157 -87 z "},"Ñ":{"ha":946,"x_min":-15,"x_max":994,"o":"m 749 967 q 687 974 717 967 q 618 997 657 982 q 558 1018 582 1011 q 510 1025 533 1025 q 363 971 428 1025 l 397 1135 q 461 1167 422 1154 q 539 1181 500 1181 q 596 1174 569 1181 q 663 1151 622 1167 q 722 1130 696 1138 q 778 1122 749 1122 q 856 1138 821 1122 q 914 1178 892 1153 l 879 1013 q 824 980 861 993 q 749 967 788 967 m 174 894 l 396 894 l 633 421 l 733 894 l 994 894 l 806 0 l 582 0 l 346 472 l 246 0 l -15 0 l 174 894 z "},"O":{"ha":983,"x_min":35,"x_max":982,"o":"m 410 -14 q 133 64 231 -14 q 35 303 35 142 q 51 444 35 365 q 238 799 104 690 q 607 908 371 908 q 885 830 789 908 q 982 590 982 751 q 965 444 982 526 q 779 95 914 204 q 410 -14 644 -14 m 457 208 q 614 265 557 208 q 699 444 671 321 q 713 557 713 508 q 677 656 713 626 q 560 686 642 686 q 403 631 458 686 q 318 444 347 576 q 303 332 303 375 q 339 237 303 265 q 457 208 375 208 z "},"Ó":{"ha":983,"x_min":35,"x_max":982,"o":"m 686 1242 l 889 1242 l 694 956 l 503 956 l 686 1242 m 410 -14 q 133 64 231 -14 q 35 303 35 142 q 51 444 35 365 q 238 799 104 690 q 607 908 371 908 q 885 830 789 908 q 982 590 982 751 q 965 444 982 526 q 779 95 914 204 q 410 -14 644 -14 m 457 208 q 614 265 557 208 q 699 444 671 321 q 713 557 713 508 q 677 656 713 626 q 560 686 642 686 q 403 631 458 686 q 318 444 347 576 q 303 332 303 375 q 339 237 303 265 q 457 208 375 208 z "},"Ŏ":{"ha":983,"x_min":35,"x_max":982,"o":"m 615 956 q 458 1004 515 956 q 401 1143 401 1053 q 410 1215 401 1178 l 571 1215 q 565 1171 565 1182 q 639 1099 565 1099 q 758 1215 735 1099 l 935 1215 q 822 1024 908 1092 q 615 956 736 956 m 410 -14 q 133 64 231 -14 q 35 303 35 142 q 51 444 35 365 q 238 799 104 690 q 607 908 371 908 q 885 830 789 908 q 982 590 982 751 q 965 444 982 526 q 779 95 914 204 q 410 -14 644 -14 m 457 208 q 614 265 557 208 q 699 444 671 321 q 713 557 713 508 q 677 656 713 626 q 560 686 642 686 q 403 631 458 686 q 318 444 347 576 q 303 332 303 375 q 339 237 303 265 q 457 208 375 208 z "},"Ǒ":{"ha":983,"x_min":35,"x_max":982,"o":"m 382 1233 l 568 1233 l 636 1082 l 774 1233 l 969 1233 l 696 956 l 538 956 l 382 1233 m 410 -14 q 133 64 231 -14 q 35 303 35 142 q 51 444 35 365 q 238 799 104 690 q 607 908 371 908 q 885 830 789 908 q 982 590 982 751 q 965 444 982 526 q 779 95 914 204 q 410 -14 644 -14 m 457 208 q 614 265 557 208 q 699 444 671 321 q 713 557 713 508 q 677 656 713 626 q 560 686 642 686 q 403 631 458 686 q 318 444 347 576 q 303 332 303 375 q 339 237 303 265 q 457 208 375 208 z "},"Ô":{"ha":983,"x_min":35,"x_max":982,"o":"m 597 1233 l 756 1233 l 913 956 l 731 956 l 656 1106 l 526 956 l 325 956 l 597 1233 m 410 -14 q 133 64 231 -14 q 35 303 35 142 q 51 444 35 365 q 238 799 104 690 q 607 908 371 908 q 885 830 789 908 q 982 590 982 751 q 965 444 982 526 q 779 95 914 204 q 410 -14 644 -14 m 457 208 q 614 265 557 208 q 699 444 671 321 q 713 557 713 508 q 677 656 713 626 q 560 686 642 686 q 403 631 458 686 q 318 444 347 576 q 303 332 303 375 q 339 237 303 265 q 457 208 375 208 z "},"Ố":{"ha":983,"x_min":35,"x_max":1154,"o":"m 961 1346 l 1154 1346 l 1000 1129 l 818 1129 l 961 1346 m 561 1167 l 753 1167 l 904 956 l 701 956 l 639 1065 l 529 956 l 318 956 l 561 1167 m 410 -14 q 133 64 231 -14 q 35 303 35 142 q 51 444 35 365 q 238 799 104 690 q 607 908 371 908 q 885 830 789 908 q 982 590 982 751 q 965 444 982 526 q 779 95 914 204 q 410 -14 644 -14 m 457 208 q 614 265 557 208 q 699 444 671 321 q 713 557 713 508 q 677 656 713 626 q 560 686 642 686 q 403 631 458 686 q 318 444 347 576 q 303 332 303 375 q 339 237 303 265 q 457 208 375 208 z "},"Ộ":{"ha":983,"x_min":35,"x_max":982,"o":"m 596 1233 l 754 1233 l 911 956 l 729 956 l 654 1106 l 525 956 l 324 956 l 596 1233 m 410 -14 q 133 64 231 -14 q 35 303 35 142 q 51 444 35 365 q 238 799 104 690 q 607 908 371 908 q 885 830 789 908 q 982 590 982 751 q 965 444 982 526 q 779 95 914 204 q 410 -14 644 -14 m 457 208 q 614 265 557 208 q 699 444 671 321 q 713 557 713 508 q 677 656 713 626 q 560 686 642 686 q 403 631 458 686 q 318 444 347 576 q 303 332 303 375 q 339 237 303 265 q 457 208 375 208 m 306 -78 l 486 -78 l 451 -244 l 271 -244 l 306 -78 z "},"Ồ":{"ha":983,"x_min":35,"x_max":982,"o":"m 243 1346 l 436 1346 l 489 1129 l 306 1129 l 243 1346 m 571 1167 l 763 1167 l 913 956 l 711 956 l 649 1065 l 539 956 l 328 956 l 571 1167 m 410 -14 q 133 64 231 -14 q 35 303 35 142 q 51 444 35 365 q 238 799 104 690 q 607 908 371 908 q 885 830 789 908 q 982 590 982 751 q 965 444 982 526 q 779 95 914 204 q 410 -14 644 -14 m 457 208 q 614 265 557 208 q 699 444 671 321 q 713 557 713 508 q 677 656 713 626 q 560 686 642 686 q 403 631 458 686 q 318 444 347 576 q 303 332 303 375 q 339 237 303 265 q 457 208 375 208 z "},"Ổ":{"ha":983,"x_min":35,"x_max":1143,"o":"m 853 1199 q 933 1211 910 1200 q 961 1242 957 1222 q 910 1272 967 1272 q 838 1263 876 1272 l 860 1363 q 999 1379 919 1379 q 1107 1355 1071 1379 q 1143 1286 1143 1331 q 1140 1260 1143 1279 q 1014 1143 1118 1160 l 1004 1097 l 832 1097 l 853 1199 m 568 1167 l 760 1167 l 910 956 l 708 956 l 646 1065 l 536 956 l 325 956 l 568 1167 m 410 -14 q 133 64 231 -14 q 35 303 35 142 q 51 444 35 365 q 238 799 104 690 q 607 908 371 908 q 885 830 789 908 q 982 590 982 751 q 965 444 982 526 q 779 95 914 204 q 410 -14 644 -14 m 457 208 q 614 265 557 208 q 699 444 671 321 q 713 557 713 508 q 677 656 713 626 q 560 686 642 686 q 403 631 458 686 q 318 444 347 576 q 303 332 303 375 q 339 237 303 265 q 457 208 375 208 z "},"Ỗ":{"ha":983,"x_min":35,"x_max":982,"o":"m 806 1219 q 747 1227 775 1219 q 679 1250 719 1235 q 622 1269 646 1263 q 572 1276 597 1276 q 429 1224 490 1276 l 460 1365 q 521 1397 483 1385 q 597 1410 558 1410 q 652 1403 628 1410 q 718 1381 676 1396 q 779 1360 756 1367 q 829 1353 803 1353 q 906 1367 871 1353 q 963 1407 940 1382 l 932 1264 q 880 1233 915 1246 q 806 1219 844 1219 m 618 956 q 468 1000 526 956 q 410 1132 410 1044 q 417 1194 410 1167 l 563 1194 q 558 1154 558 1174 q 646 1083 558 1083 q 731 1113 697 1083 q 775 1194 764 1143 l 921 1194 q 819 1013 894 1071 q 618 956 744 956 m 410 -14 q 133 64 231 -14 q 35 303 35 142 q 51 444 35 365 q 238 799 104 690 q 607 908 371 908 q 885 830 789 908 q 982 590 982 751 q 965 444 982 526 q 779 95 914 204 q 410 -14 644 -14 m 457 208 q 614 265 557 208 q 699 444 671 321 q 713 557 713 508 q 677 656 713 626 q 560 686 642 686 q 403 631 458 686 q 318 444 347 576 q 303 332 303 375 q 339 237 303 265 q 457 208 375 208 z "},"Ö":{"ha":983,"x_min":35,"x_max":982,"o":"m 421 1160 l 601 1160 l 565 993 l 385 993 l 421 1160 m 719 1160 l 901 1160 l 865 993 l 683 993 l 719 1160 m 410 -14 q 133 64 231 -14 q 35 303 35 142 q 51 444 35 365 q 238 799 104 690 q 607 908 371 908 q 885 830 789 908 q 982 590 982 751 q 965 444 982 526 q 779 95 914 204 q 410 -14 644 -14 m 457 208 q 614 265 557 208 q 699 444 671 321 q 713 557 713 508 q 677 656 713 626 q 560 686 642 686 q 403 631 458 686 q 318 444 347 576 q 303 332 303 375 q 339 237 303 265 q 457 208 375 208 z "},"Ọ":{"ha":983,"x_min":35,"x_max":982,"o":"m 410 -14 q 133 64 231 -14 q 35 303 35 142 q 51 444 35 365 q 238 799 104 690 q 607 908 371 908 q 885 830 789 908 q 982 590 982 751 q 965 444 982 526 q 779 95 914 204 q 410 -14 644 -14 m 457 208 q 614 265 557 208 q 699 444 671 321 q 713 557 713 508 q 677 656 713 626 q 560 686 642 686 q 403 631 458 686 q 318 444 347 576 q 303 332 303 375 q 339 237 303 265 q 457 208 375 208 m 307 -78 l 488 -78 l 453 -244 l 272 -244 l 307 -78 z "},"Ò":{"ha":983,"x_min":35,"x_max":982,"o":"m 456 1242 l 660 1242 l 721 956 l 529 956 l 456 1242 m 410 -14 q 133 64 231 -14 q 35 303 35 142 q 51 444 35 365 q 238 799 104 690 q 607 908 371 908 q 885 830 789 908 q 982 590 982 751 q 965 444 982 526 q 779 95 914 204 q 410 -14 644 -14 m 457 208 q 614 265 557 208 q 699 444 671 321 q 713 557 713 508 q 677 656 713 626 q 560 686 642 686 q 403 631 458 686 q 318 444 347 576 q 303 332 303 375 q 339 237 303 265 q 457 208 375 208 z "},"Ỏ":{"ha":983,"x_min":35,"x_max":982,"o":"m 535 1068 q 634 1087 604 1072 q 669 1129 664 1101 q 596 1175 679 1175 q 511 1164 558 1175 l 535 1272 q 699 1292 600 1292 q 824 1262 781 1292 q 867 1181 867 1232 q 864 1151 867 1161 q 817 1062 851 1093 q 718 1013 782 1031 l 706 956 l 510 956 l 535 1068 m 410 -14 q 133 64 231 -14 q 35 303 35 142 q 51 444 35 365 q 238 799 104 690 q 607 908 371 908 q 885 830 789 908 q 982 590 982 751 q 965 444 982 526 q 779 95 914 204 q 410 -14 644 -14 m 457 208 q 614 265 557 208 q 699 444 671 321 q 713 557 713 508 q 677 656 713 626 q 560 686 642 686 q 403 631 458 686 q 318 444 347 576 q 303 332 303 375 q 339 237 303 265 q 457 208 375 208 z "},"Ơ":{"ha":1097,"x_min":35,"x_max":1229,"o":"m 410 -14 q 133 64 231 -14 q 35 303 35 142 q 51 444 35 365 q 238 799 104 690 q 607 908 371 908 q 897 819 800 908 q 996 853 963 822 q 1044 956 1029 883 l 1229 956 q 1141 751 1200 819 q 976 663 1082 683 q 982 589 982 633 q 965 444 982 524 q 779 95 914 204 q 410 -14 644 -14 m 457 208 q 614 265 557 208 q 699 444 671 321 q 713 557 713 508 q 677 656 713 626 q 560 686 642 686 q 403 631 458 686 q 318 444 347 576 q 303 332 303 375 q 339 237 303 265 q 457 208 375 208 z "},"Ớ":{"ha":1097,"x_min":35,"x_max":1229,"o":"m 696 1242 l 899 1242 l 704 956 l 513 956 l 696 1242 m 410 -14 q 133 64 231 -14 q 35 303 35 142 q 51 444 35 365 q 238 799 104 690 q 607 908 371 908 q 897 819 800 908 q 996 853 963 822 q 1044 956 1029 883 l 1229 956 q 1141 751 1200 819 q 976 663 1082 683 q 982 589 982 633 q 965 444 982 524 q 779 95 914 204 q 410 -14 644 -14 m 457 208 q 614 265 557 208 q 699 444 671 321 q 713 557 713 508 q 677 656 713 626 q 560 686 642 686 q 403 631 458 686 q 318 444 347 576 q 303 332 303 375 q 339 237 303 265 q 457 208 375 208 z "},"Ợ":{"ha":1097,"x_min":35,"x_max":1229,"o":"m 410 -14 q 133 64 231 -14 q 35 303 35 142 q 51 444 35 365 q 238 799 104 690 q 607 908 371 908 q 897 819 800 908 q 996 853 963 822 q 1044 956 1029 883 l 1229 956 q 1141 751 1200 819 q 976 663 1082 683 q 982 589 982 633 q 965 444 982 524 q 779 95 914 204 q 410 -14 644 -14 m 457 208 q 614 265 557 208 q 699 444 671 321 q 713 557 713 508 q 677 656 713 626 q 560 686 642 686 q 403 631 458 686 q 318 444 347 576 q 303 332 303 375 q 339 237 303 265 q 457 208 375 208 m 306 -78 l 486 -78 l 451 -244 l 271 -244 l 306 -78 z "},"Ờ":{"ha":1097,"x_min":35,"x_max":1229,"o":"m 458 1242 l 663 1242 l 724 956 l 532 956 l 458 1242 m 410 -14 q 133 64 231 -14 q 35 303 35 142 q 51 444 35 365 q 238 799 104 690 q 607 908 371 908 q 897 819 800 908 q 996 853 963 822 q 1044 956 1029 883 l 1229 956 q 1141 751 1200 819 q 976 663 1082 683 q 982 589 982 633 q 965 444 982 524 q 779 95 914 204 q 410 -14 644 -14 m 457 208 q 614 265 557 208 q 699 444 671 321 q 713 557 713 508 q 677 656 713 626 q 560 686 642 686 q 403 631 458 686 q 318 444 347 576 q 303 332 303 375 q 339 237 303 265 q 457 208 375 208 z "},"Ở":{"ha":1097,"x_min":35,"x_max":1229,"o":"m 539 1068 q 638 1087 608 1072 q 674 1129 668 1101 q 600 1175 683 1175 q 515 1164 563 1175 l 539 1272 q 703 1292 604 1292 q 828 1262 785 1292 q 871 1181 871 1232 q 868 1151 871 1161 q 821 1062 856 1093 q 722 1013 786 1031 l 710 956 l 514 956 l 539 1068 m 410 -14 q 133 64 231 -14 q 35 303 35 142 q 51 444 35 365 q 238 799 104 690 q 607 908 371 908 q 897 819 800 908 q 996 853 963 822 q 1044 956 1029 883 l 1229 956 q 1141 751 1200 819 q 976 663 1082 683 q 982 589 982 633 q 965 444 982 524 q 779 95 914 204 q 410 -14 644 -14 m 457 208 q 614 265 557 208 q 699 444 671 321 q 713 557 713 508 q 677 656 713 626 q 560 686 642 686 q 403 631 458 686 q 318 444 347 576 q 303 332 303 375 q 339 237 303 265 q 457 208 375 208 z "},"Ỡ":{"ha":1097,"x_min":35,"x_max":1229,"o":"m 754 961 q 692 969 722 961 q 624 992 663 976 q 563 1013 588 1006 q 515 1019 539 1019 q 368 965 433 1019 l 403 1129 q 467 1162 428 1149 q 544 1175 506 1175 q 601 1168 575 1175 q 668 1146 628 1161 q 728 1124 701 1132 q 783 1117 754 1117 q 862 1132 826 1117 q 919 1172 897 1147 l 885 1007 q 830 974 867 988 q 754 961 793 961 m 410 -14 q 133 64 231 -14 q 35 303 35 142 q 51 444 35 365 q 238 799 104 690 q 607 908 371 908 q 897 819 800 908 q 996 853 963 822 q 1044 956 1029 883 l 1229 956 q 1141 751 1200 819 q 976 663 1082 683 q 982 589 982 633 q 965 444 982 524 q 779 95 914 204 q 410 -14 644 -14 m 457 208 q 614 265 557 208 q 699 444 671 321 q 713 557 713 508 q 677 656 713 626 q 560 686 642 686 q 403 631 458 686 q 318 444 347 576 q 303 332 303 375 q 339 237 303 265 q 457 208 375 208 z "},"Ő":{"ha":983,"x_min":35,"x_max":1040,"o":"m 497 1211 l 715 1211 l 521 956 l 324 956 l 497 1211 m 821 1211 l 1040 1211 l 844 956 l 647 956 l 821 1211 m 410 -14 q 133 64 231 -14 q 35 303 35 142 q 51 444 35 365 q 238 799 104 690 q 607 908 371 908 q 885 830 789 908 q 982 590 982 751 q 965 444 982 526 q 779 95 914 204 q 410 -14 644 -14 m 457 208 q 614 265 557 208 q 699 444 671 321 q 713 557 713 508 q 677 656 713 626 q 560 686 642 686 q 403 631 458 686 q 318 444 347 576 q 303 332 303 375 q 339 237 303 265 q 457 208 375 208 z "},"Ō":{"ha":983,"x_min":35,"x_max":982,"o":"m 432 1163 l 886 1163 l 853 1007 l 399 1007 l 432 1163 m 410 -14 q 133 64 231 -14 q 35 303 35 142 q 51 444 35 365 q 238 799 104 690 q 607 908 371 908 q 885 830 789 908 q 982 590 982 751 q 965 444 982 526 q 779 95 914 204 q 410 -14 644 -14 m 457 208 q 614 265 557 208 q 699 444 671 321 q 713 557 713 508 q 677 656 713 626 q 560 686 642 686 q 403 631 458 686 q 318 444 347 576 q 303 332 303 375 q 339 237 303 265 q 457 208 375 208 z "},"Ø":{"ha":983,"x_min":35,"x_max":982,"o":"m 179 33 q 35 301 35 110 q 51 444 35 365 q 238 799 104 690 q 607 908 371 908 q 707 901 656 908 l 744 963 l 886 963 l 828 867 q 982 590 982 792 q 965 444 982 526 q 779 95 914 204 q 410 -14 644 -14 q 299 -6 349 -14 l 257 -74 l 115 -74 l 179 33 m 576 685 l 560 686 q 403 631 458 686 q 318 444 347 576 q 303 331 303 372 q 318 261 303 286 l 576 685 m 457 208 q 614 265 557 208 q 699 444 671 321 q 713 556 713 517 q 690 640 713 610 l 429 210 q 457 208 438 208 z "},"Ǿ":{"ha":983,"x_min":35,"x_max":982,"o":"m 650 1242 l 853 1242 l 658 956 l 467 956 l 650 1242 m 179 33 q 35 301 35 110 q 51 444 35 365 q 238 799 104 690 q 607 908 371 908 q 707 901 656 908 l 744 963 l 886 963 l 828 867 q 982 590 982 792 q 965 444 982 526 q 779 95 914 204 q 410 -14 644 -14 q 299 -6 349 -14 l 257 -74 l 115 -74 l 179 33 m 576 685 l 560 686 q 403 631 458 686 q 318 444 347 576 q 303 331 303 372 q 318 261 303 286 l 576 685 m 457 208 q 614 265 557 208 q 699 444 671 321 q 713 556 713 517 q 690 640 713 610 l 429 210 q 457 208 438 208 z "},"Õ":{"ha":983,"x_min":35,"x_max":982,"o":"m 758 988 q 697 995 726 988 q 628 1018 667 1003 q 567 1039 592 1032 q 519 1046 543 1046 q 372 992 438 1046 l 407 1156 q 471 1188 432 1175 q 549 1201 510 1201 q 606 1194 579 1201 q 672 1172 632 1188 q 732 1151 706 1158 q 788 1143 758 1143 q 866 1158 831 1143 q 924 1199 901 1174 l 889 1033 q 834 1001 871 1014 q 758 988 797 988 m 410 -14 q 133 64 231 -14 q 35 303 35 142 q 51 444 35 365 q 238 799 104 690 q 607 908 371 908 q 885 830 789 908 q 982 590 982 751 q 965 444 982 526 q 779 95 914 204 q 410 -14 644 -14 m 457 208 q 614 265 557 208 q 699 444 671 321 q 713 557 713 508 q 677 656 713 626 q 560 686 642 686 q 403 631 458 686 q 318 444 347 576 q 303 332 303 375 q 339 237 303 265 q 457 208 375 208 z "},"Œ":{"ha":1394,"x_min":33,"x_max":1471,"o":"m 408 -14 q 131 64 229 -14 q 33 303 33 142 q 50 444 33 365 q 236 799 103 690 q 606 908 369 908 q 704 897 656 908 q 788 867 753 885 l 793 894 l 1471 894 l 1429 694 l 1013 694 l 981 549 l 1346 549 l 1303 346 l 938 346 l 907 200 l 1324 200 l 1282 0 l 604 0 l 610 29 q 517 -1 572 11 q 408 -14 461 -14 m 456 208 q 613 265 556 208 q 697 444 669 321 q 711 557 711 508 q 676 656 711 626 q 558 686 640 686 q 401 631 457 686 q 317 444 346 576 q 301 332 301 375 q 338 237 301 265 q 456 208 374 208 z "},"P":{"ha":853,"x_min":-15,"x_max":896,"o":"m 174 894 l 615 894 q 822 824 749 894 q 896 642 896 754 q 888 565 896 606 q 760 328 856 415 q 507 240 665 240 l 296 240 l 246 0 l -15 0 l 174 894 m 474 440 q 574 473 540 440 q 621 565 608 506 q 626 615 626 589 q 605 674 626 654 q 535 694 583 694 l 393 694 l 339 440 l 474 440 z "},"Þ":{"ha":853,"x_min":-15,"x_max":868,"o":"m 174 894 l 435 894 l 408 768 l 608 768 q 801 694 735 768 q 868 508 868 621 q 863 446 868 474 q 735 212 838 299 q 467 125 632 125 l 272 125 l 246 0 l -15 0 l 174 894 m 449 325 q 551 355 519 325 q 597 446 583 385 q 604 497 604 478 q 582 551 604 533 q 507 568 560 568 l 365 568 l 314 325 l 449 325 z "},"Q":{"ha":983,"x_min":35,"x_max":982,"o":"m 526 -239 q 307 -72 307 -239 q 314 -7 307 -46 q 107 88 179 11 q 35 301 35 164 q 51 444 35 365 q 238 799 104 690 q 607 908 371 908 q 885 830 789 908 q 982 590 982 751 q 965 444 982 526 q 811 124 919 233 q 518 -7 703 15 q 515 -37 515 -32 q 528 -69 515 -61 q 572 -78 542 -78 q 663 -64 611 -78 l 628 -225 q 526 -239 579 -239 m 457 208 q 614 265 557 208 q 699 444 671 321 q 713 557 713 508 q 677 656 713 626 q 560 686 642 686 q 403 631 458 686 q 318 444 347 576 q 303 332 303 375 q 339 237 303 265 q 457 208 375 208 z "},"R":{"ha":882,"x_min":-15,"x_max":900,"o":"m 174 894 l 639 894 q 832 831 764 894 q 900 658 900 767 q 892 576 900 621 q 813 419 872 488 q 669 313 754 350 q 689 285 682 301 q 704 235 696 268 l 758 0 l 486 0 l 436 215 q 416 251 429 240 q 374 261 403 261 l 300 261 l 246 0 l -15 0 l 174 894 m 481 461 q 575 491 538 461 q 625 576 613 521 q 631 621 631 610 q 609 676 631 657 q 539 694 588 694 l 393 694 l 343 461 l 481 461 z "},"Ŕ":{"ha":882,"x_min":-15,"x_max":900,"o":"m 563 1242 l 765 1242 l 571 956 l 379 956 l 563 1242 m 174 894 l 639 894 q 832 831 764 894 q 900 658 900 767 q 892 576 900 621 q 813 419 872 488 q 669 313 754 350 q 689 285 682 301 q 704 235 696 268 l 758 0 l 486 0 l 436 215 q 416 251 429 240 q 374 261 403 261 l 300 261 l 246 0 l -15 0 l 174 894 m 481 461 q 575 491 538 461 q 625 576 613 521 q 631 621 631 610 q 609 676 631 657 q 539 694 588 694 l 393 694 l 343 461 l 481 461 z "},"Ř":{"ha":882,"x_min":-15,"x_max":900,"o":"m 261 1233 l 447 1233 l 515 1082 l 653 1233 l 849 1233 l 575 956 l 417 956 l 261 1233 m 174 894 l 639 894 q 832 831 764 894 q 900 658 900 767 q 892 576 900 621 q 813 419 872 488 q 669 313 754 350 q 689 285 682 301 q 704 235 696 268 l 758 0 l 486 0 l 436 215 q 416 251 429 240 q 374 261 403 261 l 300 261 l 246 0 l -15 0 l 174 894 m 481 461 q 575 491 538 461 q 625 576 613 521 q 631 621 631 610 q 609 676 631 657 q 539 694 588 694 l 393 694 l 343 461 l 481 461 z "},"Ŗ":{"ha":882,"x_min":-15,"x_max":900,"o":"m 174 894 l 639 894 q 832 831 764 894 q 900 658 900 767 q 892 576 900 621 q 813 419 872 488 q 669 313 754 350 q 689 285 682 301 q 704 235 696 268 l 758 0 l 486 0 l 436 215 q 416 251 429 240 q 374 261 403 261 l 300 261 l 246 0 l -15 0 l 174 894 m 481 461 q 575 491 538 461 q 625 576 613 521 q 631 621 631 610 q 609 676 631 657 q 539 694 588 694 l 393 694 l 343 461 l 481 461 m 236 -51 l 449 -51 l 303 -364 l 124 -364 l 236 -51 z "},"Ṛ":{"ha":882,"x_min":-15,"x_max":900,"o":"m 174 894 l 639 894 q 832 831 764 894 q 900 658 900 767 q 892 576 900 621 q 813 419 872 488 q 669 313 754 350 q 689 285 682 301 q 704 235 696 268 l 758 0 l 486 0 l 436 215 q 416 251 429 240 q 374 261 403 261 l 300 261 l 246 0 l -15 0 l 174 894 m 481 461 q 575 491 538 461 q 625 576 613 521 q 631 621 631 610 q 609 676 631 657 q 539 694 588 694 l 393 694 l 343 461 l 481 461 m 229 -78 l 410 -78 l 375 -244 l 194 -244 l 229 -78 z "},"Ṝ":{"ha":882,"x_min":-15,"x_max":900,"o":"m 304 1151 l 758 1151 l 725 996 l 271 996 l 304 1151 m 174 894 l 639 894 q 832 831 764 894 q 900 658 900 767 q 892 576 900 621 q 813 419 872 488 q 669 313 754 350 q 689 285 682 301 q 704 235 696 268 l 758 0 l 486 0 l 436 215 q 416 251 429 240 q 374 261 403 261 l 300 261 l 246 0 l -15 0 l 174 894 m 481 461 q 575 491 538 461 q 625 576 613 521 q 631 621 631 610 q 609 676 631 657 q 539 694 588 694 l 393 694 l 343 461 l 481 461 m 229 -78 l 410 -78 l 375 -244 l 194 -244 l 229 -78 z "},"Ṟ":{"ha":882,"x_min":-15,"x_max":900,"o":"m 174 894 l 639 894 q 832 831 764 894 q 900 658 900 767 q 892 576 900 621 q 813 419 872 488 q 669 313 754 350 q 689 285 682 301 q 704 235 696 268 l 758 0 l 486 0 l 436 215 q 416 251 429 240 q 374 261 403 261 l 300 261 l 246 0 l -15 0 l 174 894 m 481 461 q 575 491 538 461 q 625 576 613 521 q 631 621 631 610 q 609 676 631 657 q 539 694 588 694 l 393 694 l 343 461 l 481 461 m 92 -89 l 546 -89 l 513 -244 l 58 -244 l 92 -89 z "},"S":{"ha":771,"x_min":-22,"x_max":792,"o":"m 274 -14 q 105 1 182 -14 q -22 42 28 15 l 24 257 q 153 210 81 228 q 292 192 226 192 q 402 205 367 192 q 446 257 438 218 q 447 271 447 263 q 421 313 447 299 q 318 354 394 328 l 276 368 q 131 451 178 403 q 85 574 85 499 q 92 639 85 610 q 225 841 121 774 q 522 908 329 908 q 669 897 593 908 q 792 868 744 885 l 746 651 q 519 700 635 700 q 406 689 446 700 q 358 640 367 678 q 357 628 357 636 q 381 592 357 604 q 479 557 406 579 l 507 549 q 673 462 624 514 q 722 335 722 410 q 713 257 722 306 q 583 56 685 126 q 274 -14 481 -14 z "},"Ś":{"ha":771,"x_min":-22,"x_max":792,"o":"m 576 1243 l 779 1243 l 585 957 l 393 957 l 576 1243 m 274 -14 q 105 1 182 -14 q -22 42 28 15 l 24 257 q 153 210 81 228 q 292 192 226 192 q 402 205 367 192 q 446 257 438 218 q 447 271 447 263 q 421 313 447 299 q 318 354 394 328 l 276 368 q 131 451 178 403 q 85 574 85 499 q 92 639 85 610 q 225 841 121 774 q 522 908 329 908 q 669 897 593 908 q 792 868 744 885 l 746 651 q 519 700 635 700 q 406 689 446 700 q 358 640 367 678 q 357 628 357 636 q 381 592 357 604 q 479 557 406 579 l 507 549 q 673 462 624 514 q 722 335 722 410 q 713 257 722 306 q 583 56 685 126 q 274 -14 481 -14 z "},"Š":{"ha":771,"x_min":-22,"x_max":851,"o":"m 264 1233 l 450 1233 l 518 1082 l 656 1233 l 851 1233 l 578 956 l 419 956 l 264 1233 m 274 -14 q 105 1 182 -14 q -22 42 28 15 l 24 257 q 153 210 81 228 q 292 192 226 192 q 402 205 367 192 q 446 257 438 218 q 447 271 447 263 q 421 313 447 299 q 318 354 394 328 l 276 368 q 131 451 178 403 q 85 574 85 499 q 92 639 85 610 q 225 841 121 774 q 522 908 329 908 q 669 897 593 908 q 792 868 744 885 l 746 651 q 519 700 635 700 q 406 689 446 700 q 358 640 367 678 q 357 628 357 636 q 381 592 357 604 q 479 557 406 579 l 507 549 q 673 462 624 514 q 722 335 722 410 q 713 257 722 306 q 583 56 685 126 q 274 -14 481 -14 z "},"Ş":{"ha":771,"x_min":-22,"x_max":792,"o":"m 211 -333 q 150 -330 186 -333 q 100 -322 114 -326 l 122 -219 q 201 -231 160 -231 q 287 -218 261 -231 q 313 -172 313 -206 q 296 -147 313 -153 q 246 -140 279 -140 l 158 -140 l 221 -12 q -22 42 63 -4 l 24 257 q 153 210 81 228 q 292 192 226 192 q 402 205 367 192 q 446 257 438 218 q 447 271 447 263 q 421 313 447 299 q 318 354 394 328 l 276 368 q 131 451 178 403 q 85 574 85 499 q 92 639 85 610 q 225 841 121 774 q 522 908 329 908 q 669 897 593 908 q 792 868 744 885 l 746 651 q 519 700 635 700 q 406 689 446 700 q 358 640 367 678 q 357 628 357 636 q 381 592 357 604 q 479 557 406 579 l 507 549 q 673 462 624 514 q 722 335 722 410 q 713 257 722 306 q 606 74 688 142 q 365 -10 525 6 l 338 -57 q 437 -83 404 -57 q 469 -154 469 -108 q 465 -187 469 -171 q 386 -295 450 -257 q 211 -333 322 -333 z "},"Ŝ":{"ha":771,"x_min":-22,"x_max":792,"o":"m 471 1233 l 629 1233 l 786 956 l 604 956 l 529 1106 l 400 956 l 199 956 l 471 1233 m 274 -14 q 105 1 182 -14 q -22 42 28 15 l 24 257 q 153 210 81 228 q 292 192 226 192 q 402 205 367 192 q 446 257 438 218 q 447 271 447 263 q 421 313 447 299 q 318 354 394 328 l 276 368 q 131 451 178 403 q 85 574 85 499 q 92 639 85 610 q 225 841 121 774 q 522 908 329 908 q 669 897 593 908 q 792 868 744 885 l 746 651 q 519 700 635 700 q 406 689 446 700 q 358 640 367 678 q 357 628 357 636 q 381 592 357 604 q 479 557 406 579 l 507 549 q 673 462 624 514 q 722 335 722 410 q 713 257 722 306 q 583 56 685 126 q 274 -14 481 -14 z "},"Ș":{"ha":771,"x_min":-22,"x_max":792,"o":"m 274 -14 q 105 1 182 -14 q -22 42 28 15 l 24 257 q 153 210 81 228 q 292 192 226 192 q 402 205 367 192 q 446 257 438 218 q 447 271 447 263 q 421 313 447 299 q 318 354 394 328 l 276 368 q 131 451 178 403 q 85 574 85 499 q 92 639 85 610 q 225 841 121 774 q 522 908 329 908 q 669 897 593 908 q 792 868 744 885 l 746 651 q 519 700 635 700 q 406 689 446 700 q 358 640 367 678 q 357 628 357 636 q 381 592 357 604 q 479 557 406 579 l 507 549 q 673 462 624 514 q 722 335 722 410 q 713 257 722 306 q 583 56 685 126 q 274 -14 481 -14 m 203 -58 l 408 -58 l 288 -325 l 101 -325 l 203 -58 z "},"Ṡ":{"ha":771,"x_min":-22,"x_max":792,"o":"m 456 1160 l 636 1160 l 600 993 l 419 993 l 456 1160 m 274 -14 q 105 1 182 -14 q -22 42 28 15 l 24 257 q 153 210 81 228 q 292 192 226 192 q 402 205 367 192 q 446 257 438 218 q 447 271 447 263 q 421 313 447 299 q 318 354 394 328 l 276 368 q 131 451 178 403 q 85 574 85 499 q 92 639 85 610 q 225 841 121 774 q 522 908 329 908 q 669 897 593 908 q 792 868 744 885 l 746 651 q 519 700 635 700 q 406 689 446 700 q 358 640 367 678 q 357 628 357 636 q 381 592 357 604 q 479 557 406 579 l 507 549 q 673 462 624 514 q 722 335 722 410 q 713 257 722 306 q 583 56 685 126 q 274 -14 481 -14 z "},"Ṣ":{"ha":771,"x_min":-22,"x_max":792,"o":"m 274 -14 q 105 1 182 -14 q -22 42 28 15 l 24 257 q 153 210 81 228 q 292 192 226 192 q 402 205 367 192 q 446 257 438 218 q 447 271 447 263 q 421 313 447 299 q 318 354 394 328 l 276 368 q 131 451 178 403 q 85 574 85 499 q 92 639 85 610 q 225 841 121 774 q 522 908 329 908 q 669 897 593 908 q 792 868 744 885 l 746 651 q 519 700 635 700 q 406 689 446 700 q 358 640 367 678 q 357 628 357 636 q 381 592 357 604 q 479 557 406 579 l 507 549 q 673 462 624 514 q 722 335 722 410 q 713 257 722 306 q 583 56 685 126 q 274 -14 481 -14 m 192 -78 l 372 -78 l 338 -244 l 157 -244 l 192 -78 z "},"ẞ":{"ha":889,"x_min":-22,"x_max":876,"o":"m 478 -14 q 294 17 363 -14 l 333 201 q 388 185 356 192 q 450 179 421 179 q 528 198 501 179 q 564 257 556 217 q 565 275 565 264 q 544 314 565 301 q 481 326 524 326 l 381 326 l 414 481 l 633 621 q 635 632 635 625 q 608 672 635 658 q 528 686 581 686 q 399 653 443 686 q 342 557 354 619 l 224 0 l -22 0 l 97 568 q 249 818 132 728 q 558 908 365 908 q 794 838 711 908 q 876 653 876 767 q 869 585 876 614 l 654 447 l 679 447 q 790 403 750 447 q 831 286 831 358 q 828 243 831 258 q 717 53 808 121 q 478 -14 625 -14 z "},"Ə":{"ha":957,"x_min":26,"x_max":950,"o":"m 388 -14 q 123 66 219 -14 q 26 288 26 146 q 38 385 26 329 l 74 551 l 715 551 q 717 585 717 563 q 692 671 717 640 q 612 713 668 701 q 454 725 556 725 q 294 708 388 725 q 146 668 200 690 l 183 846 q 356 890 258 872 q 550 908 454 908 q 843 815 736 908 q 950 554 950 721 q 936 435 950 507 q 759 102 890 218 q 388 -14 628 -14 m 425 158 q 594 211 535 158 q 676 371 654 264 l 267 371 l 257 325 q 251 279 251 292 q 425 158 251 158 z "},"T":{"ha":778,"x_min":78,"x_max":882,"o":"m 329 700 l 78 700 l 118 894 l 882 894 l 842 700 l 590 700 l 442 0 l 181 0 l 329 700 z "},"Ŧ":{"ha":778,"x_min":78,"x_max":882,"o":"m 258 369 l 124 369 l 161 544 l 296 544 l 329 700 l 78 700 l 118 894 l 882 894 l 842 700 l 590 700 l 557 544 l 692 544 l 654 369 l 519 369 l 442 0 l 181 0 l 258 369 z "},"Ť":{"ha":778,"x_min":78,"x_max":882,"o":"m 281 1235 l 467 1235 l 535 1083 l 672 1235 l 868 1235 l 594 957 l 436 957 l 281 1235 m 329 700 l 78 700 l 118 894 l 882 894 l 842 700 l 590 700 l 442 0 l 181 0 l 329 700 z "},"Ţ":{"ha":778,"x_min":78,"x_max":882,"o":"m 225 -333 q 164 -330 200 -333 q 114 -322 128 -326 l 136 -219 q 215 -231 174 -231 q 301 -218 275 -231 q 326 -172 326 -206 q 310 -147 326 -153 q 260 -140 293 -140 l 172 -140 l 242 0 l 181 0 l 329 700 l 78 700 l 118 894 l 882 894 l 842 700 l 590 700 l 442 0 l 385 0 l 351 -57 q 451 -83 418 -57 q 483 -154 483 -108 q 479 -187 483 -171 q 400 -295 464 -257 q 225 -333 336 -333 z "},"Ț":{"ha":778,"x_min":78,"x_max":882,"o":"m 329 700 l 78 700 l 118 894 l 882 894 l 842 700 l 590 700 l 442 0 l 181 0 l 329 700 m 199 -58 l 411 -58 l 265 -371 l 86 -371 l 199 -58 z "},"Ṭ":{"ha":778,"x_min":78,"x_max":882,"o":"m 329 700 l 78 700 l 118 894 l 882 894 l 842 700 l 590 700 l 442 0 l 181 0 l 329 700 m 204 -78 l 385 -78 l 350 -244 l 169 -244 l 204 -78 z "},"Ṯ":{"ha":778,"x_min":29,"x_max":882,"o":"m 329 700 l 78 700 l 118 894 l 882 894 l 842 700 l 590 700 l 442 0 l 181 0 l 329 700 m 63 -89 l 517 -89 l 483 -244 l 29 -244 l 63 -89 z "},"U":{"ha":957,"x_min":43,"x_max":1013,"o":"m 397 -14 q 206 24 286 -14 q 85 127 126 61 q 43 278 43 193 q 51 353 43 314 l 167 894 l 428 894 l 317 372 q 308 304 308 333 q 340 231 308 253 q 444 208 372 208 q 576 246 532 208 q 640 372 621 283 l 751 894 l 1013 894 l 896 344 q 736 72 857 157 q 397 -14 615 -14 z "},"Ú":{"ha":957,"x_min":43,"x_max":1013,"o":"m 689 1242 l 892 1242 l 697 956 l 506 956 l 689 1242 m 397 -14 q 206 24 286 -14 q 85 127 126 61 q 43 278 43 193 q 51 353 43 314 l 167 894 l 428 894 l 317 372 q 308 304 308 333 q 340 231 308 253 q 444 208 372 208 q 576 246 532 208 q 640 372 621 283 l 751 894 l 1013 894 l 896 344 q 736 72 857 157 q 397 -14 615 -14 z "},"Ŭ":{"ha":957,"x_min":43,"x_max":1013,"o":"m 601 956 q 444 1004 501 956 q 388 1143 388 1053 q 396 1215 388 1178 l 557 1215 q 551 1171 551 1182 q 625 1099 551 1099 q 744 1215 721 1099 l 921 1215 q 808 1024 894 1092 q 601 956 722 956 m 397 -14 q 206 24 286 -14 q 85 127 126 61 q 43 278 43 193 q 51 353 43 314 l 167 894 l 428 894 l 317 372 q 308 304 308 333 q 340 231 308 253 q 444 208 372 208 q 576 246 532 208 q 640 372 621 283 l 751 894 l 1013 894 l 896 344 q 736 72 857 157 q 397 -14 615 -14 z "},"Ǔ":{"ha":957,"x_min":43,"x_max":1013,"o":"m 368 1233 l 554 1233 l 622 1082 l 760 1233 l 956 1233 l 682 956 l 524 956 l 368 1233 m 397 -14 q 206 24 286 -14 q 85 127 126 61 q 43 278 43 193 q 51 353 43 314 l 167 894 l 428 894 l 317 372 q 308 304 308 333 q 340 231 308 253 q 444 208 372 208 q 576 246 532 208 q 640 372 621 283 l 751 894 l 1013 894 l 896 344 q 736 72 857 157 q 397 -14 615 -14 z "},"Û":{"ha":957,"x_min":43,"x_max":1013,"o":"m 583 1233 l 742 1233 l 899 956 l 717 956 l 642 1106 l 513 956 l 311 956 l 583 1233 m 397 -14 q 206 24 286 -14 q 85 127 126 61 q 43 278 43 193 q 51 353 43 314 l 167 894 l 428 894 l 317 372 q 308 304 308 333 q 340 231 308 253 q 444 208 372 208 q 576 246 532 208 q 640 372 621 283 l 751 894 l 1013 894 l 896 344 q 736 72 857 157 q 397 -14 615 -14 z "},"Ü":{"ha":957,"x_min":43,"x_max":1013,"o":"m 407 1160 l 588 1160 l 551 993 l 371 993 l 407 1160 m 706 1160 l 888 1160 l 851 993 l 669 993 l 706 1160 m 397 -14 q 206 24 286 -14 q 85 127 126 61 q 43 278 43 193 q 51 353 43 314 l 167 894 l 428 894 l 317 372 q 308 304 308 333 q 340 231 308 253 q 444 208 372 208 q 576 246 532 208 q 640 372 621 283 l 751 894 l 1013 894 l 896 344 q 736 72 857 157 q 397 -14 615 -14 z "},"Ǘ":{"ha":957,"x_min":43,"x_max":1013,"o":"m 669 1344 l 864 1344 l 726 1154 l 550 1154 l 669 1344 m 399 1118 l 575 1118 l 542 961 l 365 961 l 399 1118 m 697 1118 l 874 1118 l 840 961 l 664 961 l 697 1118 m 397 -14 q 206 24 286 -14 q 85 127 126 61 q 43 278 43 193 q 51 353 43 314 l 167 894 l 428 894 l 317 372 q 308 304 308 333 q 340 231 308 253 q 444 208 372 208 q 576 246 532 208 q 640 372 621 283 l 751 894 l 1013 894 l 896 344 q 736 72 857 157 q 397 -14 615 -14 z "},"Ǚ":{"ha":957,"x_min":43,"x_max":1013,"o":"m 419 1336 l 607 1336 l 660 1235 l 756 1336 l 947 1336 l 735 1151 l 556 1151 l 419 1336 m 397 1118 l 574 1118 l 540 961 l 364 961 l 397 1118 m 696 1118 l 871 1118 l 838 961 l 663 961 l 696 1118 m 397 -14 q 206 24 286 -14 q 85 127 126 61 q 43 278 43 193 q 51 353 43 314 l 167 894 l 428 894 l 317 372 q 308 304 308 333 q 340 231 308 253 q 444 208 372 208 q 576 246 532 208 q 640 372 621 283 l 751 894 l 1013 894 l 896 344 q 736 72 857 157 q 397 -14 615 -14 z "},"Ǜ":{"ha":957,"x_min":43,"x_max":1013,"o":"m 510 1369 l 704 1369 l 743 1179 l 567 1179 l 510 1369 m 406 1143 l 582 1143 l 549 986 l 372 986 l 406 1143 m 704 1143 l 881 1143 l 847 986 l 671 986 l 704 1143 m 397 -14 q 206 24 286 -14 q 85 127 126 61 q 43 278 43 193 q 51 353 43 314 l 167 894 l 428 894 l 317 372 q 308 304 308 333 q 340 231 308 253 q 444 208 372 208 q 576 246 532 208 q 640 372 621 283 l 751 894 l 1013 894 l 896 344 q 736 72 857 157 q 397 -14 615 -14 z "},"Ǖ":{"ha":957,"x_min":43,"x_max":1013,"o":"m 464 1368 l 918 1368 l 885 1213 l 431 1213 l 464 1368 m 403 1138 l 583 1138 l 547 971 l 367 971 l 403 1138 m 701 1138 l 883 1138 l 847 971 l 665 971 l 701 1138 m 397 -14 q 206 24 286 -14 q 85 127 126 61 q 43 278 43 193 q 51 353 43 314 l 167 894 l 428 894 l 317 372 q 308 304 308 333 q 340 231 308 253 q 444 208 372 208 q 576 246 532 208 q 640 372 621 283 l 751 894 l 1013 894 l 896 344 q 736 72 857 157 q 397 -14 615 -14 z "},"Ụ":{"ha":957,"x_min":43,"x_max":1013,"o":"m 397 -14 q 206 24 286 -14 q 85 127 126 61 q 43 278 43 193 q 51 353 43 314 l 167 894 l 428 894 l 317 372 q 308 304 308 333 q 340 231 308 253 q 444 208 372 208 q 576 246 532 208 q 640 372 621 283 l 751 894 l 1013 894 l 896 344 q 736 72 857 157 q 397 -14 615 -14 m 293 -78 l 474 -78 l 439 -244 l 258 -244 l 293 -78 z "},"Ù":{"ha":957,"x_min":43,"x_max":1013,"o":"m 443 1242 l 647 1242 l 708 956 l 517 956 l 443 1242 m 397 -14 q 206 24 286 -14 q 85 127 126 61 q 43 278 43 193 q 51 353 43 314 l 167 894 l 428 894 l 317 372 q 308 304 308 333 q 340 231 308 253 q 444 208 372 208 q 576 246 532 208 q 640 372 621 283 l 751 894 l 1013 894 l 896 344 q 736 72 857 157 q 397 -14 615 -14 z "},"Ủ":{"ha":957,"x_min":43,"x_max":1013,"o":"m 528 1068 q 627 1087 597 1072 q 663 1129 657 1101 q 589 1175 672 1175 q 504 1164 551 1175 l 528 1272 q 692 1292 593 1292 q 817 1262 774 1292 q 860 1181 860 1232 q 857 1151 860 1161 q 810 1062 844 1093 q 711 1013 775 1031 l 699 956 l 503 956 l 528 1068 m 397 -14 q 206 24 286 -14 q 85 127 126 61 q 43 278 43 193 q 51 353 43 314 l 167 894 l 428 894 l 317 372 q 308 304 308 333 q 340 231 308 253 q 444 208 372 208 q 576 246 532 208 q 640 372 621 283 l 751 894 l 1013 894 l 896 344 q 736 72 857 157 q 397 -14 615 -14 z "},"Ư":{"ha":1197,"x_min":43,"x_max":1328,"o":"m 397 -14 q 206 24 286 -14 q 85 127 126 61 q 43 278 43 193 q 51 353 43 314 l 167 894 l 428 894 l 317 372 q 308 304 308 333 q 340 231 308 253 q 444 208 372 208 q 576 246 532 208 q 640 372 621 283 l 751 894 l 1013 894 l 996 819 q 1095 852 1063 822 q 1143 956 1128 882 l 1328 956 q 1259 776 1303 842 q 1144 682 1215 711 q 960 650 1072 653 l 896 344 q 736 72 857 157 q 397 -14 615 -14 z "},"Ứ":{"ha":1197,"x_min":43,"x_max":1328,"o":"m 678 1242 l 881 1242 l 686 956 l 494 956 l 678 1242 m 397 -14 q 206 24 286 -14 q 85 127 126 61 q 43 278 43 193 q 51 353 43 314 l 167 894 l 428 894 l 317 372 q 308 304 308 333 q 340 231 308 253 q 444 208 372 208 q 576 246 532 208 q 640 372 621 283 l 751 894 l 1013 894 l 996 819 q 1095 852 1063 822 q 1143 956 1128 882 l 1328 956 q 1259 776 1303 842 q 1144 682 1215 711 q 960 650 1072 653 l 896 344 q 736 72 857 157 q 397 -14 615 -14 z "},"Ự":{"ha":1197,"x_min":43,"x_max":1328,"o":"m 397 -14 q 206 24 286 -14 q 85 127 126 61 q 43 278 43 193 q 51 353 43 314 l 167 894 l 428 894 l 317 372 q 308 304 308 333 q 340 231 308 253 q 444 208 372 208 q 576 246 532 208 q 640 372 621 283 l 751 894 l 1013 894 l 996 819 q 1095 852 1063 822 q 1143 956 1128 882 l 1328 956 q 1259 776 1303 842 q 1144 682 1215 711 q 960 650 1072 653 l 896 344 q 736 72 857 157 q 397 -14 615 -14 m 300 -78 l 481 -78 l 446 -244 l 265 -244 l 300 -78 z "},"Ừ":{"ha":1197,"x_min":43,"x_max":1328,"o":"m 442 1242 l 646 1242 l 707 956 l 515 956 l 442 1242 m 397 -14 q 206 24 286 -14 q 85 127 126 61 q 43 278 43 193 q 51 353 43 314 l 167 894 l 428 894 l 317 372 q 308 304 308 333 q 340 231 308 253 q 444 208 372 208 q 576 246 532 208 q 640 372 621 283 l 751 894 l 1013 894 l 996 819 q 1095 852 1063 822 q 1143 956 1128 882 l 1328 956 q 1259 776 1303 842 q 1144 682 1215 711 q 960 650 1072 653 l 896 344 q 736 72 857 157 q 397 -14 615 -14 z "},"Ử":{"ha":1197,"x_min":43,"x_max":1328,"o":"m 488 1067 q 587 1085 557 1071 q 622 1128 617 1100 q 549 1174 632 1174 q 464 1163 511 1174 l 488 1271 q 651 1290 553 1290 q 776 1260 733 1290 q 819 1179 819 1231 q 817 1150 819 1160 q 769 1060 804 1092 q 671 1011 735 1029 l 658 954 l 463 954 l 488 1067 m 397 -14 q 206 24 286 -14 q 85 127 126 61 q 43 278 43 193 q 51 353 43 314 l 167 894 l 428 894 l 317 372 q 308 304 308 333 q 340 231 308 253 q 444 208 372 208 q 576 246 532 208 q 640 372 621 283 l 751 894 l 1013 894 l 996 819 q 1095 852 1063 822 q 1143 956 1128 882 l 1328 956 q 1259 776 1303 842 q 1144 682 1215 711 q 960 650 1072 653 l 896 344 q 736 72 857 157 q 397 -14 615 -14 z "},"Ữ":{"ha":1197,"x_min":43,"x_max":1328,"o":"m 744 961 q 683 969 713 961 q 614 992 653 976 q 553 1013 578 1006 q 506 1019 529 1019 q 358 965 424 1019 l 393 1129 q 457 1162 418 1149 q 535 1175 496 1175 q 592 1168 565 1175 q 658 1146 618 1161 q 718 1124 692 1132 q 774 1117 744 1117 q 852 1132 817 1117 q 910 1172 888 1147 l 875 1007 q 820 974 857 988 q 744 961 783 961 m 397 -14 q 206 24 286 -14 q 85 127 126 61 q 43 278 43 193 q 51 353 43 314 l 167 894 l 428 894 l 317 372 q 308 304 308 333 q 340 231 308 253 q 444 208 372 208 q 576 246 532 208 q 640 372 621 283 l 751 894 l 1013 894 l 996 819 q 1095 852 1063 822 q 1143 956 1128 882 l 1328 956 q 1259 776 1303 842 q 1144 682 1215 711 q 960 650 1072 653 l 896 344 q 736 72 857 157 q 397 -14 615 -14 z "},"Ű":{"ha":957,"x_min":43,"x_max":1028,"o":"m 485 1211 l 703 1211 l 508 956 l 311 956 l 485 1211 m 808 1211 l 1028 1211 l 832 956 l 635 956 l 808 1211 m 397 -14 q 206 24 286 -14 q 85 127 126 61 q 43 278 43 193 q 51 353 43 314 l 167 894 l 428 894 l 317 372 q 308 304 308 333 q 340 231 308 253 q 444 208 372 208 q 576 246 532 208 q 640 372 621 283 l 751 894 l 1013 894 l 896 344 q 736 72 857 157 q 397 -14 615 -14 z "},"Ū":{"ha":957,"x_min":43,"x_max":1013,"o":"m 419 1161 l 874 1161 l 840 1006 l 386 1006 l 419 1161 m 397 -14 q 206 24 286 -14 q 85 127 126 61 q 43 278 43 193 q 51 353 43 314 l 167 894 l 428 894 l 317 372 q 308 304 308 333 q 340 231 308 253 q 444 208 372 208 q 576 246 532 208 q 640 372 621 283 l 751 894 l 1013 894 l 896 344 q 736 72 857 157 q 397 -14 615 -14 z "},"Ų":{"ha":957,"x_min":43,"x_max":1013,"o":"m 357 -306 q 242 -279 285 -306 q 199 -200 199 -253 q 201 -171 199 -182 q 244 -81 211 -124 q 325 -8 278 -39 q 117 86 192 8 q 43 276 43 164 q 51 353 43 314 l 167 894 l 428 894 l 317 372 q 308 304 308 333 q 340 231 308 253 q 444 208 372 208 q 576 246 532 208 q 640 372 621 283 l 751 894 l 1013 894 l 896 344 q 765 95 861 181 q 500 -8 668 10 q 408 -124 419 -67 q 406 -140 406 -135 q 418 -169 406 -158 q 454 -179 431 -179 q 493 -175 472 -179 q 526 -164 514 -171 l 501 -283 q 437 -299 476 -293 q 357 -306 397 -306 z "},"Ů":{"ha":957,"x_min":43,"x_max":1013,"o":"m 601 956 q 485 994 526 956 q 443 1094 443 1032 q 449 1138 443 1107 q 527 1269 467 1218 q 679 1321 588 1321 q 797 1283 756 1321 q 839 1182 839 1244 q 833 1138 839 1168 q 755 1006 815 1057 q 601 956 694 956 m 624 1063 q 694 1090 667 1063 q 721 1158 721 1118 q 705 1198 721 1183 q 656 1213 689 1213 q 586 1183 613 1213 q 560 1115 560 1154 q 624 1063 560 1063 m 397 -14 q 206 24 286 -14 q 85 127 126 61 q 43 278 43 193 q 51 353 43 314 l 167 894 l 428 894 l 317 372 q 308 304 308 333 q 340 231 308 253 q 444 208 372 208 q 576 246 532 208 q 640 372 621 283 l 751 894 l 1013 894 l 896 344 q 736 72 857 157 q 397 -14 615 -14 z "},"Ũ":{"ha":957,"x_min":43,"x_max":1013,"o":"m 739 967 q 677 974 707 967 q 608 997 647 982 q 548 1018 572 1011 q 500 1025 524 1025 q 353 971 418 1025 l 388 1135 q 451 1167 413 1154 q 529 1181 490 1181 q 586 1174 560 1181 q 653 1151 613 1167 q 713 1130 686 1138 q 768 1122 739 1122 q 847 1138 811 1122 q 904 1178 882 1153 l 869 1013 q 815 980 851 993 q 739 967 778 967 m 397 -14 q 206 24 286 -14 q 85 127 126 61 q 43 278 43 193 q 51 353 43 314 l 167 894 l 428 894 l 317 372 q 308 304 308 333 q 340 231 308 253 q 444 208 372 208 q 576 246 532 208 q 640 372 621 283 l 751 894 l 1013 894 l 896 344 q 736 72 857 157 q 397 -14 615 -14 z "},"V":{"ha":1032,"x_min":146,"x_max":1108,"o":"m 146 894 l 410 894 l 493 303 l 826 894 l 1108 894 l 576 0 l 300 0 l 146 894 z "},"W":{"ha":1238,"x_min":146,"x_max":1314,"o":"m 146 894 l 401 894 l 403 421 l 574 760 l 601 894 l 815 894 l 851 419 l 1058 894 l 1314 894 l 918 0 l 689 0 l 651 463 l 408 0 l 165 0 l 146 894 z "},"Ẃ":{"ha":1238,"x_min":146,"x_max":1314,"o":"m 803 1242 l 1006 1242 l 811 956 l 619 956 l 803 1242 m 146 894 l 401 894 l 403 421 l 574 760 l 601 894 l 815 894 l 851 419 l 1058 894 l 1314 894 l 918 0 l 689 0 l 651 463 l 408 0 l 165 0 l 146 894 z "},"Ŵ":{"ha":1238,"x_min":146,"x_max":1314,"o":"m 728 1233 l 886 1233 l 1043 956 l 861 956 l 786 1106 l 657 956 l 456 956 l 728 1233 m 146 894 l 401 894 l 403 421 l 574 760 l 601 894 l 815 894 l 851 419 l 1058 894 l 1314 894 l 918 0 l 689 0 l 651 463 l 408 0 l 165 0 l 146 894 z "},"Ẅ":{"ha":1238,"x_min":146,"x_max":1314,"o":"m 554 1160 l 735 1160 l 699 993 l 518 993 l 554 1160 m 853 1160 l 1035 1160 l 999 993 l 817 993 l 853 1160 m 146 894 l 401 894 l 403 421 l 574 760 l 601 894 l 815 894 l 851 419 l 1058 894 l 1314 894 l 918 0 l 689 0 l 651 463 l 408 0 l 165 0 l 146 894 z "},"Ẁ":{"ha":1238,"x_min":146,"x_max":1314,"o":"m 556 1242 l 760 1242 l 821 956 l 629 956 l 556 1242 m 146 894 l 401 894 l 403 421 l 574 760 l 601 894 l 815 894 l 851 419 l 1058 894 l 1314 894 l 918 0 l 689 0 l 651 463 l 408 0 l 165 0 l 146 894 z "},"X":{"ha":1046,"x_min":-43,"x_max":1110,"o":"m 383 453 l 158 894 l 469 894 l 583 660 l 799 894 l 1110 894 l 699 453 l 933 0 l 618 0 l 496 243 l 272 0 l -43 0 l 383 453 z "},"Y":{"ha":975,"x_min":146,"x_max":1051,"o":"m 349 328 l 146 894 l 410 894 l 519 557 l 771 894 l 1051 894 l 610 328 l 540 0 l 279 0 l 349 328 z "},"Ý":{"ha":975,"x_min":146,"x_max":1051,"o":"m 694 1242 l 897 1242 l 703 956 l 511 956 l 694 1242 m 349 328 l 146 894 l 410 894 l 519 557 l 771 894 l 1051 894 l 610 328 l 540 0 l 279 0 l 349 328 z "},"Ŷ":{"ha":975,"x_min":146,"x_max":1051,"o":"m 592 1233 l 750 1233 l 907 956 l 725 956 l 650 1106 l 521 956 l 319 956 l 592 1233 m 349 328 l 146 894 l 410 894 l 519 557 l 771 894 l 1051 894 l 610 328 l 540 0 l 279 0 l 349 328 z "},"Ÿ":{"ha":975,"x_min":146,"x_max":1051,"o":"m 418 1160 l 599 1160 l 563 993 l 382 993 l 418 1160 m 717 1160 l 899 1160 l 863 993 l 681 993 l 717 1160 m 349 328 l 146 894 l 410 894 l 519 557 l 771 894 l 1051 894 l 610 328 l 540 0 l 279 0 l 349 328 z "},"Ẏ":{"ha":975,"x_min":146,"x_max":1051,"o":"m 565 1160 l 746 1160 l 710 993 l 529 993 l 565 1160 m 349 328 l 146 894 l 410 894 l 519 557 l 771 894 l 1051 894 l 610 328 l 540 0 l 279 0 l 349 328 z "},"Ỵ":{"ha":975,"x_min":146,"x_max":1051,"o":"m 349 328 l 146 894 l 410 894 l 519 557 l 771 894 l 1051 894 l 610 328 l 540 0 l 279 0 l 349 328 m 303 -76 l 483 -76 l 449 -243 l 268 -243 l 303 -76 z "},"Ỳ":{"ha":975,"x_min":146,"x_max":1051,"o":"m 433 1242 l 638 1242 l 699 956 l 507 956 l 433 1242 m 349 328 l 146 894 l 410 894 l 519 557 l 771 894 l 1051 894 l 610 328 l 540 0 l 279 0 l 349 328 z "},"Ỷ":{"ha":975,"x_min":146,"x_max":1051,"o":"m 532 1068 q 631 1087 601 1072 q 667 1129 661 1101 q 593 1175 676 1175 q 508 1164 556 1175 l 532 1272 q 696 1292 597 1292 q 821 1262 778 1292 q 864 1181 864 1232 q 861 1151 864 1161 q 814 1062 849 1093 q 715 1013 779 1031 l 703 956 l 507 956 l 532 1068 m 349 328 l 146 894 l 410 894 l 519 557 l 771 894 l 1051 894 l 610 328 l 540 0 l 279 0 l 349 328 z "},"Ỹ":{"ha":975,"x_min":146,"x_max":1051,"o":"m 749 967 q 687 974 717 967 q 618 997 657 982 q 558 1018 582 1011 q 510 1025 533 1025 q 363 971 428 1025 l 397 1135 q 461 1167 422 1154 q 539 1181 500 1181 q 596 1174 569 1181 q 663 1151 622 1167 q 722 1130 696 1138 q 778 1122 749 1122 q 856 1138 821 1122 q 914 1178 892 1153 l 879 1013 q 824 980 861 993 q 749 967 788 967 m 349 328 l 146 894 l 410 894 l 519 557 l 771 894 l 1051 894 l 610 328 l 540 0 l 279 0 l 349 328 z "},"Z":{"ha":803,"x_min":-43,"x_max":878,"o":"m -17 131 l 493 694 l 125 694 l 167 894 l 878 894 l 850 758 l 346 200 l 739 200 l 697 0 l -43 0 l -17 131 z "},"Ź":{"ha":803,"x_min":-43,"x_max":878,"o":"m 599 1242 l 801 1242 l 607 956 l 415 956 l 599 1242 m -17 131 l 493 694 l 125 694 l 167 894 l 878 894 l 850 758 l 346 200 l 739 200 l 697 0 l -43 0 l -17 131 z "},"Ž":{"ha":803,"x_min":-43,"x_max":899,"o":"m 311 1233 l 497 1233 l 565 1082 l 703 1233 l 899 1233 l 625 956 l 467 956 l 311 1233 m -17 131 l 493 694 l 125 694 l 167 894 l 878 894 l 850 758 l 346 200 l 739 200 l 697 0 l -43 0 l -17 131 z "},"Ż":{"ha":803,"x_min":-43,"x_max":878,"o":"m 486 1160 l 667 1160 l 631 993 l 450 993 l 486 1160 m -17 131 l 493 694 l 125 694 l 167 894 l 878 894 l 850 758 l 346 200 l 739 200 l 697 0 l -43 0 l -17 131 z "},"Ẓ":{"ha":803,"x_min":-43,"x_max":878,"o":"m -17 131 l 493 694 l 125 694 l 167 894 l 878 894 l 850 758 l 346 200 l 739 200 l 697 0 l -43 0 l -17 131 m 214 -78 l 394 -78 l 360 -244 l 179 -244 l 214 -78 z "},"a":{"ha":843,"x_min":10,"x_max":842,"o":"m 260 -14 q 75 40 140 -14 q 10 204 10 93 q 21 306 10 256 q 103 499 44 417 q 244 627 161 582 q 421 672 326 672 q 510 660 471 672 q 574 626 549 647 l 581 658 l 842 658 l 703 0 l 476 0 l 474 51 q 260 -14 378 -14 m 375 175 q 435 185 406 175 q 486 215 465 196 l 536 449 q 447 483 506 483 q 288 304 326 483 q 279 244 279 269 q 301 191 279 207 q 375 175 324 175 z "},"á":{"ha":843,"x_min":10,"x_max":842,"o":"m 558 1011 l 761 1011 l 567 725 l 375 725 l 558 1011 m 260 -14 q 75 40 140 -14 q 10 204 10 93 q 21 306 10 256 q 103 499 44 417 q 244 627 161 582 q 421 672 326 672 q 510 660 471 672 q 574 626 549 647 l 581 658 l 842 658 l 703 0 l 476 0 l 474 51 q 260 -14 378 -14 m 375 175 q 435 185 406 175 q 486 215 465 196 l 536 449 q 447 483 506 483 q 288 304 326 483 q 279 244 279 269 q 301 191 279 207 q 375 175 324 175 z "},"ă":{"ha":843,"x_min":10,"x_max":842,"o":"m 499 726 q 342 775 399 726 q 285 914 285 824 q 293 986 285 949 l 454 986 q 449 942 449 953 q 522 869 449 869 q 642 986 618 869 l 818 986 q 706 794 792 863 q 499 726 619 726 m 260 -14 q 75 40 140 -14 q 10 204 10 93 q 21 306 10 256 q 103 499 44 417 q 244 627 161 582 q 421 672 326 672 q 510 660 471 672 q 574 626 549 647 l 581 658 l 842 658 l 703 0 l 476 0 l 474 51 q 260 -14 378 -14 m 375 175 q 435 185 406 175 q 486 215 465 196 l 536 449 q 447 483 506 483 q 288 304 326 483 q 279 244 279 269 q 301 191 279 207 q 375 175 324 175 z "},"ắ":{"ha":843,"x_min":10,"x_max":842,"o":"m 581 1176 l 754 1176 l 593 958 l 443 958 l 581 1176 m 469 725 q 319 769 378 725 q 261 901 261 814 q 268 964 261 936 l 414 964 q 410 924 410 943 q 497 853 410 853 q 582 883 549 853 q 626 964 615 913 l 772 964 q 671 783 746 840 q 469 725 596 725 m 260 -14 q 75 40 140 -14 q 10 204 10 93 q 21 306 10 256 q 103 499 44 417 q 244 627 161 582 q 421 672 326 672 q 510 660 471 672 q 574 626 549 647 l 581 658 l 842 658 l 703 0 l 476 0 l 474 51 q 260 -14 378 -14 m 375 175 q 435 185 406 175 q 486 215 465 196 l 536 449 q 447 483 506 483 q 288 304 326 483 q 279 244 279 269 q 301 191 279 207 q 375 175 324 175 z "},"ặ":{"ha":843,"x_min":10,"x_max":842,"o":"m 490 725 q 333 774 390 725 q 276 913 276 822 q 285 985 276 947 l 446 985 q 440 940 440 951 q 514 868 440 868 q 633 985 610 868 l 810 985 q 697 793 783 861 q 490 725 611 725 m 260 -14 q 75 40 140 -14 q 10 204 10 93 q 21 306 10 256 q 103 499 44 417 q 244 627 161 582 q 421 672 326 672 q 510 660 471 672 q 574 626 549 647 l 581 658 l 842 658 l 703 0 l 476 0 l 474 51 q 260 -14 378 -14 m 375 175 q 435 185 406 175 q 486 215 465 196 l 536 449 q 447 483 506 483 q 288 304 326 483 q 279 244 279 269 q 301 191 279 207 q 375 175 324 175 m 239 -78 l 419 -78 l 385 -244 l 204 -244 l 239 -78 z "},"ằ":{"ha":843,"x_min":10,"x_max":842,"o":"m 388 1176 l 561 1176 l 607 958 l 457 958 l 388 1176 m 482 725 q 332 769 390 725 q 274 901 274 814 q 281 964 274 936 l 426 964 q 422 924 422 943 q 510 853 422 853 q 594 883 561 853 q 639 964 628 913 l 785 964 q 683 783 758 840 q 482 725 608 725 m 260 -14 q 75 40 140 -14 q 10 204 10 93 q 21 306 10 256 q 103 499 44 417 q 244 627 161 582 q 421 672 326 672 q 510 660 471 672 q 574 626 549 647 l 581 658 l 842 658 l 703 0 l 476 0 l 474 51 q 260 -14 378 -14 m 375 175 q 435 185 406 175 q 486 215 465 196 l 536 449 q 447 483 506 483 q 288 304 326 483 q 279 244 279 269 q 301 191 279 207 q 375 175 324 175 z "},"ẳ":{"ha":843,"x_min":10,"x_max":842,"o":"m 464 1051 q 579 1103 569 1056 q 571 1133 585 1125 q 522 1142 557 1142 q 449 1129 483 1142 l 468 1222 q 614 1240 526 1240 q 717 1214 681 1240 q 754 1143 754 1188 q 751 1121 754 1138 q 710 1047 740 1074 q 622 1007 681 1021 l 614 965 l 446 965 l 464 1051 m 481 725 q 331 769 389 725 q 272 901 272 814 q 279 964 272 936 l 425 964 q 421 924 421 943 q 508 853 421 853 q 593 883 560 853 q 638 964 626 913 l 783 964 q 682 783 757 840 q 481 725 607 725 m 260 -14 q 75 40 140 -14 q 10 204 10 93 q 21 306 10 256 q 103 499 44 417 q 244 627 161 582 q 421 672 326 672 q 510 660 471 672 q 574 626 549 647 l 581 658 l 842 658 l 703 0 l 476 0 l 474 51 q 260 -14 378 -14 m 375 175 q 435 185 406 175 q 486 215 465 196 l 536 449 q 447 483 506 483 q 288 304 326 483 q 279 244 279 269 q 301 191 279 207 q 375 175 324 175 z "},"ẵ":{"ha":843,"x_min":10,"x_max":842,"o":"m 672 989 q 614 997 642 989 q 546 1019 586 1004 q 488 1039 513 1032 q 439 1046 464 1046 q 296 993 357 1046 l 326 1135 q 388 1167 350 1154 q 464 1179 425 1179 q 519 1172 494 1179 q 585 1150 543 1165 q 646 1129 622 1136 q 696 1122 669 1122 q 772 1137 738 1122 q 829 1176 807 1151 l 799 1033 q 747 1002 782 1015 q 672 989 711 989 m 485 725 q 335 769 393 725 q 276 901 276 814 q 283 964 276 936 l 429 964 q 425 924 425 943 q 513 853 425 853 q 597 883 564 853 q 642 964 631 913 l 788 964 q 686 783 761 840 q 485 725 611 725 m 260 -14 q 75 40 140 -14 q 10 204 10 93 q 21 306 10 256 q 103 499 44 417 q 244 627 161 582 q 421 672 326 672 q 510 660 471 672 q 574 626 549 647 l 581 658 l 842 658 l 703 0 l 476 0 l 474 51 q 260 -14 378 -14 m 375 175 q 435 185 406 175 q 486 215 465 196 l 536 449 q 447 483 506 483 q 288 304 326 483 q 279 244 279 269 q 301 191 279 207 q 375 175 324 175 z "},"ǎ":{"ha":843,"x_min":10,"x_max":842,"o":"m 242 1003 l 428 1003 l 496 851 l 633 1003 l 829 1003 l 556 725 l 397 725 l 242 1003 m 260 -14 q 75 40 140 -14 q 10 204 10 93 q 21 306 10 256 q 103 499 44 417 q 244 627 161 582 q 421 672 326 672 q 510 660 471 672 q 574 626 549 647 l 581 658 l 842 658 l 703 0 l 476 0 l 474 51 q 260 -14 378 -14 m 375 175 q 435 185 406 175 q 486 215 465 196 l 536 449 q 447 483 506 483 q 288 304 326 483 q 279 244 279 269 q 301 191 279 207 q 375 175 324 175 z "},"â":{"ha":843,"x_min":10,"x_max":842,"o":"m 458 1003 l 617 1003 l 774 725 l 592 725 l 517 875 l 388 725 l 186 725 l 458 1003 m 260 -14 q 75 40 140 -14 q 10 204 10 93 q 21 306 10 256 q 103 499 44 417 q 244 627 161 582 q 421 672 326 672 q 510 660 471 672 q 574 626 549 647 l 581 658 l 842 658 l 703 0 l 476 0 l 474 51 q 260 -14 378 -14 m 375 175 q 435 185 406 175 q 486 215 465 196 l 536 449 q 447 483 506 483 q 288 304 326 483 q 279 244 279 269 q 301 191 279 207 q 375 175 324 175 z "},"ấ":{"ha":843,"x_min":10,"x_max":1019,"o":"m 826 1115 l 1019 1115 l 865 899 l 683 899 l 826 1115 m 426 936 l 618 936 l 769 725 l 567 725 l 504 835 l 394 725 l 183 725 l 426 936 m 260 -14 q 75 40 140 -14 q 10 204 10 93 q 21 306 10 256 q 103 499 44 417 q 244 627 161 582 q 421 672 326 672 q 510 660 471 672 q 574 626 549 647 l 581 658 l 842 658 l 703 0 l 476 0 l 474 51 q 260 -14 378 -14 m 375 175 q 435 185 406 175 q 486 215 465 196 l 536 449 q 447 483 506 483 q 288 304 326 483 q 279 244 279 269 q 301 191 279 207 q 375 175 324 175 z "},"ậ":{"ha":843,"x_min":10,"x_max":842,"o":"m 465 1003 l 624 1003 l 781 725 l 599 725 l 524 875 l 394 725 l 193 725 l 465 1003 m 260 -14 q 75 40 140 -14 q 10 204 10 93 q 21 306 10 256 q 103 499 44 417 q 244 627 161 582 q 421 672 326 672 q 510 660 471 672 q 574 626 549 647 l 581 658 l 842 658 l 703 0 l 476 0 l 474 51 q 260 -14 378 -14 m 375 175 q 435 185 406 175 q 486 215 465 196 l 536 449 q 447 483 506 483 q 288 304 326 483 q 279 244 279 269 q 301 191 279 207 q 375 175 324 175 m 226 -78 l 407 -78 l 372 -244 l 192 -244 l 226 -78 z "},"ầ":{"ha":843,"x_min":10,"x_max":842,"o":"m 126 1115 l 319 1115 l 372 899 l 189 899 l 126 1115 m 454 936 l 646 936 l 796 725 l 594 725 l 532 835 l 422 725 l 211 725 l 454 936 m 260 -14 q 75 40 140 -14 q 10 204 10 93 q 21 306 10 256 q 103 499 44 417 q 244 627 161 582 q 421 672 326 672 q 510 660 471 672 q 574 626 549 647 l 581 658 l 842 658 l 703 0 l 476 0 l 474 51 q 260 -14 378 -14 m 375 175 q 435 185 406 175 q 486 215 465 196 l 536 449 q 447 483 506 483 q 288 304 326 483 q 279 244 279 269 q 301 191 279 207 q 375 175 324 175 z "},"ẩ":{"ha":843,"x_min":10,"x_max":1029,"o":"m 739 968 q 819 981 796 969 q 847 1011 843 992 q 796 1042 853 1042 q 724 1032 763 1042 l 746 1132 q 885 1149 806 1149 q 993 1124 957 1149 q 1029 1056 1029 1100 q 1026 1029 1029 1049 q 900 913 1004 929 l 890 867 l 718 867 l 739 968 m 454 936 l 646 936 l 796 725 l 594 725 l 532 835 l 422 725 l 211 725 l 454 936 m 260 -14 q 75 40 140 -14 q 10 204 10 93 q 21 306 10 256 q 103 499 44 417 q 244 627 161 582 q 421 672 326 672 q 510 660 471 672 q 574 626 549 647 l 581 658 l 842 658 l 703 0 l 476 0 l 474 51 q 260 -14 378 -14 m 375 175 q 435 185 406 175 q 486 215 465 196 l 536 449 q 447 483 506 483 q 288 304 326 483 q 279 244 279 269 q 301 191 279 207 q 375 175 324 175 z "},"ẫ":{"ha":843,"x_min":10,"x_max":854,"o":"m 696 956 q 638 963 665 956 q 569 986 610 971 q 512 1006 536 999 q 463 1013 488 1013 q 319 960 381 1013 l 351 1106 q 412 1138 375 1125 q 488 1150 449 1150 q 544 1142 518 1150 q 608 1121 571 1135 q 669 1100 644 1107 q 721 1093 694 1093 q 797 1108 763 1093 q 854 1147 832 1122 l 824 1000 q 770 969 806 982 q 696 956 735 956 m 457 935 l 649 935 l 799 724 l 597 724 l 535 833 l 425 724 l 214 724 l 457 935 m 260 -14 q 75 40 140 -14 q 10 204 10 93 q 21 306 10 256 q 103 499 44 417 q 244 627 161 582 q 421 672 326 672 q 510 660 471 672 q 574 626 549 647 l 581 658 l 842 658 l 703 0 l 476 0 l 474 51 q 260 -14 378 -14 m 375 175 q 435 185 406 175 q 486 215 465 196 l 536 449 q 447 483 506 483 q 288 304 326 483 q 279 244 279 269 q 301 191 279 207 q 375 175 324 175 z "},"ä":{"ha":843,"x_min":10,"x_max":842,"o":"m 299 929 l 479 929 l 443 763 l 263 763 l 299 929 m 597 929 l 779 929 l 743 763 l 561 763 l 597 929 m 260 -14 q 75 40 140 -14 q 10 204 10 93 q 21 306 10 256 q 103 499 44 417 q 244 627 161 582 q 421 672 326 672 q 510 660 471 672 q 574 626 549 647 l 581 658 l 842 658 l 703 0 l 476 0 l 474 51 q 260 -14 378 -14 m 375 175 q 435 185 406 175 q 486 215 465 196 l 536 449 q 447 483 506 483 q 288 304 326 483 q 279 244 279 269 q 301 191 279 207 q 375 175 324 175 z "},"ạ":{"ha":843,"x_min":10,"x_max":842,"o":"m 260 -14 q 75 40 140 -14 q 10 204 10 93 q 21 306 10 256 q 103 499 44 417 q 244 627 161 582 q 421 672 326 672 q 510 660 471 672 q 574 626 549 647 l 581 658 l 842 658 l 703 0 l 476 0 l 474 51 q 260 -14 378 -14 m 375 175 q 435 185 406 175 q 486 215 465 196 l 536 449 q 447 483 506 483 q 288 304 326 483 q 279 244 279 269 q 301 191 279 207 q 375 175 324 175 m 210 -78 l 390 -78 l 356 -244 l 175 -244 l 210 -78 z "},"à":{"ha":843,"x_min":10,"x_max":842,"o":"m 318 1011 l 522 1011 l 583 725 l 392 725 l 318 1011 m 260 -14 q 75 40 140 -14 q 10 204 10 93 q 21 306 10 256 q 103 499 44 417 q 244 627 161 582 q 421 672 326 672 q 510 660 471 672 q 574 626 549 647 l 581 658 l 842 658 l 703 0 l 476 0 l 474 51 q 260 -14 378 -14 m 375 175 q 435 185 406 175 q 486 215 465 196 l 536 449 q 447 483 506 483 q 288 304 326 483 q 279 244 279 269 q 301 191 279 207 q 375 175 324 175 z "},"ả":{"ha":843,"x_min":10,"x_max":842,"o":"m 397 836 q 497 855 467 840 q 532 897 526 869 q 458 943 542 943 q 374 932 421 943 l 397 1040 q 561 1060 463 1060 q 686 1030 643 1060 q 729 949 729 1000 q 726 919 729 929 q 679 830 714 861 q 581 781 644 799 l 568 724 l 372 724 l 397 836 m 260 -14 q 75 40 140 -14 q 10 204 10 93 q 21 306 10 256 q 103 499 44 417 q 244 627 161 582 q 421 672 326 672 q 510 660 471 672 q 574 626 549 647 l 581 658 l 842 658 l 703 0 l 476 0 l 474 51 q 260 -14 378 -14 m 375 175 q 435 185 406 175 q 486 215 465 196 l 536 449 q 447 483 506 483 q 288 304 326 483 q 279 244 279 269 q 301 191 279 207 q 375 175 324 175 z "},"ɑ":{"ha":843,"x_min":10,"x_max":842,"o":"m 260 -14 q 75 40 140 -14 q 10 204 10 93 q 21 306 10 256 q 103 499 44 417 q 244 627 161 582 q 421 672 326 672 q 510 660 471 672 q 574 626 549 647 l 581 658 l 842 658 l 703 0 l 476 0 l 474 51 q 260 -14 378 -14 m 375 175 q 435 185 406 175 q 486 215 465 196 l 536 449 q 447 483 506 483 q 288 304 326 483 q 279 244 279 269 q 301 191 279 207 q 375 175 324 175 z "},"ā":{"ha":843,"x_min":10,"x_max":842,"o":"m 318 900 l 772 900 l 739 744 l 285 744 l 318 900 m 260 -14 q 75 40 140 -14 q 10 204 10 93 q 21 306 10 256 q 103 499 44 417 q 244 627 161 582 q 421 672 326 672 q 510 660 471 672 q 574 626 549 647 l 581 658 l 842 658 l 703 0 l 476 0 l 474 51 q 260 -14 378 -14 m 375 175 q 435 185 406 175 q 486 215 465 196 l 536 449 q 447 483 506 483 q 288 304 326 483 q 279 244 279 269 q 301 191 279 207 q 375 175 324 175 z "},"ą":{"ha":843,"x_min":10,"x_max":842,"o":"m 493 -306 q 378 -279 421 -306 q 335 -200 335 -253 q 338 -171 335 -182 q 386 -75 349 -119 q 476 0 424 -31 l 474 51 q 260 -14 378 -14 q 75 40 140 -14 q 10 204 10 93 q 21 306 10 256 q 103 499 44 417 q 244 627 161 582 q 421 672 326 672 q 510 660 471 672 q 574 626 549 647 l 581 658 l 842 658 l 703 0 l 650 0 q 544 -124 557 -60 q 542 -140 542 -135 q 554 -169 542 -158 q 590 -179 567 -179 q 629 -175 608 -179 q 663 -164 650 -171 l 638 -283 q 573 -299 613 -293 q 493 -306 533 -306 m 375 175 q 435 185 406 175 q 486 215 465 196 l 536 449 q 447 483 506 483 q 288 304 326 483 q 279 244 279 269 q 301 191 279 207 q 375 175 324 175 z "},"å":{"ha":843,"x_min":10,"x_max":842,"o":"m 519 725 q 403 763 444 725 q 361 864 361 801 q 367 907 361 876 q 445 1039 385 988 q 597 1090 506 1090 q 715 1052 674 1090 q 757 951 757 1014 q 751 907 757 938 q 673 776 733 826 q 519 725 613 725 m 542 832 q 612 860 585 832 q 639 928 639 888 q 623 967 639 953 q 574 982 607 982 q 504 953 531 982 q 478 885 478 924 q 542 832 478 832 m 260 -14 q 75 40 140 -14 q 10 204 10 93 q 21 306 10 256 q 103 499 44 417 q 244 627 161 582 q 421 672 326 672 q 510 660 471 672 q 574 626 549 647 l 581 658 l 842 658 l 703 0 l 476 0 l 474 51 q 260 -14 378 -14 m 375 175 q 435 185 406 175 q 486 215 465 196 l 536 449 q 447 483 506 483 q 288 304 326 483 q 279 244 279 269 q 301 191 279 207 q 375 175 324 175 z "},"ǻ":{"ha":843,"x_min":10,"x_max":878,"o":"m 675 1344 l 878 1344 l 683 1117 l 492 1117 l 675 1344 m 519 725 q 403 763 444 725 q 361 864 361 801 q 367 907 361 876 q 445 1039 385 988 q 597 1090 506 1090 q 715 1052 674 1090 q 757 951 757 1014 q 751 907 757 938 q 673 776 733 826 q 519 725 613 725 m 542 832 q 612 860 585 832 q 639 928 639 888 q 623 967 639 953 q 574 982 607 982 q 504 953 531 982 q 478 885 478 924 q 542 832 478 832 m 260 -14 q 75 40 140 -14 q 10 204 10 93 q 21 306 10 256 q 103 499 44 417 q 244 627 161 582 q 421 672 326 672 q 510 660 471 672 q 574 626 549 647 l 581 658 l 842 658 l 703 0 l 476 0 l 474 51 q 260 -14 378 -14 m 375 175 q 435 185 406 175 q 486 215 465 196 l 536 449 q 447 483 506 483 q 288 304 326 483 q 279 244 279 269 q 301 191 279 207 q 375 175 324 175 z "},"ã":{"ha":843,"x_min":10,"x_max":842,"o":"m 632 736 q 570 744 600 736 q 501 767 540 751 q 441 788 465 781 q 393 794 417 794 q 246 740 311 794 l 281 904 q 344 937 306 924 q 422 950 383 950 q 479 943 453 950 q 546 921 506 936 q 606 899 579 907 q 661 892 632 892 q 740 907 704 892 q 797 947 775 922 l 763 782 q 708 749 744 763 q 632 736 671 736 m 260 -14 q 75 40 140 -14 q 10 204 10 93 q 21 306 10 256 q 103 499 44 417 q 244 627 161 582 q 421 672 326 672 q 510 660 471 672 q 574 626 549 647 l 581 658 l 842 658 l 703 0 l 476 0 l 474 51 q 260 -14 378 -14 m 375 175 q 435 185 406 175 q 486 215 465 196 l 536 449 q 447 483 506 483 q 288 304 326 483 q 279 244 279 269 q 301 191 279 207 q 375 175 324 175 z "},"æ":{"ha":1225,"x_min":-8,"x_max":1199,"o":"m 206 -14 q 49 25 107 -14 q -8 143 -8 64 q -1 197 -8 165 q 103 360 21 303 q 324 417 185 417 l 494 417 l 497 429 q 500 447 500 443 q 469 490 500 476 q 369 504 439 504 q 136 469 256 504 l 169 626 q 303 660 225 647 q 457 672 381 672 q 671 617 597 672 q 780 658 717 643 q 911 672 843 672 q 1123 608 1047 672 q 1199 438 1199 544 q 1190 367 1199 404 l 1165 251 l 708 251 q 757 176 715 197 q 901 154 799 154 q 1016 164 957 154 q 1115 189 1075 174 l 1082 32 q 801 -14 976 -14 q 656 12 719 -14 q 557 83 593 38 q 413 11 494 36 q 206 -14 331 -14 m 971 393 l 975 417 q 978 444 978 426 q 885 506 978 506 q 788 481 822 506 q 740 404 754 456 l 739 393 l 971 393 m 308 139 q 446 188 388 139 l 464 274 l 338 274 q 269 257 293 274 q 238 206 244 240 q 236 189 236 200 q 308 139 236 139 z "},"ǽ":{"ha":1225,"x_min":-8,"x_max":1199,"o":"m 761 1011 l 964 1011 l 769 725 l 578 725 l 761 1011 m 206 -14 q 49 25 107 -14 q -8 143 -8 64 q -1 197 -8 165 q 103 360 21 303 q 324 417 185 417 l 494 417 l 497 429 q 500 447 500 443 q 469 490 500 476 q 369 504 439 504 q 136 469 256 504 l 169 626 q 303 660 225 647 q 457 672 381 672 q 671 617 597 672 q 780 658 717 643 q 911 672 843 672 q 1123 608 1047 672 q 1199 438 1199 544 q 1190 367 1199 404 l 1165 251 l 708 251 q 757 176 715 197 q 901 154 799 154 q 1016 164 957 154 q 1115 189 1075 174 l 1082 32 q 801 -14 976 -14 q 656 12 719 -14 q 557 83 593 38 q 413 11 494 36 q 206 -14 331 -14 m 971 393 l 975 417 q 978 444 978 426 q 885 506 978 506 q 788 481 822 506 q 740 404 754 456 l 739 393 l 971 393 m 308 139 q 446 188 388 139 l 464 274 l 338 274 q 269 257 293 274 q 238 206 244 240 q 236 189 236 200 q 308 139 236 139 z "},"b":{"ha":843,"x_min":-15,"x_max":814,"o":"m 419 -14 q 313 3 357 -14 q 233 51 268 19 l 211 0 l -15 0 l 183 936 l 444 936 l 381 635 q 464 663 417 653 q 557 672 511 672 q 746 616 678 672 q 814 442 814 560 q 801 335 814 393 q 419 -14 728 -14 m 385 175 q 481 212 446 175 q 533 332 515 249 q 542 399 542 372 q 519 463 542 443 q 450 483 496 483 q 340 449 388 483 l 290 215 q 385 175 324 175 z "},"c":{"ha":703,"x_min":17,"x_max":721,"o":"m 340 -14 q 106 53 194 -14 q 17 246 17 119 q 26 329 17 286 q 488 672 100 672 q 618 662 563 672 q 721 626 674 651 l 682 443 q 504 482 608 482 q 361 447 413 482 q 293 329 310 413 q 288 279 288 306 q 324 201 288 225 q 439 176 361 176 q 638 222 538 176 l 596 31 q 340 -14 488 -14 z "},"ć":{"ha":703,"x_min":17,"x_max":763,"o":"m 560 1011 l 763 1011 l 568 725 l 376 725 l 560 1011 m 340 -14 q 106 53 194 -14 q 17 246 17 119 q 26 329 17 286 q 488 672 100 672 q 618 662 563 672 q 721 626 674 651 l 682 443 q 504 482 608 482 q 361 447 413 482 q 293 329 310 413 q 288 279 288 306 q 324 201 288 225 q 439 176 361 176 q 638 222 538 176 l 596 31 q 340 -14 488 -14 z "},"č":{"ha":703,"x_min":17,"x_max":804,"o":"m 217 1003 l 403 1003 l 471 851 l 608 1003 l 804 1003 l 531 725 l 372 725 l 217 1003 m 340 -14 q 106 53 194 -14 q 17 246 17 119 q 26 329 17 286 q 488 672 100 672 q 618 662 563 672 q 721 626 674 651 l 682 443 q 504 482 608 482 q 361 447 413 482 q 293 329 310 413 q 288 279 288 306 q 324 201 288 225 q 439 176 361 176 q 638 222 538 176 l 596 31 q 340 -14 488 -14 z "},"ç":{"ha":703,"x_min":17,"x_max":721,"o":"m 244 -333 q 183 -330 219 -333 q 133 -322 147 -326 l 156 -219 q 235 -231 193 -231 q 320 -218 294 -231 q 346 -172 346 -206 q 329 -147 346 -153 q 279 -140 313 -140 l 192 -140 l 257 -7 q 81 74 146 10 q 17 244 17 138 q 26 329 17 286 q 488 672 100 672 q 618 662 563 672 q 721 626 674 651 l 682 443 q 504 482 608 482 q 361 447 413 482 q 293 329 310 413 q 288 279 288 306 q 324 201 288 225 q 439 176 361 176 q 638 222 538 176 l 596 31 q 396 -12 510 -6 l 371 -57 q 470 -83 438 -57 q 503 -154 503 -108 q 499 -187 503 -171 q 419 -295 483 -257 q 244 -333 356 -333 z "},"ĉ":{"ha":703,"x_min":17,"x_max":740,"o":"m 425 1003 l 583 1003 l 740 725 l 558 725 l 483 875 l 354 725 l 153 725 l 425 1003 m 340 -14 q 106 53 194 -14 q 17 246 17 119 q 26 329 17 286 q 488 672 100 672 q 618 662 563 672 q 721 626 674 651 l 682 443 q 504 482 608 482 q 361 447 413 482 q 293 329 310 413 q 288 279 288 306 q 324 201 288 225 q 439 176 361 176 q 638 222 538 176 l 596 31 q 340 -14 488 -14 z "},"ċ":{"ha":703,"x_min":17,"x_max":721,"o":"m 417 929 l 597 929 l 561 763 l 381 763 l 417 929 m 340 -14 q 106 53 194 -14 q 17 246 17 119 q 26 329 17 286 q 488 672 100 672 q 618 662 563 672 q 721 626 674 651 l 682 443 q 504 482 608 482 q 361 447 413 482 q 293 329 310 413 q 288 279 288 306 q 324 201 288 225 q 439 176 361 176 q 638 222 538 176 l 596 31 q 340 -14 488 -14 z "},"d":{"ha":843,"x_min":14,"x_max":901,"o":"m 260 -14 q 81 45 149 -14 q 14 221 14 104 q 25 324 14 274 q 162 586 63 500 q 414 672 261 672 q 503 663 460 672 q 576 635 546 653 l 640 936 l 901 936 l 703 0 l 476 0 l 474 51 q 260 -14 378 -14 m 375 175 q 486 215 435 175 l 536 449 q 440 483 506 483 q 346 444 382 483 q 292 322 310 406 q 283 256 283 283 q 306 194 283 213 q 375 175 328 175 z "},"ð":{"ha":793,"x_min":7,"x_max":899,"o":"m 325 -14 q 88 44 169 -14 q 7 210 7 103 q 15 281 7 243 q 138 495 47 426 q 394 564 228 564 q 491 551 442 564 q 569 515 540 538 l 576 549 q 589 642 589 614 q 586 668 589 651 l 422 604 l 439 683 l 544 725 q 436 744 508 744 q 225 701 333 744 l 261 869 q 515 908 372 908 q 758 810 678 908 l 899 865 l 882 785 l 794 750 q 824 607 824 686 q 813 508 824 561 l 779 349 q 633 75 740 164 q 325 -14 525 -14 m 360 157 q 468 190 428 157 q 524 296 508 224 l 538 363 q 410 404 478 404 q 299 373 338 404 q 249 281 261 342 q 243 238 243 250 q 270 177 243 197 q 360 157 297 157 z "},"ď":{"ha":1113,"x_min":14,"x_max":1293,"o":"m 1078 992 l 1293 992 l 1083 683 l 881 683 l 1078 992 m 260 -14 q 81 45 149 -14 q 14 221 14 104 q 25 324 14 274 q 162 586 63 500 q 414 672 261 672 q 503 663 460 672 q 576 635 546 653 l 640 936 l 901 936 l 703 0 l 476 0 l 474 51 q 260 -14 378 -14 m 375 175 q 486 215 435 175 l 536 449 q 440 483 506 483 q 346 444 382 483 q 292 322 310 406 q 283 256 283 283 q 306 194 283 213 q 375 175 328 175 z "},"đ":{"ha":843,"x_min":14,"x_max":944,"o":"m 911 717 l 854 717 l 703 0 l 476 0 l 474 51 q 260 -14 378 -14 q 81 45 149 -14 q 14 221 14 104 q 25 324 14 274 q 162 586 63 500 q 414 672 261 672 q 503 663 460 672 q 576 635 546 653 l 594 717 l 417 717 l 450 874 l 626 874 l 640 936 l 901 936 l 888 874 l 944 874 l 911 717 m 536 449 q 440 483 506 483 q 346 444 382 483 q 292 322 310 406 q 283 256 283 283 q 306 194 283 213 q 375 175 328 175 q 486 215 435 175 l 536 449 z "},"ḍ":{"ha":843,"x_min":14,"x_max":901,"o":"m 260 -14 q 81 45 149 -14 q 14 221 14 104 q 25 324 14 274 q 162 586 63 500 q 414 672 261 672 q 503 663 460 672 q 576 635 546 653 l 640 936 l 901 936 l 703 0 l 476 0 l 474 51 q 260 -14 378 -14 m 375 175 q 486 215 435 175 l 536 449 q 440 483 506 483 q 346 444 382 483 q 292 322 310 406 q 283 256 283 283 q 306 194 283 213 q 375 175 328 175 m 279 -107 l 460 -107 l 425 -274 l 244 -274 l 279 -107 z "},"ḏ":{"ha":843,"x_min":14,"x_max":901,"o":"m 260 -14 q 81 45 149 -14 q 14 221 14 104 q 25 324 14 274 q 162 586 63 500 q 414 672 261 672 q 503 663 460 672 q 576 635 546 653 l 640 936 l 901 936 l 703 0 l 476 0 l 474 51 q 260 -14 378 -14 m 375 175 q 486 215 435 175 l 536 449 q 440 483 506 483 q 346 444 382 483 q 292 322 310 406 q 283 256 283 283 q 306 194 283 213 q 375 175 328 175 m 106 -87 l 560 -87 l 526 -243 l 72 -243 l 106 -87 z "},"e":{"ha":767,"x_min":17,"x_max":739,"o":"m 343 -14 q 104 51 192 -14 q 17 242 17 117 q 26 328 17 285 q 167 582 61 492 q 453 672 274 672 q 663 607 586 672 q 739 433 739 542 q 732 367 739 396 l 707 251 l 250 251 q 292 176 251 199 q 443 154 333 154 q 558 164 499 154 q 657 189 617 174 l 624 32 q 343 -14 518 -14 m 513 393 l 517 417 q 519 440 519 433 q 426 506 519 506 q 327 478 361 506 q 281 393 293 450 l 513 393 z "},"é":{"ha":767,"x_min":17,"x_max":764,"o":"m 561 1011 l 764 1011 l 569 725 l 378 725 l 561 1011 m 343 -14 q 104 51 192 -14 q 17 242 17 117 q 26 328 17 285 q 167 582 61 492 q 453 672 274 672 q 663 607 586 672 q 739 433 739 542 q 732 367 739 396 l 707 251 l 250 251 q 292 176 251 199 q 443 154 333 154 q 558 164 499 154 q 657 189 617 174 l 624 32 q 343 -14 518 -14 m 513 393 l 517 417 q 519 440 519 433 q 426 506 519 506 q 327 478 361 506 q 281 393 293 450 l 513 393 z "},"ĕ":{"ha":767,"x_min":17,"x_max":793,"o":"m 474 726 q 317 775 374 726 q 260 914 260 824 q 268 986 260 949 l 429 986 q 424 942 424 953 q 497 869 424 869 q 617 986 593 869 l 793 986 q 681 794 767 863 q 474 726 594 726 m 343 -14 q 104 51 192 -14 q 17 242 17 117 q 26 328 17 285 q 167 582 61 492 q 453 672 274 672 q 663 607 586 672 q 739 433 739 542 q 732 367 739 396 l 707 251 l 250 251 q 292 176 251 199 q 443 154 333 154 q 558 164 499 154 q 657 189 617 174 l 624 32 q 343 -14 518 -14 m 513 393 l 517 417 q 519 440 519 433 q 426 506 519 506 q 327 478 361 506 q 281 393 293 450 l 513 393 z "},"ě":{"ha":767,"x_min":17,"x_max":832,"o":"m 244 1003 l 431 1003 l 499 851 l 636 1003 l 832 1003 l 558 725 l 400 725 l 244 1003 m 343 -14 q 104 51 192 -14 q 17 242 17 117 q 26 328 17 285 q 167 582 61 492 q 453 672 274 672 q 663 607 586 672 q 739 433 739 542 q 732 367 739 396 l 707 251 l 250 251 q 292 176 251 199 q 443 154 333 154 q 558 164 499 154 q 657 189 617 174 l 624 32 q 343 -14 518 -14 m 513 393 l 517 417 q 519 440 519 433 q 426 506 519 506 q 327 478 361 506 q 281 393 293 450 l 513 393 z "},"ê":{"ha":767,"x_min":17,"x_max":764,"o":"m 449 1003 l 607 1003 l 764 725 l 582 725 l 507 875 l 378 725 l 176 725 l 449 1003 m 343 -14 q 104 51 192 -14 q 17 242 17 117 q 26 328 17 285 q 167 582 61 492 q 453 672 274 672 q 663 607 586 672 q 739 433 739 542 q 732 367 739 396 l 707 251 l 250 251 q 292 176 251 199 q 443 154 333 154 q 558 164 499 154 q 657 189 617 174 l 624 32 q 343 -14 518 -14 m 513 393 l 517 417 q 519 440 519 433 q 426 506 519 506 q 327 478 361 506 q 281 393 293 450 l 513 393 z "},"ế":{"ha":767,"x_min":17,"x_max":1004,"o":"m 811 1115 l 1004 1115 l 850 899 l 668 899 l 811 1115 m 411 936 l 603 936 l 754 725 l 551 725 l 489 835 l 379 725 l 168 725 l 411 936 m 343 -14 q 104 51 192 -14 q 17 242 17 117 q 26 328 17 285 q 167 582 61 492 q 453 672 274 672 q 663 607 586 672 q 739 433 739 542 q 732 367 739 396 l 707 251 l 250 251 q 292 176 251 199 q 443 154 333 154 q 558 164 499 154 q 657 189 617 174 l 624 32 q 343 -14 518 -14 m 513 393 l 517 417 q 519 440 519 433 q 426 506 519 506 q 327 478 361 506 q 281 393 293 450 l 513 393 z "},"ệ":{"ha":767,"x_min":17,"x_max":765,"o":"m 450 1003 l 608 1003 l 765 725 l 583 725 l 508 875 l 379 725 l 178 725 l 450 1003 m 343 -14 q 104 51 192 -14 q 17 242 17 117 q 26 328 17 285 q 167 582 61 492 q 453 672 274 672 q 663 607 586 672 q 739 433 739 542 q 732 367 739 396 l 707 251 l 250 251 q 292 176 251 199 q 443 154 333 154 q 558 164 499 154 q 657 189 617 174 l 624 32 q 343 -14 518 -14 m 513 393 l 517 417 q 519 440 519 433 q 426 506 519 506 q 327 478 361 506 q 281 393 293 450 l 513 393 m 211 -78 l 392 -78 l 357 -244 l 176 -244 l 211 -78 z "},"ề":{"ha":767,"x_min":17,"x_max":747,"o":"m 78 1115 l 271 1115 l 324 899 l 140 899 l 78 1115 m 406 936 l 597 936 l 747 725 l 546 725 l 483 835 l 374 725 l 163 725 l 406 936 m 343 -14 q 104 51 192 -14 q 17 242 17 117 q 26 328 17 285 q 167 582 61 492 q 453 672 274 672 q 663 607 586 672 q 739 433 739 542 q 732 367 739 396 l 707 251 l 250 251 q 292 176 251 199 q 443 154 333 154 q 558 164 499 154 q 657 189 617 174 l 624 32 q 343 -14 518 -14 m 513 393 l 517 417 q 519 440 519 433 q 426 506 519 506 q 327 478 361 506 q 281 393 293 450 l 513 393 z "},"ể":{"ha":767,"x_min":17,"x_max":985,"o":"m 694 968 q 775 981 751 969 q 803 1011 799 992 q 751 1042 808 1042 q 679 1032 718 1042 l 701 1132 q 840 1149 761 1149 q 949 1124 913 1149 q 985 1056 985 1100 q 982 1029 985 1049 q 856 913 960 929 l 846 867 l 674 867 l 694 968 m 410 936 l 601 936 l 751 725 l 550 725 l 488 835 l 378 725 l 167 725 l 410 936 m 343 -14 q 104 51 192 -14 q 17 242 17 117 q 26 328 17 285 q 167 582 61 492 q 453 672 274 672 q 663 607 586 672 q 739 433 739 542 q 732 367 739 396 l 707 251 l 250 251 q 292 176 251 199 q 443 154 333 154 q 558 164 499 154 q 657 189 617 174 l 624 32 q 343 -14 518 -14 m 513 393 l 517 417 q 519 440 519 433 q 426 506 519 506 q 327 478 361 506 q 281 393 293 450 l 513 393 z "},"ễ":{"ha":767,"x_min":17,"x_max":807,"o":"m 649 957 q 590 965 618 957 q 522 988 563 972 q 465 1007 489 1000 q 415 1014 440 1014 q 272 961 333 1014 l 304 1107 q 365 1139 328 1126 q 440 1151 401 1151 q 497 1144 471 1151 q 561 1122 524 1136 q 622 1101 597 1108 q 674 1094 647 1094 q 750 1109 715 1094 q 807 1149 785 1124 l 776 1001 q 723 970 758 983 q 649 957 688 957 m 410 936 l 601 936 l 751 725 l 550 725 l 488 835 l 378 725 l 167 725 l 410 936 m 343 -14 q 104 51 192 -14 q 17 242 17 117 q 26 328 17 285 q 167 582 61 492 q 453 672 274 672 q 663 607 586 672 q 739 433 739 542 q 732 367 739 396 l 707 251 l 250 251 q 292 176 251 199 q 443 154 333 154 q 558 164 499 154 q 657 189 617 174 l 624 32 q 343 -14 518 -14 m 513 393 l 517 417 q 519 440 519 433 q 426 506 519 506 q 327 478 361 506 q 281 393 293 450 l 513 393 z "},"ë":{"ha":767,"x_min":17,"x_max":754,"o":"m 274 929 l 454 929 l 418 763 l 238 763 l 274 929 m 572 929 l 754 929 l 718 763 l 536 763 l 572 929 m 343 -14 q 104 51 192 -14 q 17 242 17 117 q 26 328 17 285 q 167 582 61 492 q 453 672 274 672 q 663 607 586 672 q 739 433 739 542 q 732 367 739 396 l 707 251 l 250 251 q 292 176 251 199 q 443 154 333 154 q 558 164 499 154 q 657 189 617 174 l 624 32 q 343 -14 518 -14 m 513 393 l 517 417 q 519 440 519 433 q 426 506 519 506 q 327 478 361 506 q 281 393 293 450 l 513 393 z "},"ė":{"ha":767,"x_min":17,"x_max":739,"o":"m 425 929 l 606 929 l 569 763 l 389 763 l 425 929 m 343 -14 q 104 51 192 -14 q 17 242 17 117 q 26 328 17 285 q 167 582 61 492 q 453 672 274 672 q 663 607 586 672 q 739 433 739 542 q 732 367 739 396 l 707 251 l 250 251 q 292 176 251 199 q 443 154 333 154 q 558 164 499 154 q 657 189 617 174 l 624 32 q 343 -14 518 -14 m 513 393 l 517 417 q 519 440 519 433 q 426 506 519 506 q 327 478 361 506 q 281 393 293 450 l 513 393 z "},"ẹ":{"ha":767,"x_min":17,"x_max":739,"o":"m 343 -14 q 104 51 192 -14 q 17 242 17 117 q 26 328 17 285 q 167 582 61 492 q 453 672 274 672 q 663 607 586 672 q 739 433 739 542 q 732 367 739 396 l 707 251 l 250 251 q 292 176 251 199 q 443 154 333 154 q 558 164 499 154 q 657 189 617 174 l 624 32 q 343 -14 518 -14 m 513 393 l 517 417 q 519 440 519 433 q 426 506 519 506 q 327 478 361 506 q 281 393 293 450 l 513 393 m 214 -78 l 394 -78 l 360 -244 l 179 -244 l 214 -78 z "},"è":{"ha":767,"x_min":17,"x_max":739,"o":"m 301 1011 l 506 1011 l 567 725 l 375 725 l 301 1011 m 343 -14 q 104 51 192 -14 q 17 242 17 117 q 26 328 17 285 q 167 582 61 492 q 453 672 274 672 q 663 607 586 672 q 739 433 739 542 q 732 367 739 396 l 707 251 l 250 251 q 292 176 251 199 q 443 154 333 154 q 558 164 499 154 q 657 189 617 174 l 624 32 q 343 -14 518 -14 m 513 393 l 517 417 q 519 440 519 433 q 426 506 519 506 q 327 478 361 506 q 281 393 293 450 l 513 393 z "},"ẻ":{"ha":767,"x_min":17,"x_max":739,"o":"m 394 838 q 494 856 464 842 q 529 899 524 871 q 456 944 539 944 q 371 933 418 944 l 394 1042 q 558 1061 460 1061 q 683 1031 640 1061 q 726 950 726 1001 q 724 921 726 931 q 676 831 711 863 q 578 782 642 800 l 565 725 l 369 725 l 394 838 m 343 -14 q 104 51 192 -14 q 17 242 17 117 q 26 328 17 285 q 167 582 61 492 q 453 672 274 672 q 663 607 586 672 q 739 433 739 542 q 732 367 739 396 l 707 251 l 250 251 q 292 176 251 199 q 443 154 333 154 q 558 164 499 154 q 657 189 617 174 l 624 32 q 343 -14 518 -14 m 513 393 l 517 417 q 519 440 519 433 q 426 506 519 506 q 327 478 361 506 q 281 393 293 450 l 513 393 z "},"ē":{"ha":767,"x_min":17,"x_max":742,"o":"m 288 931 l 742 931 l 708 775 l 254 775 l 288 931 m 343 -14 q 104 51 192 -14 q 17 242 17 117 q 26 328 17 285 q 167 582 61 492 q 453 672 274 672 q 663 607 586 672 q 739 433 739 542 q 732 367 739 396 l 707 251 l 250 251 q 292 176 251 199 q 443 154 333 154 q 558 164 499 154 q 657 189 617 174 l 624 32 q 343 -14 518 -14 m 513 393 l 517 417 q 519 440 519 433 q 426 506 519 506 q 327 478 361 506 q 281 393 293 450 l 513 393 z "},"ę":{"ha":767,"x_min":17,"x_max":739,"o":"m 356 -306 q 240 -279 283 -306 q 197 -200 197 -253 q 200 -171 197 -182 q 241 -83 210 -124 q 317 -12 272 -43 q 97 58 176 -7 q 17 242 17 122 q 26 328 17 285 q 167 582 61 492 q 453 672 274 672 q 663 607 586 672 q 739 433 739 542 q 732 367 739 396 l 707 251 l 250 251 q 292 176 251 199 q 443 154 333 154 q 558 164 499 154 q 657 189 617 174 l 624 32 q 513 0 574 10 q 407 -124 419 -60 q 404 -140 404 -135 q 417 -169 404 -158 q 453 -179 429 -179 q 492 -175 471 -179 q 525 -164 513 -171 l 500 -283 q 435 -299 475 -293 q 356 -306 396 -306 m 513 393 l 517 417 q 519 440 519 433 q 426 506 519 506 q 327 478 361 506 q 281 393 293 450 l 513 393 z "},"ẽ":{"ha":767,"x_min":17,"x_max":786,"o":"m 621 736 q 559 744 589 736 q 490 767 529 751 q 430 788 454 781 q 382 794 406 794 q 235 740 300 794 l 269 904 q 333 937 294 924 q 411 950 372 950 q 468 943 442 950 q 535 921 494 936 q 594 899 568 907 q 650 892 621 892 q 728 907 693 892 q 786 947 764 922 l 751 782 q 697 749 733 763 q 621 736 660 736 m 343 -14 q 104 51 192 -14 q 17 242 17 117 q 26 328 17 285 q 167 582 61 492 q 453 672 274 672 q 663 607 586 672 q 739 433 739 542 q 732 367 739 396 l 707 251 l 250 251 q 292 176 251 199 q 443 154 333 154 q 558 164 499 154 q 657 189 617 174 l 624 32 q 343 -14 518 -14 m 513 393 l 517 417 q 519 440 519 433 q 426 506 519 506 q 327 478 361 506 q 281 393 293 450 l 513 393 z "},"f":{"ha":503,"x_min":14,"x_max":642,"o":"m 113 465 l 28 465 l 68 658 l 153 658 l 163 701 q 263 890 188 821 q 472 958 339 958 q 642 926 571 958 l 606 757 q 526 772 567 772 q 454 754 478 772 q 422 696 431 736 l 414 658 l 569 658 l 518 465 l 374 465 l 275 0 l 14 0 l 113 465 z "},"g":{"ha":843,"x_min":14,"x_max":842,"o":"m 210 -244 q 112 -240 174 -244 q 24 -231 50 -236 l 64 -44 q 133 -57 90 -51 q 208 -62 176 -62 q 381 -42 324 -62 q 446 22 438 -22 l 449 38 q 363 5 411 18 q 269 -8 314 -8 q 84 52 154 -8 q 14 228 14 113 q 24 315 14 271 q 158 582 60 492 q 417 672 256 672 q 518 654 472 672 q 592 607 564 636 l 615 658 l 842 658 l 717 67 q 640 -104 694 -36 q 480 -208 585 -172 q 210 -244 375 -244 m 376 181 q 486 215 442 181 l 535 443 q 446 483 501 483 q 344 445 378 483 q 290 317 310 407 q 282 250 282 278 q 303 195 282 210 q 376 181 325 181 z "},"ğ":{"ha":843,"x_min":14,"x_max":842,"o":"m 471 726 q 314 775 371 726 q 257 914 257 824 q 265 986 257 949 l 426 986 q 421 942 421 953 q 494 869 421 869 q 614 986 590 869 l 790 986 q 678 794 764 863 q 471 726 592 726 m 210 -244 q 112 -240 174 -244 q 24 -231 50 -236 l 64 -44 q 133 -57 90 -51 q 208 -62 176 -62 q 381 -42 324 -62 q 446 22 438 -22 l 449 38 q 363 5 411 18 q 269 -8 314 -8 q 84 52 154 -8 q 14 228 14 113 q 24 315 14 271 q 158 582 60 492 q 417 672 256 672 q 518 654 472 672 q 592 607 564 636 l 615 658 l 842 658 l 717 67 q 640 -104 694 -36 q 480 -208 585 -172 q 210 -244 375 -244 m 376 181 q 486 215 442 181 l 535 443 q 446 483 501 483 q 344 445 378 483 q 290 317 310 407 q 282 250 282 278 q 303 195 282 210 q 376 181 325 181 z "},"ǧ":{"ha":843,"x_min":14,"x_max":842,"o":"m 247 1003 l 433 1003 l 501 851 l 639 1003 l 835 1003 l 561 725 l 403 725 l 247 1003 m 210 -244 q 112 -240 174 -244 q 24 -231 50 -236 l 64 -44 q 133 -57 90 -51 q 208 -62 176 -62 q 381 -42 324 -62 q 446 22 438 -22 l 449 38 q 363 5 411 18 q 269 -8 314 -8 q 84 52 154 -8 q 14 228 14 113 q 24 315 14 271 q 158 582 60 492 q 417 672 256 672 q 518 654 472 672 q 592 607 564 636 l 615 658 l 842 658 l 717 67 q 640 -104 694 -36 q 480 -208 585 -172 q 210 -244 375 -244 m 376 181 q 486 215 442 181 l 535 443 q 446 483 501 483 q 344 445 378 483 q 290 317 310 407 q 282 250 282 278 q 303 195 282 210 q 376 181 325 181 z "},"ĝ":{"ha":843,"x_min":14,"x_max":842,"o":"m 454 1003 l 613 1003 l 769 725 l 588 725 l 513 875 l 383 725 l 182 725 l 454 1003 m 210 -244 q 112 -240 174 -244 q 24 -231 50 -236 l 64 -44 q 133 -57 90 -51 q 208 -62 176 -62 q 381 -42 324 -62 q 446 22 438 -22 l 449 38 q 363 5 411 18 q 269 -8 314 -8 q 84 52 154 -8 q 14 228 14 113 q 24 315 14 271 q 158 582 60 492 q 417 672 256 672 q 518 654 472 672 q 592 607 564 636 l 615 658 l 842 658 l 717 67 q 640 -104 694 -36 q 480 -208 585 -172 q 210 -244 375 -244 m 376 181 q 486 215 442 181 l 535 443 q 446 483 501 483 q 344 445 378 483 q 290 317 310 407 q 282 250 282 278 q 303 195 282 210 q 376 181 325 181 z "},"ģ":{"ha":843,"x_min":14,"x_max":842,"o":"m 503 1038 l 682 1038 l 569 725 l 357 725 l 503 1038 m 210 -244 q 112 -240 174 -244 q 24 -231 50 -236 l 64 -44 q 133 -57 90 -51 q 208 -62 176 -62 q 381 -42 324 -62 q 446 22 438 -22 l 449 38 q 363 5 411 18 q 269 -8 314 -8 q 84 52 154 -8 q 14 228 14 113 q 24 315 14 271 q 158 582 60 492 q 417 672 256 672 q 518 654 472 672 q 592 607 564 636 l 615 658 l 842 658 l 717 67 q 640 -104 694 -36 q 480 -208 585 -172 q 210 -244 375 -244 m 376 181 q 486 215 442 181 l 535 443 q 446 483 501 483 q 344 445 378 483 q 290 317 310 407 q 282 250 282 278 q 303 195 282 210 q 376 181 325 181 z "},"ġ":{"ha":843,"x_min":14,"x_max":842,"o":"m 408 908 l 589 908 l 553 742 l 372 742 l 408 908 m 210 -244 q 112 -240 174 -244 q 24 -231 50 -236 l 64 -44 q 133 -57 90 -51 q 208 -62 176 -62 q 381 -42 324 -62 q 446 22 438 -22 l 449 38 q 363 5 411 18 q 269 -8 314 -8 q 84 52 154 -8 q 14 228 14 113 q 24 315 14 271 q 158 582 60 492 q 417 672 256 672 q 518 654 472 672 q 592 607 564 636 l 615 658 l 842 658 l 717 67 q 640 -104 694 -36 q 480 -208 585 -172 q 210 -244 375 -244 m 376 181 q 486 215 442 181 l 535 443 q 446 483 501 483 q 344 445 378 483 q 290 317 310 407 q 282 250 282 278 q 303 195 282 210 q 376 181 325 181 z "},"ḡ":{"ha":843,"x_min":14,"x_max":842,"o":"m 278 921 l 732 921 l 699 765 l 244 765 l 278 921 m 210 -244 q 112 -240 174 -244 q 24 -231 50 -236 l 64 -44 q 133 -57 90 -51 q 208 -62 176 -62 q 381 -42 324 -62 q 446 22 438 -22 l 449 38 q 363 5 411 18 q 269 -8 314 -8 q 84 52 154 -8 q 14 228 14 113 q 24 315 14 271 q 158 582 60 492 q 417 672 256 672 q 518 654 472 672 q 592 607 564 636 l 615 658 l 842 658 l 717 67 q 640 -104 694 -36 q 480 -208 585 -172 q 210 -244 375 -244 m 376 181 q 486 215 442 181 l 535 443 q 446 483 501 483 q 344 445 378 483 q 290 317 310 407 q 282 250 282 278 q 303 195 282 210 q 376 181 325 181 z "},"h":{"ha":839,"x_min":-15,"x_max":803,"o":"m 183 936 l 444 936 l 376 618 q 474 657 418 642 q 586 672 529 672 q 803 497 803 672 q 793 414 803 457 l 706 0 l 443 0 l 526 394 q 531 428 531 414 q 514 467 531 454 q 461 479 497 479 q 395 466 428 479 q 338 432 363 453 l 246 0 l -15 0 l 183 936 z "},"ħ":{"ha":839,"x_min":-15,"x_max":803,"o":"m 136 718 l 81 718 l 114 871 l 169 871 l 183 936 l 444 936 l 431 871 l 585 871 l 551 718 l 397 718 l 376 618 q 474 657 418 642 q 586 672 529 672 q 803 497 803 672 q 793 414 803 457 l 706 0 l 443 0 l 526 394 q 531 428 531 414 q 514 467 531 454 q 461 479 497 479 q 395 466 428 479 q 338 432 363 453 l 246 0 l -15 0 l 136 718 z "},"ḫ":{"ha":839,"x_min":-15,"x_max":803,"o":"m 183 936 l 444 936 l 376 618 q 474 657 418 642 q 586 672 529 672 q 803 497 803 672 q 793 414 803 457 l 706 0 l 443 0 l 526 394 q 531 428 531 414 q 514 467 531 454 q 461 479 497 479 q 395 466 428 479 q 338 432 363 453 l 246 0 l -15 0 l 183 936 m 274 -329 q 115 -281 172 -329 q 58 -142 58 -232 q 67 -69 58 -107 l 229 -69 q 224 -115 224 -92 q 297 -186 224 -186 q 375 -156 347 -186 q 415 -69 403 -125 l 592 -69 q 479 -261 565 -193 q 274 -329 393 -329 z "},"ĥ":{"ha":839,"x_min":-15,"x_max":803,"o":"m 471 1261 l 629 1261 l 786 983 l 604 983 l 529 1133 l 400 983 l 199 983 l 471 1261 m 183 936 l 444 936 l 376 618 q 474 657 418 642 q 586 672 529 672 q 803 497 803 672 q 793 414 803 457 l 706 0 l 443 0 l 526 394 q 531 428 531 414 q 514 467 531 454 q 461 479 497 479 q 395 466 428 479 q 338 432 363 453 l 246 0 l -15 0 l 183 936 z "},"ḥ":{"ha":839,"x_min":-15,"x_max":803,"o":"m 183 936 l 444 936 l 376 618 q 474 657 418 642 q 586 672 529 672 q 803 497 803 672 q 793 414 803 457 l 706 0 l 443 0 l 526 394 q 531 428 531 414 q 514 467 531 454 q 461 479 497 479 q 395 466 428 479 q 338 432 363 453 l 246 0 l -15 0 l 183 936 m 235 -107 l 415 -107 l 381 -274 l 200 -274 l 235 -107 z "},"i":{"ha":482,"x_min":81,"x_max":540,"o":"m 258 935 l 540 935 l 500 746 l 218 746 l 258 935 m 179 468 l 83 468 l 146 658 l 481 658 l 342 0 l 81 0 l 179 468 z "},"ı":{"ha":482,"x_min":81,"x_max":481,"o":"m 179 468 l 83 468 l 146 658 l 481 658 l 342 0 l 81 0 l 179 468 z "},"í":{"ha":482,"x_min":81,"x_max":621,"o":"m 418 1011 l 621 1011 l 426 725 l 235 725 l 418 1011 m 179 468 l 83 468 l 146 658 l 481 658 l 342 0 l 81 0 l 179 468 z "},"ĭ":{"ha":482,"x_min":81,"x_max":638,"o":"m 318 726 q 160 775 217 726 q 103 914 103 824 q 111 986 103 949 l 274 986 q 267 931 267 951 q 283 885 267 900 q 342 869 300 869 q 461 986 438 869 l 638 986 q 528 793 611 860 q 318 726 446 726 m 179 468 l 83 468 l 146 658 l 481 658 l 342 0 l 81 0 l 179 468 z "},"ǐ":{"ha":482,"x_min":79,"x_max":667,"o":"m 79 1003 l 265 1003 l 333 851 l 471 1003 l 667 1003 l 393 725 l 235 725 l 79 1003 m 179 468 l 83 468 l 146 658 l 481 658 l 342 0 l 81 0 l 179 468 z "},"î":{"ha":482,"x_min":26,"x_max":614,"o":"m 299 1003 l 457 1003 l 614 725 l 432 725 l 357 875 l 228 725 l 26 725 l 299 1003 m 179 468 l 83 468 l 146 658 l 481 658 l 342 0 l 81 0 l 179 468 z "},"ï":{"ha":482,"x_min":81,"x_max":604,"o":"m 124 929 l 304 929 l 268 763 l 88 763 l 124 929 m 422 929 l 604 929 l 568 763 l 386 763 l 422 929 m 179 468 l 83 468 l 146 658 l 481 658 l 342 0 l 81 0 l 179 468 z "},"ị":{"ha":482,"x_min":63,"x_max":540,"o":"m 258 935 l 540 935 l 500 746 l 218 746 l 258 935 m 179 468 l 83 468 l 146 658 l 481 658 l 342 0 l 81 0 l 179 468 m 97 -78 l 278 -78 l 243 -244 l 63 -244 l 97 -78 z "},"ì":{"ha":482,"x_min":81,"x_max":481,"o":"m 186 1011 l 390 1011 l 451 725 l 260 725 l 186 1011 m 179 468 l 83 468 l 146 658 l 481 658 l 342 0 l 81 0 l 179 468 z "},"ỉ":{"ha":482,"x_min":81,"x_max":567,"o":"m 235 838 q 334 856 304 842 q 369 899 364 871 q 296 944 379 944 q 211 933 258 944 l 235 1042 q 399 1061 300 1061 q 524 1031 481 1061 q 567 950 567 1001 q 564 921 567 931 q 517 831 551 863 q 418 782 482 800 l 406 725 l 210 725 l 235 838 m 179 468 l 83 468 l 146 658 l 481 658 l 342 0 l 81 0 l 179 468 z "},"ĳ":{"ha":868,"x_min":81,"x_max":926,"o":"m 258 935 l 540 935 l 500 746 l 218 746 l 258 935 m 644 935 l 926 935 l 886 746 l 604 746 l 644 935 m 179 468 l 83 468 l 146 658 l 481 658 l 342 0 l 81 0 l 179 468 m 404 -325 q 233 -294 300 -325 l 271 -121 q 351 -135 311 -135 q 422 -119 400 -135 q 453 -64 444 -103 l 565 468 l 469 468 l 532 658 l 867 658 l 710 -83 q 404 -325 657 -325 z "},"ī":{"ha":482,"x_min":81,"x_max":596,"o":"m 140 960 l 596 960 l 563 804 l 107 804 l 140 960 m 179 468 l 83 468 l 146 658 l 481 658 l 342 0 l 81 0 l 179 468 z "},"į":{"ha":482,"x_min":-19,"x_max":540,"o":"m 258 935 l 540 935 l 500 746 l 218 746 l 258 935 m 139 -306 q 24 -279 67 -306 q -19 -200 -19 -253 q -17 -171 -19 -182 q 32 -75 -6 -119 q 122 0 69 -31 l 81 0 l 179 468 l 83 468 l 146 658 l 481 658 l 342 0 l 296 0 q 190 -124 203 -60 q 188 -140 188 -135 q 200 -169 188 -158 q 236 -179 213 -179 q 275 -175 254 -179 q 308 -164 296 -171 l 283 -283 q 219 -299 258 -293 q 139 -306 179 -306 z "},"ĩ":{"ha":482,"x_min":71,"x_max":622,"o":"m 457 756 q 395 763 425 756 q 326 786 365 771 q 266 807 290 800 q 218 814 242 814 q 71 760 136 814 l 106 924 q 169 956 131 943 q 247 969 208 969 q 304 963 278 969 q 371 940 331 956 q 431 919 404 926 q 486 911 457 911 q 565 926 529 911 q 622 967 600 942 l 588 801 q 533 769 569 782 q 457 756 496 756 m 179 468 l 83 468 l 146 658 l 481 658 l 342 0 l 81 0 l 179 468 z "},"j":{"ha":404,"x_min":-231,"x_max":463,"o":"m 181 935 l 463 935 l 422 746 l 140 746 l 181 935 m -60 -325 q -231 -294 -164 -325 l -193 -121 q -112 -135 -153 -135 q -42 -119 -64 -135 q -11 -64 -19 -103 l 101 468 l 6 468 l 68 658 l 403 658 l 246 -83 q -60 -325 193 -325 z "},"ȷ":{"ha":404,"x_min":-231,"x_max":403,"o":"m -60 -325 q -231 -294 -164 -325 l -193 -121 q -112 -135 -153 -135 q -41 -119 -62 -135 q -11 -64 -19 -103 l 101 468 l 6 468 l 68 658 l 403 658 l 246 -83 q 147 -260 221 -196 q -60 -325 72 -325 z "},"ĵ":{"ha":404,"x_min":-231,"x_max":563,"o":"m 247 1003 l 406 1003 l 563 725 l 381 725 l 306 875 l 176 725 l -25 725 l 247 1003 m -60 -325 q -231 -294 -164 -325 l -193 -121 q -112 -135 -153 -135 q -41 -119 -62 -135 q -11 -64 -19 -103 l 101 468 l 6 468 l 68 658 l 403 658 l 246 -83 q 147 -260 221 -196 q -60 -325 72 -325 z "},"k":{"ha":853,"x_min":-15,"x_max":864,"o":"m 183 936 l 444 936 l 346 474 l 568 658 l 864 658 l 543 381 l 740 0 l 463 0 l 351 244 l 286 190 l 246 0 l -15 0 l 183 936 z "},"ķ":{"ha":853,"x_min":-15,"x_max":864,"o":"m 183 936 l 444 936 l 346 474 l 568 658 l 864 658 l 543 381 l 740 0 l 463 0 l 351 244 l 286 190 l 246 0 l -15 0 l 183 936 m 213 -51 l 425 -51 l 279 -364 l 100 -364 l 213 -51 z "},"ĸ":{"ha":853,"x_min":-15,"x_max":864,"o":"m 124 658 l 385 658 l 342 456 l 568 658 l 864 658 l 539 365 l 740 0 l 463 0 l 347 228 l 282 171 l 246 0 l -15 0 l 124 658 z "},"l":{"ha":443,"x_min":18,"x_max":444,"o":"m 204 -14 q 65 21 111 -14 q 18 129 18 56 q 26 199 18 161 l 183 936 l 444 936 l 293 228 q 290 207 290 211 q 301 183 290 190 q 333 176 311 176 q 404 188 375 176 l 368 14 q 291 -8 326 -1 q 204 -14 256 -14 z "},"ĺ":{"ha":443,"x_min":18,"x_max":621,"o":"m 418 1322 l 621 1322 l 426 1036 l 235 1036 l 418 1322 m 204 -14 q 65 21 111 -14 q 18 129 18 56 q 26 199 18 161 l 183 936 l 444 936 l 293 228 q 290 207 290 211 q 301 183 290 190 q 333 176 311 176 q 404 188 375 176 l 368 14 q 291 -8 326 -1 q 204 -14 256 -14 z "},"ľ":{"ha":443,"x_min":18,"x_max":811,"o":"m 599 1257 l 811 1257 l 665 944 l 486 944 l 599 1257 m 204 -14 q 65 21 111 -14 q 18 129 18 56 q 26 199 18 161 l 183 936 l 444 936 l 293 228 q 290 207 290 211 q 301 183 290 190 q 333 176 311 176 q 404 188 375 176 l 368 14 q 291 -8 326 -1 q 204 -14 256 -14 z "},"ļ":{"ha":443,"x_min":-29,"x_max":444,"o":"m 204 -14 q 65 21 111 -14 q 18 129 18 56 q 26 199 18 161 l 183 936 l 444 936 l 293 228 q 290 207 290 211 q 301 183 290 190 q 333 176 311 176 q 404 188 375 176 l 368 14 q 291 -8 326 -1 q 204 -14 256 -14 m 83 -51 l 296 -51 l 150 -364 l -29 -364 l 83 -51 z "},"ŀ":{"ha":606,"x_min":18,"x_max":679,"o":"m 204 -14 q 65 21 111 -14 q 18 129 18 56 q 26 199 18 161 l 183 936 l 444 936 l 293 228 q 290 207 290 211 q 301 183 290 190 q 333 176 311 176 q 404 188 375 176 l 368 14 q 291 -8 326 -1 q 204 -14 256 -14 m 499 576 l 679 576 l 643 410 l 463 410 l 499 576 z "},"ḷ":{"ha":443,"x_min":18,"x_max":444,"o":"m 204 -14 q 65 21 111 -14 q 18 129 18 56 q 26 199 18 161 l 183 936 l 444 936 l 293 228 q 290 207 290 211 q 301 183 290 190 q 333 176 311 176 q 404 188 375 176 l 368 14 q 291 -8 326 -1 q 204 -14 256 -14 m 82 -78 l 263 -78 l 228 -244 l 47 -244 l 82 -78 z "},"ḹ":{"ha":443,"x_min":18,"x_max":594,"o":"m 140 1164 l 594 1164 l 561 1008 l 107 1008 l 140 1164 m 204 -14 q 65 21 111 -14 q 18 129 18 56 q 26 199 18 161 l 183 936 l 444 936 l 293 228 q 290 207 290 211 q 301 183 290 190 q 333 176 311 176 q 404 188 375 176 l 368 14 q 291 -8 326 -1 q 204 -14 256 -14 m 82 -78 l 263 -78 l 228 -244 l 47 -244 l 82 -78 z "},"ḻ":{"ha":443,"x_min":-108,"x_max":444,"o":"m 204 -14 q 65 21 111 -14 q 18 129 18 56 q 26 199 18 161 l 183 936 l 444 936 l 293 228 q 290 207 290 211 q 301 183 290 190 q 333 176 311 176 q 404 188 375 176 l 368 14 q 291 -8 326 -1 q 204 -14 256 -14 m -75 -89 l 379 -89 l 346 -244 l -108 -244 l -75 -89 z "},"ł":{"ha":443,"x_min":-61,"x_max":497,"o":"m 204 -14 q 65 21 111 -14 q 18 129 18 56 q 26 199 18 161 l 57 344 l -61 297 l -22 482 l 97 529 l 183 936 l 444 936 l 382 643 l 497 690 l 458 506 l 342 458 l 293 228 q 290 207 290 211 q 301 183 290 190 q 333 176 311 176 q 404 188 375 176 l 368 14 q 291 -8 326 -1 q 204 -14 256 -14 z "},"m":{"ha":1196,"x_min":-15,"x_max":1163,"o":"m 124 658 l 365 658 l 361 606 q 589 672 474 672 q 684 655 650 672 q 733 601 718 638 q 981 672 849 672 q 1163 511 1163 672 q 1153 428 1163 471 l 1063 0 l 806 0 l 889 397 q 893 429 893 417 q 878 467 893 456 q 829 479 863 479 q 778 469 804 479 q 732 440 753 458 q 719 371 729 418 l 642 0 l 400 0 l 485 401 q 489 435 489 421 q 476 469 489 458 q 435 479 464 479 q 329 432 386 479 l 238 0 l -15 0 l 124 658 z "},"ṃ":{"ha":1196,"x_min":-15,"x_max":1163,"o":"m 124 658 l 365 658 l 361 606 q 589 672 474 672 q 684 655 650 672 q 733 601 718 638 q 981 672 849 672 q 1163 511 1163 672 q 1153 428 1163 471 l 1063 0 l 806 0 l 889 397 q 893 429 893 417 q 878 467 893 456 q 829 479 863 479 q 778 469 804 479 q 732 440 753 458 q 719 371 729 418 l 642 0 l 400 0 l 485 401 q 489 435 489 421 q 476 469 489 458 q 435 479 464 479 q 329 432 386 479 l 238 0 l -15 0 l 124 658 m 414 -78 l 594 -78 l 560 -244 l 379 -244 l 414 -78 z "},"n":{"ha":839,"x_min":-15,"x_max":804,"o":"m 124 658 l 368 658 l 365 608 q 477 654 411 636 q 610 672 543 672 q 804 506 804 672 q 794 422 804 465 l 706 0 l 444 0 l 528 396 q 532 426 532 413 q 515 467 532 454 q 465 479 499 479 q 397 466 431 479 q 338 432 363 453 l 246 0 l -15 0 l 124 658 z "},"ń":{"ha":839,"x_min":-15,"x_max":804,"o":"m 544 1011 l 747 1011 l 553 725 l 361 725 l 544 1011 m 124 658 l 368 658 l 365 608 q 477 654 411 636 q 610 672 543 672 q 804 506 804 672 q 794 422 804 465 l 706 0 l 444 0 l 528 396 q 532 426 532 413 q 515 467 532 454 q 465 479 499 479 q 397 466 431 479 q 338 432 363 453 l 246 0 l -15 0 l 124 658 z "},"ŉ":{"ha":1071,"x_min":85,"x_max":1036,"o":"m 197 893 l 410 893 l 264 581 l 85 581 l 197 893 m 356 658 l 600 658 l 597 608 q 709 654 643 636 q 842 672 775 672 q 1036 506 1036 672 q 1026 422 1036 465 l 938 0 l 676 0 l 760 396 q 764 426 764 413 q 747 467 764 454 q 697 479 731 479 q 628 466 663 479 q 569 432 594 453 l 478 0 l 217 0 l 356 658 z "},"ň":{"ha":839,"x_min":-15,"x_max":828,"o":"m 240 1003 l 426 1003 l 494 851 l 632 1003 l 828 1003 l 554 725 l 396 725 l 240 1003 m 124 658 l 368 658 l 365 608 q 477 654 411 636 q 610 672 543 672 q 804 506 804 672 q 794 422 804 465 l 706 0 l 444 0 l 528 396 q 532 426 532 413 q 515 467 532 454 q 465 479 499 479 q 397 466 431 479 q 338 432 363 453 l 246 0 l -15 0 l 124 658 z "},"ņ":{"ha":839,"x_min":-15,"x_max":804,"o":"m 124 658 l 368 658 l 365 608 q 477 654 411 636 q 610 672 543 672 q 804 506 804 672 q 794 422 804 465 l 706 0 l 444 0 l 528 396 q 532 426 532 413 q 515 467 532 454 q 465 479 499 479 q 397 466 431 479 q 338 432 363 453 l 246 0 l -15 0 l 124 658 m 242 -51 l 454 -51 l 308 -364 l 129 -364 l 242 -51 z "},"ṅ":{"ha":839,"x_min":-15,"x_max":804,"o":"m 454 931 l 635 931 l 599 764 l 418 764 l 454 931 m 124 658 l 368 658 l 365 608 q 477 654 411 636 q 610 672 543 672 q 804 506 804 672 q 794 422 804 465 l 706 0 l 444 0 l 528 396 q 532 426 532 413 q 515 467 532 454 q 465 479 499 479 q 397 466 431 479 q 338 432 363 453 l 246 0 l -15 0 l 124 658 z "},"ṇ":{"ha":839,"x_min":-15,"x_max":804,"o":"m 124 658 l 368 658 l 365 608 q 477 654 411 636 q 610 672 543 672 q 804 506 804 672 q 794 422 804 465 l 706 0 l 444 0 l 528 396 q 532 426 532 413 q 515 467 532 454 q 465 479 499 479 q 397 466 431 479 q 338 432 363 453 l 246 0 l -15 0 l 124 658 m 249 -78 l 429 -78 l 394 -244 l 214 -244 l 249 -78 z "},"ŋ":{"ha":839,"x_min":-15,"x_max":806,"o":"m 382 -325 q 210 -294 276 -325 l 246 -125 q 326 -139 286 -139 q 429 -64 413 -139 l 526 396 q 531 428 531 415 q 514 467 531 456 q 458 479 497 479 q 396 466 429 479 q 338 432 363 453 l 246 0 l -15 0 l 124 658 l 368 658 l 365 608 q 477 654 411 636 q 610 672 543 672 q 758 633 710 672 q 806 511 806 593 q 794 422 806 475 l 688 -83 q 587 -260 664 -194 q 382 -325 510 -325 z "},"ṉ":{"ha":839,"x_min":-15,"x_max":804,"o":"m 124 658 l 368 658 l 365 608 q 477 654 411 636 q 610 672 543 672 q 804 506 804 672 q 794 422 804 465 l 706 0 l 444 0 l 528 396 q 532 426 532 413 q 515 467 532 454 q 465 479 499 479 q 397 466 431 479 q 338 432 363 453 l 246 0 l -15 0 l 124 658 m 101 -87 l 556 -87 l 522 -243 l 68 -243 l 101 -87 z "},"ñ":{"ha":839,"x_min":-15,"x_max":804,"o":"m 635 736 q 573 744 603 736 q 504 767 543 751 q 444 788 468 781 q 396 794 419 794 q 249 740 314 794 l 283 904 q 347 937 308 924 q 425 950 386 950 q 482 943 456 950 q 549 921 508 936 q 608 899 582 907 q 664 892 635 892 q 742 907 707 892 q 800 947 778 922 l 765 782 q 710 749 747 763 q 635 736 674 736 m 124 658 l 368 658 l 365 608 q 477 654 411 636 q 610 672 543 672 q 804 506 804 672 q 794 422 804 465 l 706 0 l 444 0 l 528 396 q 532 426 532 413 q 515 467 532 454 q 465 479 499 479 q 397 466 431 479 q 338 432 363 453 l 246 0 l -15 0 l 124 658 z "},"o":{"ha":842,"x_min":17,"x_max":808,"o":"m 338 -14 q 100 51 183 -14 q 17 240 17 117 q 26 329 17 285 q 174 586 63 500 q 483 672 285 672 q 725 605 642 672 q 808 417 808 538 q 799 329 808 372 q 338 -14 726 -14 m 378 176 q 478 213 442 176 q 532 329 515 249 q 540 396 540 367 q 517 461 540 440 q 443 482 493 482 q 345 445 381 482 q 293 329 310 408 q 285 258 285 288 q 306 196 285 215 q 378 176 328 176 z "},"ó":{"ha":842,"x_min":17,"x_max":808,"o":"m 565 1011 l 768 1011 l 574 725 l 382 725 l 565 1011 m 338 -14 q 100 51 183 -14 q 17 240 17 117 q 26 329 17 285 q 174 586 63 500 q 483 672 285 672 q 725 605 642 672 q 808 417 808 538 q 799 329 808 372 q 338 -14 726 -14 m 378 176 q 478 213 442 176 q 532 329 515 249 q 540 396 540 367 q 517 461 540 440 q 443 482 493 482 q 345 445 381 482 q 293 329 310 408 q 285 258 285 288 q 306 196 285 215 q 378 176 328 176 z "},"ŏ":{"ha":842,"x_min":17,"x_max":815,"o":"m 496 726 q 339 775 396 726 q 282 914 282 824 q 290 986 282 949 l 451 986 q 446 942 446 953 q 519 869 446 869 q 639 986 615 869 l 815 986 q 703 794 789 863 q 496 726 617 726 m 338 -14 q 100 51 183 -14 q 17 240 17 117 q 26 329 17 285 q 174 586 63 500 q 483 672 285 672 q 725 605 642 672 q 808 417 808 538 q 799 329 808 372 q 338 -14 726 -14 m 378 176 q 478 213 442 176 q 532 329 515 249 q 540 396 540 367 q 517 461 540 440 q 443 482 493 482 q 345 445 381 482 q 293 329 310 408 q 285 258 285 288 q 306 196 285 215 q 378 176 328 176 z "},"ǒ":{"ha":842,"x_min":17,"x_max":849,"o":"m 261 1003 l 447 1003 l 515 851 l 653 1003 l 849 1003 l 575 725 l 417 725 l 261 1003 m 338 -14 q 100 51 183 -14 q 17 240 17 117 q 26 329 17 285 q 174 586 63 500 q 483 672 285 672 q 725 605 642 672 q 808 417 808 538 q 799 329 808 372 q 338 -14 726 -14 m 378 176 q 478 213 442 176 q 532 329 515 249 q 540 396 540 367 q 517 461 540 440 q 443 482 493 482 q 345 445 381 482 q 293 329 310 408 q 285 258 285 288 q 306 196 285 215 q 378 176 328 176 z "},"ô":{"ha":842,"x_min":17,"x_max":808,"o":"m 475 1003 l 633 1003 l 790 725 l 608 725 l 533 875 l 404 725 l 203 725 l 475 1003 m 338 -14 q 100 51 183 -14 q 17 240 17 117 q 26 329 17 285 q 174 586 63 500 q 483 672 285 672 q 725 605 642 672 q 808 417 808 538 q 799 329 808 372 q 338 -14 726 -14 m 378 176 q 478 213 442 176 q 532 329 515 249 q 540 396 540 367 q 517 461 540 440 q 443 482 493 482 q 345 445 381 482 q 293 329 310 408 q 285 258 285 288 q 306 196 285 215 q 378 176 328 176 z "},"ố":{"ha":842,"x_min":17,"x_max":1032,"o":"m 839 1115 l 1032 1115 l 878 899 l 696 899 l 839 1115 m 439 936 l 631 936 l 782 725 l 579 725 l 517 835 l 407 725 l 196 725 l 439 936 m 338 -14 q 100 51 183 -14 q 17 240 17 117 q 26 329 17 285 q 174 586 63 500 q 483 672 285 672 q 725 605 642 672 q 808 417 808 538 q 799 329 808 372 q 338 -14 726 -14 m 378 176 q 478 213 442 176 q 532 329 515 249 q 540 396 540 367 q 517 461 540 440 q 443 482 493 482 q 345 445 381 482 q 293 329 310 408 q 285 258 285 288 q 306 196 285 215 q 378 176 328 176 z "},"ộ":{"ha":842,"x_min":17,"x_max":808,"o":"m 475 1003 l 633 1003 l 790 725 l 608 725 l 533 875 l 404 725 l 203 725 l 475 1003 m 338 -14 q 100 51 183 -14 q 17 240 17 117 q 26 329 17 285 q 174 586 63 500 q 483 672 285 672 q 725 605 642 672 q 808 417 808 538 q 799 329 808 372 q 338 -14 726 -14 m 378 176 q 478 213 442 176 q 532 329 515 249 q 540 396 540 367 q 517 461 540 440 q 443 482 493 482 q 345 445 381 482 q 293 329 310 408 q 285 258 285 288 q 306 196 285 215 q 378 176 328 176 m 236 -78 l 417 -78 l 382 -244 l 201 -244 l 236 -78 z "},"ồ":{"ha":842,"x_min":17,"x_max":808,"o":"m 111 1115 l 304 1115 l 357 899 l 174 899 l 111 1115 m 439 936 l 631 936 l 781 725 l 579 725 l 517 835 l 407 725 l 196 725 l 439 936 m 338 -14 q 100 51 183 -14 q 17 240 17 117 q 26 329 17 285 q 174 586 63 500 q 483 672 285 672 q 725 605 642 672 q 808 417 808 538 q 799 329 808 372 q 338 -14 726 -14 m 378 176 q 478 213 442 176 q 532 329 515 249 q 540 396 540 367 q 517 461 540 440 q 443 482 493 482 q 345 445 381 482 q 293 329 310 408 q 285 258 285 288 q 306 196 285 215 q 378 176 328 176 z "},"ổ":{"ha":842,"x_min":17,"x_max":1006,"o":"m 715 968 q 796 981 772 969 q 824 1011 819 992 q 772 1042 829 1042 q 700 1032 739 1042 l 722 1132 q 861 1149 782 1149 q 969 1124 933 1149 q 1006 1056 1006 1100 q 1003 1029 1006 1049 q 876 913 981 929 l 867 867 l 694 867 l 715 968 m 431 936 l 622 936 l 772 725 l 571 725 l 508 835 l 399 725 l 188 725 l 431 936 m 338 -14 q 100 51 183 -14 q 17 240 17 117 q 26 329 17 285 q 174 586 63 500 q 483 672 285 672 q 725 605 642 672 q 808 417 808 538 q 799 329 808 372 q 338 -14 726 -14 m 378 176 q 478 213 442 176 q 532 329 515 249 q 540 396 540 367 q 517 461 540 440 q 443 482 493 482 q 345 445 381 482 q 293 329 310 408 q 285 258 285 288 q 306 196 285 215 q 378 176 328 176 z "},"ỗ":{"ha":842,"x_min":17,"x_max":843,"o":"m 686 989 q 628 997 656 989 q 560 1019 600 1004 q 502 1039 526 1032 q 453 1046 478 1046 q 310 993 371 1046 l 340 1135 q 401 1167 364 1154 q 478 1179 439 1179 q 533 1172 508 1179 q 599 1150 557 1165 q 660 1129 636 1136 q 710 1122 683 1122 q 786 1137 751 1122 q 843 1176 821 1151 l 813 1033 q 760 1002 796 1015 q 686 989 725 989 m 499 725 q 349 769 407 725 q 290 901 290 814 q 297 964 290 936 l 443 964 q 439 924 439 943 q 526 853 439 853 q 611 883 578 853 q 656 964 644 913 l 801 964 q 700 783 775 840 q 499 725 625 725 m 338 -14 q 100 51 183 -14 q 17 240 17 117 q 26 329 17 285 q 174 586 63 500 q 483 672 285 672 q 725 605 642 672 q 808 417 808 538 q 799 329 808 372 q 338 -14 726 -14 m 378 176 q 478 213 442 176 q 532 329 515 249 q 540 396 540 367 q 517 461 540 440 q 443 482 493 482 q 345 445 381 482 q 293 329 310 408 q 285 258 285 288 q 306 196 285 215 q 378 176 328 176 z "},"ö":{"ha":842,"x_min":17,"x_max":808,"o":"m 301 929 l 482 929 l 446 763 l 265 763 l 301 929 m 600 929 l 782 929 l 746 763 l 564 763 l 600 929 m 338 -14 q 100 51 183 -14 q 17 240 17 117 q 26 329 17 285 q 174 586 63 500 q 483 672 285 672 q 725 605 642 672 q 808 417 808 538 q 799 329 808 372 q 338 -14 726 -14 m 378 176 q 478 213 442 176 q 532 329 515 249 q 540 396 540 367 q 517 461 540 440 q 443 482 493 482 q 345 445 381 482 q 293 329 310 408 q 285 258 285 288 q 306 196 285 215 q 378 176 328 176 z "},"ọ":{"ha":842,"x_min":17,"x_max":808,"o":"m 338 -14 q 100 51 183 -14 q 17 240 17 117 q 26 329 17 285 q 174 586 63 500 q 483 672 285 672 q 725 605 642 672 q 808 417 808 538 q 799 329 808 372 q 338 -14 726 -14 m 378 176 q 478 213 442 176 q 532 329 515 249 q 540 396 540 367 q 517 461 540 440 q 443 482 493 482 q 345 445 381 482 q 293 329 310 408 q 285 258 285 288 q 306 196 285 215 q 378 176 328 176 m 236 -78 l 417 -78 l 382 -244 l 201 -244 l 236 -78 z "},"ò":{"ha":842,"x_min":17,"x_max":808,"o":"m 328 1011 l 532 1011 l 593 725 l 401 725 l 328 1011 m 338 -14 q 100 51 183 -14 q 17 240 17 117 q 26 329 17 285 q 174 586 63 500 q 483 672 285 672 q 725 605 642 672 q 808 417 808 538 q 799 329 808 372 q 338 -14 726 -14 m 378 176 q 478 213 442 176 q 532 329 515 249 q 540 396 540 367 q 517 461 540 440 q 443 482 493 482 q 345 445 381 482 q 293 329 310 408 q 285 258 285 288 q 306 196 285 215 q 378 176 328 176 z "},"ỏ":{"ha":842,"x_min":17,"x_max":808,"o":"m 407 838 q 506 856 476 842 q 542 899 536 871 q 468 944 551 944 q 383 933 431 944 l 407 1042 q 571 1061 472 1061 q 696 1031 653 1061 q 739 950 739 1001 q 736 921 739 931 q 689 831 724 863 q 590 782 654 800 l 578 725 l 382 725 l 407 838 m 338 -14 q 100 51 183 -14 q 17 240 17 117 q 26 329 17 285 q 174 586 63 500 q 483 672 285 672 q 725 605 642 672 q 808 417 808 538 q 799 329 808 372 q 338 -14 726 -14 m 378 176 q 478 213 442 176 q 532 329 515 249 q 540 396 540 367 q 517 461 540 440 q 443 482 493 482 q 345 445 381 482 q 293 329 310 408 q 285 258 285 288 q 306 196 285 215 q 378 176 328 176 z "},"ơ":{"ha":1000,"x_min":17,"x_max":1086,"o":"m 338 -14 q 100 51 183 -14 q 17 240 17 117 q 26 329 17 285 q 174 586 63 500 q 483 672 285 672 q 733 597 650 672 l 733 599 q 848 633 810 599 q 901 744 886 667 l 1086 744 q 990 528 1056 600 q 807 436 924 456 q 808 411 808 428 q 799 329 808 368 q 338 -14 726 -14 m 378 176 q 478 213 442 176 q 532 329 515 249 q 540 396 540 367 q 517 461 540 440 q 443 482 493 482 q 345 445 381 482 q 293 329 310 408 q 285 258 285 288 q 306 196 285 215 q 378 176 328 176 z "},"ớ":{"ha":1000,"x_min":17,"x_max":1086,"o":"m 567 1011 l 769 1011 l 575 725 l 383 725 l 567 1011 m 338 -14 q 100 51 183 -14 q 17 240 17 117 q 26 329 17 285 q 174 586 63 500 q 483 672 285 672 q 733 597 650 672 l 733 599 q 848 633 810 599 q 901 744 886 667 l 1086 744 q 990 528 1056 600 q 807 436 924 456 q 808 411 808 428 q 799 329 808 368 q 338 -14 726 -14 m 378 176 q 478 213 442 176 q 532 329 515 249 q 540 396 540 367 q 517 461 540 440 q 443 482 493 482 q 345 445 381 482 q 293 329 310 408 q 285 258 285 288 q 306 196 285 215 q 378 176 328 176 z "},"ợ":{"ha":1000,"x_min":17,"x_max":1086,"o":"m 338 -14 q 100 51 183 -14 q 17 240 17 117 q 26 329 17 285 q 174 586 63 500 q 483 672 285 672 q 733 597 650 672 l 733 599 q 848 633 810 599 q 901 744 886 667 l 1086 744 q 990 528 1056 600 q 807 436 924 456 q 808 411 808 428 q 799 329 808 368 q 338 -14 726 -14 m 378 176 q 478 213 442 176 q 532 329 515 249 q 540 396 540 367 q 517 461 540 440 q 443 482 493 482 q 345 445 381 482 q 293 329 310 408 q 285 258 285 288 q 306 196 285 215 q 378 176 328 176 m 236 -78 l 417 -78 l 382 -244 l 201 -244 l 236 -78 z "},"ờ":{"ha":1000,"x_min":17,"x_max":1086,"o":"m 326 1011 l 531 1011 l 592 725 l 400 725 l 326 1011 m 338 -14 q 100 51 183 -14 q 17 240 17 117 q 26 329 17 285 q 174 586 63 500 q 483 672 285 672 q 733 597 650 672 l 733 599 q 848 633 810 599 q 901 744 886 667 l 1086 744 q 990 528 1056 600 q 807 436 924 456 q 808 411 808 428 q 799 329 808 368 q 338 -14 726 -14 m 378 176 q 478 213 442 176 q 532 329 515 249 q 540 396 540 367 q 517 461 540 440 q 443 482 493 482 q 345 445 381 482 q 293 329 310 408 q 285 258 285 288 q 306 196 285 215 q 378 176 328 176 z "},"ở":{"ha":1000,"x_min":17,"x_max":1086,"o":"m 414 838 q 513 856 483 842 q 549 899 543 871 q 475 944 558 944 q 390 933 438 944 l 414 1042 q 578 1061 479 1061 q 703 1031 660 1061 q 746 950 746 1001 q 743 921 746 931 q 696 831 731 863 q 597 782 661 800 l 585 725 l 389 725 l 414 838 m 338 -14 q 100 51 183 -14 q 17 240 17 117 q 26 329 17 285 q 174 586 63 500 q 483 672 285 672 q 733 597 650 672 l 733 599 q 848 633 810 599 q 901 744 886 667 l 1086 744 q 990 528 1056 600 q 807 436 924 456 q 808 411 808 428 q 799 329 808 368 q 338 -14 726 -14 m 378 176 q 478 213 442 176 q 532 329 515 249 q 540 396 540 367 q 517 461 540 440 q 443 482 493 482 q 345 445 381 482 q 293 329 310 408 q 285 258 285 288 q 306 196 285 215 q 378 176 328 176 z "},"ỡ":{"ha":1000,"x_min":17,"x_max":1086,"o":"m 635 731 q 573 738 603 731 q 504 761 543 746 q 444 782 468 775 q 396 789 419 789 q 249 735 314 789 l 283 899 q 347 931 308 918 q 425 944 386 944 q 482 938 456 944 q 549 915 508 931 q 608 894 582 901 q 664 886 635 886 q 742 901 707 886 q 800 942 778 917 l 765 776 q 710 744 747 757 q 635 731 674 731 m 338 -14 q 100 51 183 -14 q 17 240 17 117 q 26 329 17 285 q 174 586 63 500 q 483 672 285 672 q 733 597 650 672 l 733 599 q 848 633 810 599 q 901 744 886 667 l 1086 744 q 990 528 1056 600 q 807 436 924 456 q 808 411 808 428 q 799 329 808 368 q 338 -14 726 -14 m 378 176 q 478 213 442 176 q 532 329 515 249 q 540 396 540 367 q 517 461 540 440 q 443 482 493 482 q 345 445 381 482 q 293 329 310 408 q 285 258 285 288 q 306 196 285 215 q 378 176 328 176 z "},"ő":{"ha":842,"x_min":17,"x_max":913,"o":"m 369 981 l 588 981 l 393 725 l 196 725 l 369 981 m 693 981 l 913 981 l 717 725 l 519 725 l 693 981 m 338 -14 q 100 51 183 -14 q 17 240 17 117 q 26 329 17 285 q 174 586 63 500 q 483 672 285 672 q 725 605 642 672 q 808 417 808 538 q 799 329 808 372 q 338 -14 726 -14 m 378 176 q 478 213 442 176 q 532 329 515 249 q 540 396 540 367 q 517 461 540 440 q 443 482 493 482 q 345 445 381 482 q 293 329 310 408 q 285 258 285 288 q 306 196 285 215 q 378 176 328 176 z "},"ō":{"ha":842,"x_min":17,"x_max":808,"o":"m 314 931 l 768 931 l 735 775 l 281 775 l 314 931 m 338 -14 q 100 51 183 -14 q 17 240 17 117 q 26 329 17 285 q 174 586 63 500 q 483 672 285 672 q 725 605 642 672 q 808 417 808 538 q 799 329 808 372 q 338 -14 726 -14 m 378 176 q 478 213 442 176 q 532 329 515 249 q 540 396 540 367 q 517 461 540 440 q 443 482 493 482 q 345 445 381 482 q 293 329 310 408 q 285 258 285 288 q 306 196 285 215 q 378 176 328 176 z "},"ø":{"ha":842,"x_min":17,"x_max":808,"o":"m 156 18 q 17 239 17 81 q 26 329 17 285 q 174 586 63 500 q 483 672 285 672 q 550 668 518 672 l 589 733 l 722 733 l 665 640 q 772 552 736 610 q 808 415 808 494 q 799 329 808 383 q 338 -14 726 -14 q 271 -10 303 -14 l 233 -74 l 100 -74 l 156 18 m 444 494 q 335 453 376 493 q 276 329 294 414 q 268 261 268 290 q 275 215 268 236 l 444 494 m 376 164 q 488 204 444 164 q 549 329 531 244 q 556 393 556 368 q 547 444 556 424 l 376 164 z "},"ǿ":{"ha":842,"x_min":17,"x_max":808,"o":"m 506 1011 l 708 1011 l 514 725 l 322 725 l 506 1011 m 156 18 q 17 239 17 81 q 26 329 17 285 q 174 586 63 500 q 483 672 285 672 q 550 668 518 672 l 589 733 l 722 733 l 665 640 q 772 552 736 610 q 808 415 808 494 q 799 329 808 383 q 338 -14 726 -14 q 271 -10 303 -14 l 233 -74 l 100 -74 l 156 18 m 444 494 q 335 453 376 493 q 276 329 294 414 q 268 261 268 290 q 275 215 268 236 l 444 494 m 376 164 q 488 204 444 164 q 549 329 531 244 q 556 393 556 368 q 547 444 556 424 l 376 164 z "},"õ":{"ha":842,"x_min":17,"x_max":808,"o":"m 638 757 q 576 765 606 757 q 507 788 546 772 q 447 808 471 801 q 399 815 422 815 q 251 761 317 815 l 286 925 q 350 958 311 944 q 428 971 389 971 q 485 964 458 971 q 551 942 511 957 q 611 920 585 928 q 667 913 638 913 q 745 928 710 913 q 803 968 781 943 l 768 803 q 713 770 750 783 q 638 757 676 757 m 338 -14 q 100 51 183 -14 q 17 240 17 117 q 26 329 17 285 q 174 586 63 500 q 483 672 285 672 q 725 605 642 672 q 808 417 808 538 q 799 329 808 372 q 338 -14 726 -14 m 378 176 q 478 213 442 176 q 532 329 515 249 q 540 396 540 367 q 517 461 540 440 q 443 482 493 482 q 345 445 381 482 q 293 329 310 408 q 285 258 285 288 q 306 196 285 215 q 378 176 328 176 z "},"œ":{"ha":1294,"x_min":17,"x_max":1267,"o":"m 338 -14 q 100 51 183 -14 q 17 240 17 117 q 26 329 17 285 q 174 586 63 500 q 483 672 285 672 q 615 656 561 672 q 713 604 669 639 q 832 654 761 636 q 981 672 903 672 q 1190 607 1114 672 q 1267 433 1267 542 q 1260 367 1267 396 l 1235 251 l 778 251 q 820 176 779 199 q 971 154 861 154 q 1085 164 1026 154 q 1185 189 1144 174 l 1151 32 q 871 -14 1046 -14 q 625 57 711 -14 q 338 -14 515 -14 m 1040 393 l 1044 417 q 1047 440 1047 433 q 954 506 1047 506 q 855 478 889 506 q 808 393 821 450 l 1040 393 m 378 176 q 478 213 442 176 q 532 329 515 249 q 540 396 540 367 q 517 461 540 440 q 443 482 493 482 q 345 445 381 482 q 293 329 310 408 q 285 258 285 288 q 306 196 285 215 q 378 176 328 176 z "},"p":{"ha":843,"x_min":-78,"x_max":813,"o":"m 124 658 l 350 658 l 351 606 q 452 656 401 639 q 565 672 503 672 q 747 613 682 672 q 813 436 813 553 q 800 329 813 388 q 669 68 763 150 q 408 -14 576 -14 q 250 24 311 -14 l 182 -300 l -78 -300 l 124 658 m 382 176 q 479 213 442 176 q 535 333 517 250 q 542 396 542 372 q 519 462 542 442 q 450 482 497 482 q 339 443 386 482 l 290 210 q 382 176 319 176 z "},"þ":{"ha":843,"x_min":-78,"x_max":811,"o":"m 190 972 l 451 972 l 381 635 q 462 663 417 653 q 554 672 507 672 q 744 610 678 672 q 811 432 811 549 q 800 329 811 389 q 669 69 764 153 q 408 -14 574 -14 q 250 24 311 -14 l 182 -300 l -78 -300 l 190 972 m 382 176 q 479 213 442 176 q 535 333 517 250 q 542 396 542 372 q 519 462 542 442 q 450 482 497 482 q 339 443 392 482 l 290 210 q 328 185 307 193 q 382 176 350 176 z "},"q":{"ha":878,"x_min":15,"x_max":842,"o":"m 593 -336 q 456 -298 504 -336 q 408 -183 408 -260 q 415 -119 408 -149 l 446 24 q 364 -4 411 6 q 271 -14 317 -14 q 85 47 156 -14 q 15 228 15 108 q 26 329 15 281 q 159 588 64 504 q 408 672 254 672 q 513 656 469 672 q 590 606 556 639 l 615 658 l 842 658 l 683 -89 q 681 -115 681 -99 q 691 -140 681 -133 q 726 -147 701 -147 q 792 -136 758 -147 l 754 -308 q 679 -330 714 -324 q 593 -336 644 -336 m 376 176 q 434 185 408 176 q 486 210 460 193 l 535 443 q 495 473 517 464 q 443 482 474 482 q 347 448 383 482 q 294 333 311 414 q 285 261 285 285 q 307 196 285 215 q 376 176 329 176 z "},"r":{"ha":557,"x_min":-15,"x_max":614,"o":"m 124 658 l 375 658 l 371 606 q 485 649 419 631 q 614 672 551 668 l 574 478 q 447 460 515 474 q 336 428 378 446 l 246 0 l -15 0 l 124 658 z "},"ŕ":{"ha":557,"x_min":-15,"x_max":614,"o":"m 340 1011 l 543 1011 l 349 725 l 157 725 l 340 1011 m 124 658 l 375 658 l 371 606 q 485 649 419 631 q 614 672 551 668 l 574 478 q 447 460 515 474 q 336 428 378 446 l 246 0 l -15 0 l 124 658 z "},"ř":{"ha":557,"x_min":-15,"x_max":624,"o":"m 36 1003 l 222 1003 l 290 851 l 428 1003 l 624 1003 l 350 725 l 192 725 l 36 1003 m 124 658 l 375 658 l 371 606 q 485 649 419 631 q 614 672 551 668 l 574 478 q 447 460 515 474 q 336 428 378 446 l 246 0 l -15 0 l 124 658 z "},"ŗ":{"ha":557,"x_min":-111,"x_max":614,"o":"m 124 658 l 375 658 l 371 606 q 485 649 419 631 q 614 672 551 668 l 574 478 q 447 460 515 474 q 336 428 378 446 l 246 0 l -15 0 l 124 658 m 1 -51 l 214 -51 l 68 -364 l -111 -364 l 1 -51 z "},"ṛ":{"ha":557,"x_min":-32,"x_max":614,"o":"m 124 658 l 375 658 l 371 606 q 485 649 419 631 q 614 672 551 668 l 574 478 q 447 460 515 474 q 336 428 378 446 l 246 0 l -15 0 l 124 658 m 3 -78 l 183 -78 l 149 -244 l -32 -244 l 3 -78 z "},"ṝ":{"ha":557,"x_min":-32,"x_max":614,"o":"m 113 921 l 567 921 l 533 765 l 79 765 l 113 921 m 124 658 l 375 658 l 371 606 q 485 649 419 631 q 614 672 551 668 l 574 478 q 447 460 515 474 q 336 428 378 446 l 246 0 l -15 0 l 124 658 m 3 -78 l 183 -78 l 149 -244 l -32 -244 l 3 -78 z "},"ṟ":{"ha":557,"x_min":-156,"x_max":614,"o":"m 124 658 l 375 658 l 371 606 q 485 649 419 631 q 614 672 551 668 l 574 478 q 447 460 515 474 q 336 428 378 446 l 246 0 l -15 0 l 124 658 m -122 -89 l 332 -89 l 299 -244 l -156 -244 l -122 -89 z "},"s":{"ha":676,"x_min":-29,"x_max":653,"o":"m 238 -14 q 83 -2 156 -14 q -29 28 11 10 l 10 215 q 116 181 53 193 q 231 168 179 168 q 313 172 292 168 q 338 194 333 175 q 324 219 342 210 q 257 244 306 229 l 192 267 q 85 331 119 294 q 50 421 50 367 q 56 467 50 444 q 164 621 76 569 q 421 672 251 672 q 549 663 482 672 q 653 640 615 653 l 614 457 q 531 483 578 474 q 442 492 483 492 q 356 487 386 492 q 321 464 325 482 q 335 440 318 449 q 396 419 351 432 l 454 401 q 574 338 538 375 q 611 249 611 301 q 604 196 611 228 q 494 39 582 92 q 238 -14 407 -14 z "},"ś":{"ha":676,"x_min":-29,"x_max":676,"o":"m 474 1011 l 676 1011 l 482 725 l 290 725 l 474 1011 m 238 -14 q 83 -2 156 -14 q -29 28 11 10 l 10 215 q 116 181 53 193 q 231 168 179 168 q 313 172 292 168 q 338 194 333 175 q 324 219 342 210 q 257 244 306 229 l 192 267 q 85 331 119 294 q 50 421 50 367 q 56 467 50 444 q 164 621 76 569 q 421 672 251 672 q 549 663 482 672 q 653 640 615 653 l 614 457 q 531 483 578 474 q 442 492 483 492 q 356 487 386 492 q 321 464 325 482 q 335 440 318 449 q 396 419 351 432 l 454 401 q 574 338 538 375 q 611 249 611 301 q 604 196 611 228 q 494 39 582 92 q 238 -14 407 -14 z "},"š":{"ha":676,"x_min":-29,"x_max":757,"o":"m 169 1003 l 356 1003 l 424 851 l 561 1003 l 757 1003 l 483 725 l 325 725 l 169 1003 m 238 -14 q 83 -2 156 -14 q -29 28 11 10 l 10 215 q 116 181 53 193 q 231 168 179 168 q 313 172 292 168 q 338 194 333 175 q 324 219 342 210 q 257 244 306 229 l 192 267 q 85 331 119 294 q 50 421 50 367 q 56 467 50 444 q 164 621 76 569 q 421 672 251 672 q 549 663 482 672 q 653 640 615 653 l 614 457 q 531 483 578 474 q 442 492 483 492 q 356 487 386 492 q 321 464 325 482 q 335 440 318 449 q 396 419 351 432 l 454 401 q 574 338 538 375 q 611 249 611 301 q 604 196 611 228 q 494 39 582 92 q 238 -14 407 -14 z "},"ş":{"ha":676,"x_min":-29,"x_max":653,"o":"m 160 -333 q 99 -330 135 -333 q 49 -322 63 -326 l 71 -219 q 150 -231 108 -231 q 235 -218 210 -231 q 261 -172 261 -206 q 244 -147 261 -153 q 194 -140 228 -140 l 107 -140 l 171 -11 q -29 28 33 -3 l 10 215 q 116 181 53 193 q 231 168 179 168 q 313 172 292 168 q 338 194 333 175 q 324 219 342 210 q 257 244 306 229 l 192 267 q 85 331 119 294 q 50 421 50 367 q 56 467 50 444 q 164 621 76 569 q 421 672 251 672 q 549 663 482 672 q 653 640 615 653 l 614 457 q 531 483 578 474 q 442 492 483 492 q 356 487 386 492 q 321 464 325 482 q 335 440 318 449 q 396 419 351 432 l 454 401 q 574 338 538 375 q 611 249 611 301 q 604 196 611 228 q 514 52 583 104 q 313 -11 444 0 l 286 -57 q 385 -83 353 -57 q 418 -154 418 -108 q 414 -187 418 -171 q 335 -295 399 -257 q 160 -333 271 -333 z "},"ŝ":{"ha":676,"x_min":-29,"x_max":699,"o":"m 383 1003 l 542 1003 l 699 725 l 517 725 l 442 875 l 313 725 l 111 725 l 383 1003 m 238 -14 q 83 -2 156 -14 q -29 28 11 10 l 10 215 q 116 181 53 193 q 231 168 179 168 q 313 172 292 168 q 338 194 333 175 q 324 219 342 210 q 257 244 306 229 l 192 267 q 85 331 119 294 q 50 421 50 367 q 56 467 50 444 q 164 621 76 569 q 421 672 251 672 q 549 663 482 672 q 653 640 615 653 l 614 457 q 531 483 578 474 q 442 492 483 492 q 356 487 386 492 q 321 464 325 482 q 335 440 318 449 q 396 419 351 432 l 454 401 q 574 338 538 375 q 611 249 611 301 q 604 196 611 228 q 494 39 582 92 q 238 -14 407 -14 z "},"ș":{"ha":676,"x_min":-29,"x_max":653,"o":"m 238 -14 q 83 -2 156 -14 q -29 28 11 10 l 10 215 q 116 181 53 193 q 231 168 179 168 q 313 172 292 168 q 338 194 333 175 q 324 219 342 210 q 257 244 306 229 l 192 267 q 85 331 119 294 q 50 421 50 367 q 56 467 50 444 q 164 621 76 569 q 421 672 251 672 q 549 663 482 672 q 653 640 615 653 l 614 457 q 531 483 578 474 q 442 492 483 492 q 356 487 386 492 q 321 464 325 482 q 335 440 318 449 q 396 419 351 432 l 454 401 q 574 338 538 375 q 611 249 611 301 q 604 196 611 228 q 494 39 582 92 q 238 -14 407 -14 m 154 -58 l 360 -58 l 239 -325 l 53 -325 l 154 -58 z "},"ṡ":{"ha":676,"x_min":-29,"x_max":653,"o":"m 351 929 l 532 929 l 496 763 l 315 763 l 351 929 m 238 -14 q 83 -2 156 -14 q -29 28 11 10 l 10 215 q 116 181 53 193 q 231 168 179 168 q 313 172 292 168 q 338 194 333 175 q 324 219 342 210 q 257 244 306 229 l 192 267 q 85 331 119 294 q 50 421 50 367 q 56 467 50 444 q 164 621 76 569 q 421 672 251 672 q 549 663 482 672 q 653 640 615 653 l 614 457 q 531 483 578 474 q 442 492 483 492 q 356 487 386 492 q 321 464 325 482 q 335 440 318 449 q 396 419 351 432 l 454 401 q 574 338 538 375 q 611 249 611 301 q 604 196 611 228 q 494 39 582 92 q 238 -14 407 -14 z "},"ṣ":{"ha":676,"x_min":-29,"x_max":653,"o":"m 238 -14 q 83 -2 156 -14 q -29 28 11 10 l 10 215 q 116 181 53 193 q 231 168 179 168 q 313 172 292 168 q 338 194 333 175 q 324 219 342 210 q 257 244 306 229 l 192 267 q 85 331 119 294 q 50 421 50 367 q 56 467 50 444 q 164 621 76 569 q 421 672 251 672 q 549 663 482 672 q 653 640 615 653 l 614 457 q 531 483 578 474 q 442 492 483 492 q 356 487 386 492 q 321 464 325 482 q 335 440 318 449 q 396 419 351 432 l 454 401 q 574 338 538 375 q 611 249 611 301 q 604 196 611 228 q 494 39 582 92 q 238 -14 407 -14 m 160 -78 l 340 -78 l 306 -244 l 125 -244 l 160 -78 z "},"ß":{"ha":899,"x_min":-22,"x_max":900,"o":"m 481 -14 q 297 17 365 -14 l 339 215 q 394 200 361 206 q 458 194 426 194 q 579 282 561 194 q 582 310 582 292 q 558 356 582 342 q 485 369 535 369 l 396 369 l 435 551 l 508 551 q 585 575 556 551 q 625 649 614 599 q 628 676 628 668 q 531 750 628 750 q 413 717 451 750 q 358 608 374 685 l 229 0 l -22 0 l 110 622 q 261 887 149 801 q 569 972 374 972 q 751 938 676 972 q 863 846 825 904 q 900 717 900 788 q 894 661 900 688 q 843 542 879 593 q 757 464 807 490 q 849 324 849 424 q 842 265 849 300 q 719 61 814 136 q 481 -14 624 -14 z "},"ə":{"ha":767,"x_min":10,"x_max":732,"o":"m 296 -14 q 88 49 167 -14 q 10 222 10 113 q 18 292 10 257 l 43 407 l 500 407 q 478 465 496 444 q 420 494 460 485 q 307 504 381 504 q 191 494 251 504 q 92 469 131 485 l 125 626 q 406 672 233 672 q 642 601 551 672 q 732 406 732 531 q 724 331 732 371 q 296 -14 653 -14 m 324 153 q 423 181 389 153 q 469 265 457 208 l 238 265 l 232 242 q 229 214 229 222 q 251 169 229 185 q 324 153 272 153 z "},"t":{"ha":528,"x_min":28,"x_max":567,"o":"m 263 -14 q 108 33 161 -14 q 56 164 56 79 q 64 233 56 196 l 114 465 l 28 465 l 68 658 l 154 658 l 183 793 l 457 856 l 415 658 l 567 658 l 517 465 l 375 465 l 329 253 q 325 222 325 235 q 342 186 325 196 q 397 176 360 176 q 483 190 438 176 l 446 17 q 263 -14 367 -14 z "},"ŧ":{"ha":528,"x_min":-17,"x_max":567,"o":"m 263 -14 q 108 33 161 -14 q 56 164 56 79 q 64 233 56 196 l 69 261 l -17 261 l 15 408 l 101 408 l 114 465 l 28 465 l 68 658 l 154 658 l 183 793 l 457 856 l 415 658 l 567 658 l 517 465 l 375 465 l 363 408 l 514 408 l 482 261 l 331 261 l 329 253 q 325 222 325 235 q 342 186 325 196 q 397 176 360 176 q 483 190 438 176 l 446 17 q 263 -14 367 -14 z "},"ť":{"ha":726,"x_min":28,"x_max":876,"o":"m 664 1088 l 876 1088 l 731 775 l 551 775 l 664 1088 m 263 -14 q 108 33 161 -14 q 56 164 56 79 q 64 233 56 196 l 114 465 l 28 465 l 68 658 l 154 658 l 183 793 l 457 856 l 415 658 l 567 658 l 517 465 l 375 465 l 329 253 q 325 222 325 235 q 342 186 325 196 q 397 176 360 176 q 483 190 438 176 l 446 17 q 263 -14 367 -14 z "},"ţ":{"ha":538,"x_min":28,"x_max":567,"o":"m 181 -333 q 119 -330 156 -333 q 69 -322 83 -326 l 92 -219 q 171 -231 129 -231 q 256 -218 231 -231 q 282 -172 282 -206 q 265 -147 282 -153 q 215 -140 249 -140 l 128 -140 l 193 -7 q 90 51 125 7 q 56 164 56 94 q 64 233 56 196 l 114 465 l 28 465 l 68 658 l 154 658 l 183 793 l 457 856 l 415 658 l 567 658 l 517 465 l 375 465 l 329 253 q 325 222 325 235 q 342 186 325 196 q 397 176 360 176 q 483 190 438 176 l 446 17 q 333 -10 396 -4 l 307 -57 q 406 -83 374 -57 q 439 -154 439 -108 q 435 -187 439 -171 q 356 -295 419 -257 q 181 -333 292 -333 z "},"ț":{"ha":528,"x_min":19,"x_max":567,"o":"m 263 -14 q 108 33 161 -14 q 56 164 56 79 q 64 233 56 196 l 114 465 l 28 465 l 68 658 l 154 658 l 183 793 l 457 856 l 415 658 l 567 658 l 517 465 l 375 465 l 329 253 q 325 222 325 235 q 342 186 325 196 q 397 176 360 176 q 483 190 438 176 l 446 17 q 263 -14 367 -14 m 132 -58 l 344 -58 l 199 -371 l 19 -371 l 132 -58 z "},"ẗ":{"ha":528,"x_min":28,"x_max":650,"o":"m 169 1060 l 350 1060 l 314 893 l 133 893 l 169 1060 m 468 1060 l 650 1060 l 614 893 l 432 893 l 468 1060 m 263 -14 q 108 33 161 -14 q 56 164 56 79 q 64 233 56 196 l 114 465 l 28 465 l 68 658 l 154 658 l 183 793 l 457 856 l 415 658 l 567 658 l 517 465 l 375 465 l 329 253 q 325 222 325 235 q 342 186 325 196 q 397 176 360 176 q 483 190 438 176 l 446 17 q 263 -14 367 -14 z "},"ṭ":{"ha":528,"x_min":28,"x_max":567,"o":"m 263 -14 q 108 33 161 -14 q 56 164 56 79 q 64 233 56 196 l 114 465 l 28 465 l 68 658 l 154 658 l 183 793 l 457 856 l 415 658 l 567 658 l 517 465 l 375 465 l 329 253 q 325 222 325 235 q 342 186 325 196 q 397 176 360 176 q 483 190 438 176 l 446 17 q 263 -14 367 -14 m 97 -78 l 278 -78 l 243 -244 l 63 -244 l 97 -78 z "},"ṯ":{"ha":528,"x_min":-99,"x_max":567,"o":"m 263 -14 q 108 33 161 -14 q 56 164 56 79 q 64 233 56 196 l 114 465 l 28 465 l 68 658 l 154 658 l 183 793 l 457 856 l 415 658 l 567 658 l 517 465 l 375 465 l 329 253 q 325 222 325 235 q 342 186 325 196 q 397 176 360 176 q 483 190 438 176 l 446 17 q 263 -14 367 -14 m -65 -89 l 389 -89 l 356 -244 l -99 -244 l -65 -89 z "},"u":{"ha":839,"x_min":21,"x_max":838,"o":"m 219 -14 q 74 33 126 -14 q 21 169 21 81 q 29 243 21 204 l 117 658 l 378 658 l 294 264 q 292 236 292 254 q 364 178 292 178 q 428 192 394 178 q 485 226 461 206 l 576 658 l 838 658 l 699 0 l 454 0 l 457 50 q 219 -14 353 -14 z "},"ú":{"ha":839,"x_min":21,"x_max":838,"o":"m 554 1011 l 757 1011 l 563 725 l 371 725 l 554 1011 m 219 -14 q 74 33 126 -14 q 21 169 21 81 q 29 243 21 204 l 117 658 l 378 658 l 294 264 q 292 236 292 254 q 364 178 292 178 q 428 192 394 178 q 485 226 461 206 l 576 658 l 838 658 l 699 0 l 454 0 l 457 50 q 219 -14 353 -14 z "},"ŭ":{"ha":839,"x_min":21,"x_max":838,"o":"m 493 725 q 336 774 393 725 q 279 913 279 822 q 288 985 279 947 l 449 985 q 443 940 443 951 q 517 868 443 868 q 636 985 613 868 l 813 985 q 700 793 786 861 q 493 725 614 725 m 219 -14 q 74 33 126 -14 q 21 169 21 81 q 29 243 21 204 l 117 658 l 378 658 l 294 264 q 292 236 292 254 q 364 178 292 178 q 428 192 394 178 q 485 226 461 206 l 576 658 l 838 658 l 699 0 l 454 0 l 457 50 q 219 -14 353 -14 z "},"ǔ":{"ha":839,"x_min":21,"x_max":849,"o":"m 261 1003 l 447 1003 l 515 851 l 653 1003 l 849 1003 l 575 725 l 417 725 l 261 1003 m 219 -14 q 74 33 126 -14 q 21 169 21 81 q 29 243 21 204 l 117 658 l 378 658 l 294 264 q 292 236 292 254 q 364 178 292 178 q 428 192 394 178 q 485 226 461 206 l 576 658 l 838 658 l 699 0 l 454 0 l 457 50 q 219 -14 353 -14 z "},"û":{"ha":839,"x_min":21,"x_max":838,"o":"m 469 1003 l 628 1003 l 785 725 l 603 725 l 528 875 l 399 725 l 197 725 l 469 1003 m 219 -14 q 74 33 126 -14 q 21 169 21 81 q 29 243 21 204 l 117 658 l 378 658 l 294 264 q 292 236 292 254 q 364 178 292 178 q 428 192 394 178 q 485 226 461 206 l 576 658 l 838 658 l 699 0 l 454 0 l 457 50 q 219 -14 353 -14 z "},"ü":{"ha":839,"x_min":21,"x_max":838,"o":"m 297 929 l 478 929 l 442 763 l 261 763 l 297 929 m 596 929 l 778 929 l 742 763 l 560 763 l 596 929 m 219 -14 q 74 33 126 -14 q 21 169 21 81 q 29 243 21 204 l 117 658 l 378 658 l 294 264 q 292 236 292 254 q 364 178 292 178 q 428 192 394 178 q 485 226 461 206 l 576 658 l 838 658 l 699 0 l 454 0 l 457 50 q 219 -14 353 -14 z "},"ǘ":{"ha":839,"x_min":21,"x_max":838,"o":"m 554 1133 l 749 1133 l 611 943 l 435 943 l 554 1133 m 283 907 l 460 907 l 426 750 l 250 750 l 283 907 m 582 907 l 758 907 l 725 750 l 549 750 l 582 907 m 219 -14 q 74 33 126 -14 q 21 169 21 81 q 29 243 21 204 l 117 658 l 378 658 l 294 264 q 292 236 292 254 q 364 178 292 178 q 428 192 394 178 q 485 226 461 206 l 576 658 l 838 658 l 699 0 l 454 0 l 457 50 q 219 -14 353 -14 z "},"ǚ":{"ha":839,"x_min":21,"x_max":839,"o":"m 311 1106 l 499 1106 l 551 1004 l 647 1106 l 839 1106 l 626 921 l 447 921 l 311 1106 m 289 888 l 465 888 l 432 731 l 256 731 l 289 888 m 588 888 l 763 888 l 729 731 l 554 731 l 588 888 m 219 -14 q 74 33 126 -14 q 21 169 21 81 q 29 243 21 204 l 117 658 l 378 658 l 294 264 q 292 236 292 254 q 364 178 292 178 q 428 192 394 178 q 485 226 461 206 l 576 658 l 838 658 l 699 0 l 454 0 l 457 50 q 219 -14 353 -14 z "},"ǜ":{"ha":839,"x_min":21,"x_max":838,"o":"m 397 1133 l 592 1133 l 631 943 l 454 943 l 397 1133 m 293 907 l 469 907 l 436 750 l 260 750 l 293 907 m 592 907 l 768 907 l 735 750 l 558 750 l 592 907 m 219 -14 q 74 33 126 -14 q 21 169 21 81 q 29 243 21 204 l 117 658 l 378 658 l 294 264 q 292 236 292 254 q 364 178 292 178 q 428 192 394 178 q 485 226 461 206 l 576 658 l 838 658 l 699 0 l 454 0 l 457 50 q 219 -14 353 -14 z "},"ǖ":{"ha":839,"x_min":21,"x_max":838,"o":"m 354 1144 l 808 1144 l 775 989 l 321 989 l 354 1144 m 292 908 l 472 908 l 436 742 l 256 742 l 292 908 m 590 908 l 772 908 l 736 742 l 554 742 l 590 908 m 219 -14 q 74 33 126 -14 q 21 169 21 81 q 29 243 21 204 l 117 658 l 378 658 l 294 264 q 292 236 292 254 q 364 178 292 178 q 428 192 394 178 q 485 226 461 206 l 576 658 l 838 658 l 699 0 l 454 0 l 457 50 q 219 -14 353 -14 z "},"ụ":{"ha":839,"x_min":21,"x_max":838,"o":"m 219 -14 q 74 33 126 -14 q 21 169 21 81 q 29 243 21 204 l 117 658 l 378 658 l 294 264 q 292 236 292 254 q 364 178 292 178 q 428 192 394 178 q 485 226 461 206 l 576 658 l 838 658 l 699 0 l 454 0 l 457 50 q 219 -14 353 -14 m 229 -78 l 410 -78 l 375 -244 l 194 -244 l 229 -78 z "},"ù":{"ha":839,"x_min":21,"x_max":838,"o":"m 349 1011 l 553 1011 l 614 725 l 422 725 l 349 1011 m 219 -14 q 74 33 126 -14 q 21 169 21 81 q 29 243 21 204 l 117 658 l 378 658 l 294 264 q 292 236 292 254 q 364 178 292 178 q 428 192 394 178 q 485 226 461 206 l 576 658 l 838 658 l 699 0 l 454 0 l 457 50 q 219 -14 353 -14 z "},"ủ":{"ha":839,"x_min":21,"x_max":838,"o":"m 419 838 q 519 856 489 842 q 554 899 549 871 q 481 944 564 944 q 396 933 443 944 l 419 1042 q 583 1061 485 1061 q 708 1031 665 1061 q 751 950 751 1001 q 749 921 751 931 q 701 831 736 863 q 603 782 667 800 l 590 725 l 394 725 l 419 838 m 219 -14 q 74 33 126 -14 q 21 169 21 81 q 29 243 21 204 l 117 658 l 378 658 l 294 264 q 292 236 292 254 q 364 178 292 178 q 428 192 394 178 q 485 226 461 206 l 576 658 l 838 658 l 699 0 l 454 0 l 457 50 q 219 -14 353 -14 z "},"ư":{"ha":1054,"x_min":21,"x_max":1140,"o":"m 219 -14 q 74 33 126 -14 q 21 169 21 81 q 29 243 21 204 l 117 658 l 378 658 l 294 264 q 292 236 292 254 q 364 178 292 178 q 428 192 394 178 q 485 226 461 206 l 576 658 l 838 658 l 825 600 q 913 637 886 604 q 956 744 940 669 l 1140 744 q 1074 566 1117 633 q 963 467 1032 499 q 789 429 894 435 l 699 0 l 454 0 l 457 50 q 219 -14 353 -14 z "},"ứ":{"ha":1054,"x_min":21,"x_max":1140,"o":"m 558 1011 l 761 1011 l 567 725 l 375 725 l 558 1011 m 219 -14 q 74 33 126 -14 q 21 169 21 81 q 29 243 21 204 l 117 658 l 378 658 l 294 264 q 292 236 292 254 q 364 178 292 178 q 428 192 394 178 q 485 226 461 206 l 576 658 l 838 658 l 825 600 q 913 637 886 604 q 956 744 940 669 l 1140 744 q 1074 566 1117 633 q 963 467 1032 499 q 789 429 894 435 l 699 0 l 454 0 l 457 50 q 219 -14 353 -14 z "},"ự":{"ha":1054,"x_min":21,"x_max":1140,"o":"m 219 -14 q 74 33 126 -14 q 21 169 21 81 q 29 243 21 204 l 117 658 l 378 658 l 294 264 q 292 236 292 254 q 364 178 292 178 q 428 192 394 178 q 485 226 461 206 l 576 658 l 838 658 l 825 600 q 913 637 886 604 q 956 744 940 669 l 1140 744 q 1074 566 1117 633 q 963 467 1032 499 q 789 429 894 435 l 699 0 l 454 0 l 457 50 q 219 -14 353 -14 m 235 -78 l 415 -78 l 381 -244 l 200 -244 l 235 -78 z "},"ừ":{"ha":1054,"x_min":21,"x_max":1140,"o":"m 286 1011 l 490 1011 l 551 725 l 360 725 l 286 1011 m 219 -14 q 74 33 126 -14 q 21 169 21 81 q 29 243 21 204 l 117 658 l 378 658 l 294 264 q 292 236 292 254 q 364 178 292 178 q 428 192 394 178 q 485 226 461 206 l 576 658 l 838 658 l 825 600 q 913 637 886 604 q 956 744 940 669 l 1140 744 q 1074 566 1117 633 q 963 467 1032 499 q 789 429 894 435 l 699 0 l 454 0 l 457 50 q 219 -14 353 -14 z "},"ử":{"ha":1054,"x_min":21,"x_max":1140,"o":"m 375 836 q 474 855 444 840 q 510 897 504 869 q 436 943 519 943 q 351 932 399 943 l 375 1040 q 539 1060 440 1060 q 664 1030 621 1060 q 707 949 707 1000 q 704 919 707 929 q 657 830 692 861 q 558 781 622 799 l 546 724 l 350 724 l 375 836 m 219 -14 q 74 33 126 -14 q 21 169 21 81 q 29 243 21 204 l 117 658 l 378 658 l 294 264 q 292 236 292 254 q 364 178 292 178 q 428 192 394 178 q 485 226 461 206 l 576 658 l 838 658 l 825 600 q 913 637 886 604 q 956 744 940 669 l 1140 744 q 1074 566 1117 633 q 963 467 1032 499 q 789 429 894 435 l 699 0 l 454 0 l 457 50 q 219 -14 353 -14 z "},"ữ":{"ha":1054,"x_min":21,"x_max":1140,"o":"m 631 731 q 569 738 599 731 q 500 761 539 746 q 440 782 464 775 q 392 789 415 789 q 244 735 310 789 l 279 899 q 343 931 304 918 q 421 944 382 944 q 478 938 451 944 q 544 915 504 931 q 604 894 578 901 q 660 886 631 886 q 738 901 703 886 q 796 942 774 917 l 761 776 q 706 744 743 757 q 631 731 669 731 m 219 -14 q 74 33 126 -14 q 21 169 21 81 q 29 243 21 204 l 117 658 l 378 658 l 294 264 q 292 236 292 254 q 364 178 292 178 q 428 192 394 178 q 485 226 461 206 l 576 658 l 838 658 l 825 600 q 913 637 886 604 q 956 744 940 669 l 1140 744 q 1074 566 1117 633 q 963 467 1032 499 q 789 429 894 435 l 699 0 l 454 0 l 457 50 q 219 -14 353 -14 z "},"ű":{"ha":839,"x_min":21,"x_max":889,"o":"m 346 981 l 564 981 l 369 725 l 172 725 l 346 981 m 669 981 l 889 981 l 693 725 l 496 725 l 669 981 m 219 -14 q 74 33 126 -14 q 21 169 21 81 q 29 243 21 204 l 117 658 l 378 658 l 294 264 q 292 236 292 254 q 364 178 292 178 q 428 192 394 178 q 485 226 461 206 l 576 658 l 838 658 l 699 0 l 454 0 l 457 50 q 219 -14 353 -14 z "},"ū":{"ha":839,"x_min":21,"x_max":838,"o":"m 308 931 l 763 931 l 729 775 l 275 775 l 308 931 m 219 -14 q 74 33 126 -14 q 21 169 21 81 q 29 243 21 204 l 117 658 l 378 658 l 294 264 q 292 236 292 254 q 364 178 292 178 q 428 192 394 178 q 485 226 461 206 l 576 658 l 838 658 l 699 0 l 454 0 l 457 50 q 219 -14 353 -14 z "},"ų":{"ha":839,"x_min":21,"x_max":838,"o":"m 471 -306 q 356 -279 399 -306 q 313 -200 313 -253 q 315 -171 313 -182 q 364 -75 326 -119 q 454 0 401 -31 l 457 50 q 219 -14 353 -14 q 74 33 126 -14 q 21 169 21 81 q 29 243 21 204 l 117 658 l 378 658 l 294 264 q 292 236 292 254 q 364 178 292 178 q 428 192 394 178 q 485 226 461 206 l 576 658 l 838 658 l 699 0 l 628 0 q 522 -124 535 -60 q 519 -140 519 -135 q 532 -169 519 -158 q 568 -179 544 -179 q 607 -175 586 -179 q 640 -164 628 -171 l 615 -283 q 551 -299 590 -293 q 471 -306 511 -306 z "},"ů":{"ha":839,"x_min":21,"x_max":838,"o":"m 490 725 q 374 763 415 725 q 332 864 332 801 q 338 907 332 876 q 416 1039 356 988 q 568 1090 476 1090 q 686 1052 644 1090 q 728 951 728 1014 q 722 907 728 938 q 644 776 704 826 q 490 725 583 725 m 513 832 q 583 860 556 832 q 610 928 610 888 q 594 967 610 953 q 544 982 578 982 q 475 953 501 982 q 449 885 449 924 q 513 832 449 832 m 219 -14 q 74 33 126 -14 q 21 169 21 81 q 29 243 21 204 l 117 658 l 378 658 l 294 264 q 292 236 292 254 q 364 178 292 178 q 428 192 394 178 q 485 226 461 206 l 576 658 l 838 658 l 699 0 l 454 0 l 457 50 q 219 -14 353 -14 z "},"ũ":{"ha":839,"x_min":21,"x_max":838,"o":"m 631 736 q 569 744 599 736 q 500 767 539 751 q 440 788 464 781 q 392 794 415 794 q 244 740 310 794 l 279 904 q 343 937 304 924 q 421 950 382 950 q 478 943 451 950 q 544 921 504 936 q 604 899 578 907 q 660 892 631 892 q 738 907 703 892 q 796 947 774 922 l 761 782 q 706 749 743 763 q 631 736 669 736 m 219 -14 q 74 33 126 -14 q 21 169 21 81 q 29 243 21 204 l 117 658 l 378 658 l 294 264 q 292 236 292 254 q 364 178 292 178 q 428 192 394 178 q 485 226 461 206 l 576 658 l 838 658 l 699 0 l 454 0 l 457 50 q 219 -14 353 -14 z "},"v":{"ha":864,"x_min":96,"x_max":890,"o":"m 96 658 l 361 658 l 404 272 l 611 658 l 890 658 l 492 0 l 217 0 l 96 658 z "},"w":{"ha":1088,"x_min":96,"x_max":1114,"o":"m 96 658 l 349 658 l 357 332 l 483 564 l 503 658 l 694 658 l 717 332 l 861 658 l 1114 658 l 801 0 l 575 0 l 538 299 l 375 0 l 131 0 l 96 658 z "},"ẃ":{"ha":1088,"x_min":96,"x_max":1114,"o":"m 696 1011 l 899 1011 l 704 725 l 513 725 l 696 1011 m 96 658 l 349 658 l 357 332 l 483 564 l 503 658 l 694 658 l 717 332 l 861 658 l 1114 658 l 801 0 l 575 0 l 538 299 l 375 0 l 131 0 l 96 658 z "},"ŵ":{"ha":1088,"x_min":96,"x_max":1114,"o":"m 600 1003 l 758 1003 l 915 725 l 733 725 l 658 875 l 529 725 l 328 725 l 600 1003 m 96 658 l 349 658 l 357 332 l 483 564 l 503 658 l 694 658 l 717 332 l 861 658 l 1114 658 l 801 0 l 575 0 l 538 299 l 375 0 l 131 0 l 96 658 z "},"ẅ":{"ha":1088,"x_min":96,"x_max":1114,"o":"m 426 929 l 607 929 l 571 763 l 390 763 l 426 929 m 725 929 l 907 929 l 871 763 l 689 763 l 725 929 m 96 658 l 349 658 l 357 332 l 483 564 l 503 658 l 694 658 l 717 332 l 861 658 l 1114 658 l 801 0 l 575 0 l 538 299 l 375 0 l 131 0 l 96 658 z "},"ẁ":{"ha":1088,"x_min":96,"x_max":1114,"o":"m 439 1011 l 643 1011 l 704 725 l 513 725 l 439 1011 m 96 658 l 349 658 l 357 332 l 483 564 l 503 658 l 694 658 l 717 332 l 861 658 l 1114 658 l 801 0 l 575 0 l 538 299 l 375 0 l 131 0 l 96 658 z "},"x":{"ha":863,"x_min":-43,"x_max":878,"o":"m 282 335 l 106 658 l 389 658 l 463 519 l 596 658 l 878 658 l 567 335 l 750 0 l 464 0 l 383 147 l 242 0 l -43 0 l 282 335 z "},"y":{"ha":839,"x_min":6,"x_max":838,"o":"m 192 -244 q 94 -240 156 -244 q 6 -231 32 -236 l 46 -44 q 115 -57 72 -51 q 190 -62 158 -62 q 373 -43 310 -62 q 446 22 436 -24 l 451 50 q 219 -14 347 -14 q 76 38 129 -14 q 22 179 22 90 q 29 243 22 206 l 117 658 l 378 658 l 294 264 q 290 226 290 243 q 307 188 290 199 q 364 178 324 178 q 428 192 394 178 q 485 226 461 206 l 576 658 l 838 658 l 717 88 q 562 -160 682 -75 q 192 -244 442 -244 z "},"ý":{"ha":839,"x_min":6,"x_max":838,"o":"m 618 1011 l 821 1011 l 626 725 l 435 725 l 618 1011 m 192 -244 q 94 -240 156 -244 q 6 -231 32 -236 l 46 -44 q 115 -57 72 -51 q 190 -62 158 -62 q 373 -43 310 -62 q 446 22 436 -24 l 451 50 q 219 -14 347 -14 q 76 38 129 -14 q 22 179 22 90 q 29 243 22 206 l 117 658 l 378 658 l 294 264 q 290 226 290 243 q 307 188 290 199 q 364 178 324 178 q 428 192 394 178 q 485 226 461 206 l 576 658 l 838 658 l 717 88 q 562 -160 682 -75 q 192 -244 442 -244 z "},"ŷ":{"ha":839,"x_min":6,"x_max":838,"o":"m 517 1003 l 675 1003 l 832 725 l 650 725 l 575 875 l 446 725 l 244 725 l 517 1003 m 192 -244 q 94 -240 156 -244 q 6 -231 32 -236 l 46 -44 q 115 -57 72 -51 q 190 -62 158 -62 q 373 -43 310 -62 q 446 22 436 -24 l 451 50 q 219 -14 347 -14 q 76 38 129 -14 q 22 179 22 90 q 29 243 22 206 l 117 658 l 378 658 l 294 264 q 290 226 290 243 q 307 188 290 199 q 364 178 324 178 q 428 192 394 178 q 485 226 461 206 l 576 658 l 838 658 l 717 88 q 562 -160 682 -75 q 192 -244 442 -244 z "},"ÿ":{"ha":839,"x_min":6,"x_max":838,"o":"m 293 958 l 474 958 l 438 792 l 257 792 l 293 958 m 592 958 l 774 958 l 738 792 l 556 792 l 592 958 m 192 -244 q 94 -240 156 -244 q 6 -231 32 -236 l 46 -44 q 115 -57 72 -51 q 190 -62 158 -62 q 373 -43 310 -62 q 446 22 436 -24 l 451 50 q 219 -14 347 -14 q 76 38 129 -14 q 22 179 22 90 q 29 243 22 206 l 117 658 l 378 658 l 294 264 q 290 226 290 243 q 307 188 290 199 q 364 178 324 178 q 428 192 394 178 q 485 226 461 206 l 576 658 l 838 658 l 717 88 q 562 -160 682 -75 q 192 -244 442 -244 z "},"ẏ":{"ha":839,"x_min":6,"x_max":838,"o":"m 436 929 l 617 929 l 581 763 l 400 763 l 436 929 m 192 -244 q 94 -240 156 -244 q 6 -231 32 -236 l 46 -44 q 115 -57 72 -51 q 190 -62 158 -62 q 373 -43 310 -62 q 446 22 436 -24 l 451 50 q 219 -14 347 -14 q 76 38 129 -14 q 22 179 22 90 q 29 243 22 206 l 117 658 l 378 658 l 294 264 q 290 226 290 243 q 307 188 290 199 q 364 178 324 178 q 428 192 394 178 q 485 226 461 206 l 576 658 l 838 658 l 717 88 q 562 -160 682 -75 q 192 -244 442 -244 z "},"ỵ":{"ha":839,"x_min":6,"x_max":854,"o":"m 192 -244 q 94 -240 156 -244 q 6 -231 32 -236 l 46 -44 q 115 -57 72 -51 q 190 -62 158 -62 q 373 -43 310 -62 q 446 22 436 -24 l 451 50 q 219 -14 347 -14 q 76 38 129 -14 q 22 179 22 90 q 29 243 22 206 l 117 658 l 378 658 l 294 264 q 290 226 290 243 q 307 188 290 199 q 364 178 324 178 q 428 192 394 178 q 485 226 461 206 l 576 658 l 838 658 l 717 88 q 562 -160 682 -75 q 192 -244 442 -244 m 674 -78 l 854 -78 l 819 -244 l 639 -244 l 674 -78 z "},"ỳ":{"ha":839,"x_min":6,"x_max":838,"o":"m 364 1011 l 568 1011 l 629 725 l 438 725 l 364 1011 m 192 -244 q 94 -240 156 -244 q 6 -231 32 -236 l 46 -44 q 115 -57 72 -51 q 190 -62 158 -62 q 373 -43 310 -62 q 446 22 436 -24 l 451 50 q 219 -14 347 -14 q 76 38 129 -14 q 22 179 22 90 q 29 243 22 206 l 117 658 l 378 658 l 294 264 q 290 226 290 243 q 307 188 290 199 q 364 178 324 178 q 428 192 394 178 q 485 226 461 206 l 576 658 l 838 658 l 717 88 q 562 -160 682 -75 q 192 -244 442 -244 z "},"ỷ":{"ha":839,"x_min":6,"x_max":838,"o":"m 422 838 q 522 856 492 842 q 557 899 551 871 q 483 944 567 944 q 399 933 446 944 l 422 1042 q 586 1061 488 1061 q 711 1031 668 1061 q 754 950 754 1001 q 751 921 754 931 q 704 831 739 863 q 606 782 669 800 l 593 725 l 397 725 l 422 838 m 192 -244 q 94 -240 156 -244 q 6 -231 32 -236 l 46 -44 q 115 -57 72 -51 q 190 -62 158 -62 q 373 -43 310 -62 q 446 22 436 -24 l 451 50 q 219 -14 347 -14 q 76 38 129 -14 q 22 179 22 90 q 29 243 22 206 l 117 658 l 378 658 l 294 264 q 290 226 290 243 q 307 188 290 199 q 364 178 324 178 q 428 192 394 178 q 485 226 461 206 l 576 658 l 838 658 l 717 88 q 562 -160 682 -75 q 192 -244 442 -244 z "},"ỹ":{"ha":839,"x_min":6,"x_max":838,"o":"m 635 736 q 573 744 603 736 q 504 767 543 751 q 444 788 468 781 q 396 794 419 794 q 249 740 314 794 l 283 904 q 347 937 308 924 q 425 950 386 950 q 482 943 456 950 q 549 921 508 936 q 608 899 582 907 q 664 892 635 892 q 742 907 707 892 q 800 947 778 922 l 765 782 q 710 749 747 763 q 635 736 674 736 m 192 -244 q 94 -240 156 -244 q 6 -231 32 -236 l 46 -44 q 115 -57 72 -51 q 190 -62 158 -62 q 373 -43 310 -62 q 446 22 436 -24 l 451 50 q 219 -14 347 -14 q 76 38 129 -14 q 22 179 22 90 q 29 243 22 206 l 117 658 l 378 658 l 294 264 q 290 226 290 243 q 307 188 290 199 q 364 178 324 178 q 428 192 394 178 q 485 226 461 206 l 576 658 l 838 658 l 717 88 q 562 -160 682 -75 q 192 -244 442 -244 z "},"z":{"ha":688,"x_min":-43,"x_max":704,"o":"m -14 143 l 331 458 l 64 458 l 106 658 l 704 658 l 674 511 l 339 200 l 617 200 l 575 0 l -43 0 l -14 143 z "},"ź":{"ha":688,"x_min":-43,"x_max":704,"o":"m 490 1011 l 693 1011 l 499 725 l 307 725 l 490 1011 m -14 143 l 331 458 l 64 458 l 106 658 l 704 658 l 674 511 l 339 200 l 617 200 l 575 0 l -43 0 l -14 143 z "},"ž":{"ha":688,"x_min":-43,"x_max":761,"o":"m 174 1003 l 360 1003 l 428 851 l 565 1003 l 761 1003 l 488 725 l 329 725 l 174 1003 m -14 143 l 331 458 l 64 458 l 106 658 l 704 658 l 674 511 l 339 200 l 617 200 l 575 0 l -43 0 l -14 143 z "},"ż":{"ha":688,"x_min":-43,"x_max":704,"o":"m 375 929 l 556 929 l 519 763 l 339 763 l 375 929 m -14 143 l 331 458 l 64 458 l 106 658 l 704 658 l 674 511 l 339 200 l 617 200 l 575 0 l -43 0 l -14 143 z "},"ẓ":{"ha":688,"x_min":-43,"x_max":704,"o":"m -14 143 l 331 458 l 64 458 l 106 658 l 704 658 l 674 511 l 339 200 l 617 200 l 575 0 l -43 0 l -14 143 m 144 -78 l 325 -78 l 290 -244 l 110 -244 l 144 -78 z "},"ﬁ":{"ha":807,"x_min":14,"x_max":806,"o":"m 113 465 l 28 465 l 68 658 l 153 658 l 161 697 q 281 893 189 825 q 521 961 372 961 q 708 932 640 961 l 671 756 q 628 767 657 763 q 575 772 600 772 q 468 751 507 772 q 421 692 429 731 l 414 658 l 806 658 l 667 0 l 406 0 l 504 465 l 374 465 l 275 0 l 14 0 l 113 465 z "},"ﬂ":{"ha":807,"x_min":14,"x_max":864,"o":"m 113 465 l 28 465 l 68 658 l 153 658 l 161 697 q 274 891 188 824 q 493 958 360 958 q 672 932 576 958 l 864 932 l 667 0 l 406 0 l 504 465 l 374 465 l 275 0 l 14 0 l 113 465 m 547 658 l 569 760 q 510 769 543 769 q 449 750 469 769 q 419 692 428 731 l 413 658 l 547 658 z "},"ª":{"ha":463,"x_min":90,"x_max":515,"o":"m 197 528 q 121 550 151 528 q 90 617 90 572 q 93 644 90 625 q 274 768 118 768 l 368 768 l 369 774 q 371 785 371 778 q 355 805 371 799 q 300 811 339 811 q 171 792 238 811 l 189 882 q 265 901 221 893 q 351 908 310 908 q 472 878 428 908 q 515 793 515 849 q 511 760 515 779 l 464 536 l 332 536 l 331 564 q 197 528 278 528 m 269 615 q 342 646 313 615 l 351 686 l 293 686 q 251 678 265 686 q 232 650 236 671 q 231 639 231 646 q 240 621 231 626 q 269 615 249 615 z "},"º":{"ha":499,"x_min":103,"x_max":544,"o":"m 282 528 q 149 563 194 528 q 103 665 103 597 q 108 718 103 692 q 191 861 129 814 q 364 908 253 908 q 498 874 451 908 q 544 771 544 839 q 538 718 544 750 q 456 575 518 622 q 282 528 393 528 m 306 636 q 357 655 339 636 q 385 718 375 674 q 390 756 390 749 q 378 788 390 778 q 340 799 367 799 q 288 780 307 799 q 260 718 269 761 q 256 681 256 697 q 267 647 256 657 q 306 636 279 636 z "},"ⁿ":{"ha":482,"x_min":78,"x_max":538,"o":"m 154 900 l 293 900 l 290 874 q 433 907 354 907 q 510 881 482 907 q 538 810 538 854 q 533 772 538 792 l 483 536 l 336 536 l 381 751 q 383 769 383 765 q 374 790 383 783 q 344 796 365 796 q 308 789 329 796 q 274 771 288 782 l 225 536 l 78 536 l 154 900 z "},"Δ":{"ha":883,"x_min":-43,"x_max":799,"o":"m -14 138 l 444 894 l 658 894 l 799 136 l 771 0 l -43 0 l -14 138 m 574 199 l 500 594 l 258 199 l 574 199 z "},"Ω":{"ha":1040,"x_min":-33,"x_max":1047,"o":"m 8 200 l 147 200 q 53 410 53 279 q 65 511 53 457 q 260 844 111 724 q 646 965 408 965 q 863 922 772 965 q 1000 801 953 879 q 1047 618 1047 724 q 1036 511 1047 561 q 962 328 1014 404 q 819 200 910 253 l 960 200 l 918 0 l 489 0 l 532 208 q 689 330 633 261 q 765 496 744 399 q 775 583 775 540 q 599 743 775 743 q 421 678 489 743 q 328 496 353 613 q 318 415 318 456 q 347 299 318 350 q 438 208 376 249 l 394 0 l -33 0 l 8 200 z "},"μ":{"ha":846,"x_min":-58,"x_max":844,"o":"m 124 658 l 385 658 l 301 264 q 297 233 297 247 q 315 191 297 204 q 371 178 332 178 q 435 192 401 178 q 492 226 468 206 l 583 658 l 844 658 l 706 0 l 461 0 l 464 50 q 290 -14 383 -14 q 244 -4 264 -14 l 203 -199 l -58 -199 l 124 658 z "},"π":{"ha":960,"x_min":28,"x_max":918,"o":"m 688 -14 q 534 39 588 -14 q 481 186 481 92 q 490 271 481 228 l 531 458 l 386 458 l 289 0 l 28 0 l 125 458 l 40 458 l 82 658 l 918 658 l 876 458 l 792 458 l 754 285 q 751 257 751 274 q 768 219 751 229 q 822 208 785 208 q 908 222 863 208 l 864 17 q 688 -14 783 -14 z "},"ก":{"ha":878,"x_min":-19,"x_max":842,"o":"m 31 236 q 78 339 43 294 q 168 401 113 383 l 50 440 l 92 638 q 283 728 176 692 q 507 764 390 764 q 758 703 674 764 q 842 529 842 643 q 833 451 842 493 l 738 0 l 476 0 l 569 443 q 576 494 576 475 q 548 556 576 538 q 451 574 519 574 q 365 562 407 574 q 292 531 324 550 l 289 519 l 425 474 l 399 351 q 327 311 353 339 q 290 232 301 283 l 242 0 l -19 0 l 31 236 z "},"ถ":{"ha":878,"x_min":7,"x_max":842,"o":"m 126 0 q 37 28 67 0 q 7 104 7 56 q 11 146 7 125 l 31 236 q 78 339 43 294 q 168 401 113 383 l 50 440 l 92 638 q 283 728 176 692 q 507 764 390 764 q 757 701 672 764 q 842 525 842 638 q 833 451 842 492 l 738 0 l 476 0 l 569 443 q 576 492 576 474 q 547 554 576 535 q 451 574 517 574 q 365 562 407 574 q 292 531 324 550 l 289 519 l 425 474 l 399 351 q 327 315 351 339 q 294 249 303 292 l 286 213 q 285 194 285 206 q 292 176 285 182 q 319 169 300 169 l 376 169 l 342 0 l 126 0 z "},"ภ":{"ha":919,"x_min":-43,"x_max":883,"o":"m -8 169 l 28 169 q 63 180 50 169 q 79 213 75 190 l 88 249 q 126 344 99 306 q 210 401 154 382 l 92 440 l 133 638 q 325 728 218 692 q 549 764 432 764 q 799 699 715 764 q 883 524 883 635 q 875 451 883 489 l 779 0 l 518 0 l 611 443 q 618 496 618 478 q 590 556 618 538 q 493 574 561 574 q 407 562 449 574 q 333 531 365 550 l 331 519 l 467 474 l 440 351 q 381 315 399 339 q 351 242 363 292 l 336 165 q 267 42 319 85 q 135 0 215 0 l -43 0 l -8 169 z "},"ฤ":{"ha":878,"x_min":7,"x_max":843,"o":"m 569 443 q 576 496 576 478 q 547 557 576 540 q 451 574 518 574 q 365 562 407 574 q 292 531 324 550 l 289 519 l 425 474 l 399 351 q 327 315 351 339 q 294 249 303 292 l 286 213 q 283 193 283 199 q 292 175 283 181 q 319 169 301 169 l 376 169 l 342 0 l 126 0 q 38 30 69 0 q 7 110 7 60 q 11 146 7 128 l 31 236 q 78 339 43 294 q 168 401 113 383 l 50 440 l 92 638 q 283 728 176 692 q 507 764 390 764 q 760 703 678 764 q 843 531 843 642 q 833 451 843 500 l 689 -222 l 428 -222 l 569 443 z "},"ฦ":{"ha":919,"x_min":-43,"x_max":883,"o":"m 611 443 q 618 493 618 475 q 590 555 618 536 q 493 574 561 574 q 407 562 449 574 q 333 531 365 550 l 331 519 l 467 474 l 440 351 q 381 315 399 339 q 351 242 363 292 l 336 165 q 267 42 318 83 q 135 0 215 0 l -43 0 l -8 169 l 28 169 q 63 180 50 169 q 79 213 75 190 l 88 249 q 126 344 99 306 q 210 401 154 382 l 92 440 l 133 638 q 325 728 218 692 q 549 764 432 764 q 798 703 713 764 q 883 528 883 642 q 875 451 883 492 l 731 -222 l 469 -222 l 611 443 z "},"ฎ":{"ha":919,"x_min":-43,"x_max":883,"o":"m 111 -83 q 354 -39 224 -39 q 440 -46 396 -39 q 504 -64 483 -53 l 611 443 q 618 493 618 474 q 590 555 618 536 q 493 574 561 574 q 407 562 449 574 q 333 531 365 550 l 331 519 l 467 474 l 440 351 q 380 314 399 338 q 351 242 361 290 l 336 165 q 268 38 318 76 q 135 0 218 0 l -43 0 l -8 169 l 28 169 q 62 180 50 169 q 79 213 74 190 l 88 249 q 128 344 101 307 q 210 401 156 382 l 92 440 l 133 638 q 325 728 218 692 q 549 764 432 764 q 798 701 713 764 q 883 524 883 638 q 875 451 883 489 l 721 -269 l 482 -269 q 402 -239 446 -249 q 296 -229 358 -229 q 180 -242 242 -229 q 69 -276 118 -256 l 111 -83 z "},"ฏ":{"ha":919,"x_min":-43,"x_max":883,"o":"m 476 -275 q 365 -258 413 -275 q 293 -211 318 -240 q 136 -269 238 -269 l 8 -269 l 61 -82 l 142 -82 q 197 -70 176 -82 q 233 -31 217 -58 l 390 -31 q 403 -71 392 -57 q 442 -85 415 -85 q 488 -69 469 -85 q 511 -28 506 -54 l 611 443 q 618 496 618 478 q 590 557 618 540 q 493 574 561 574 q 407 562 449 574 q 333 531 365 550 l 331 519 l 467 474 l 440 351 q 380 314 399 338 q 351 242 361 290 l 336 165 q 135 0 303 0 l -43 0 l -8 169 l 28 169 q 62 180 50 169 q 79 213 74 190 l 88 249 q 128 344 101 307 q 210 401 156 382 l 92 440 l 133 638 q 325 728 218 692 q 549 764 432 764 q 798 701 713 764 q 883 525 883 638 q 875 451 883 489 l 771 -35 q 670 -209 749 -143 q 476 -275 592 -275 z "},"ญ":{"ha":1347,"x_min":7,"x_max":1365,"o":"m 840 -112 q 663 -94 751 -112 q 524 -47 575 -76 l 561 128 q 691 79 610 97 q 850 61 772 61 q 983 75 944 61 q 1028 117 1022 89 q 1031 132 1031 128 q 1028 143 1031 138 q 858 125 956 125 q 624 181 708 125 q 539 354 539 236 q 549 436 539 385 l 550 443 q 556 489 556 465 q 528 553 556 533 q 442 574 500 574 q 292 531 361 574 l 289 519 l 425 474 l 399 351 q 327 315 351 339 q 294 249 303 292 l 286 213 q 283 194 283 199 q 292 175 283 181 q 319 169 301 169 l 376 169 l 342 0 l 126 0 q 38 30 69 0 q 7 110 7 60 q 11 146 7 128 l 31 236 q 78 339 43 294 q 168 401 113 383 l 50 440 l 92 638 q 497 764 289 764 q 738 700 656 764 q 819 525 819 636 q 811 451 819 492 l 808 439 q 800 378 800 404 q 822 324 800 340 q 897 308 844 308 q 991 340 958 308 q 1039 440 1024 371 l 1104 750 l 1365 750 l 1304 458 q 1207 247 1274 322 q 1239 147 1239 208 q 1233 99 1239 132 q 1115 -60 1210 -8 q 840 -112 1021 -112 z "},"ข":{"ha":853,"x_min":28,"x_max":871,"o":"m 338 -14 q 176 15 246 -14 q 67 98 106 44 q 28 222 28 151 q 33 275 28 251 l 40 311 q 72 388 49 356 q 135 464 94 421 q 171 504 160 490 q 185 532 182 518 q 186 546 186 538 q 151 568 186 568 l 76 568 l 136 750 l 379 750 q 463 730 438 750 q 488 669 488 710 q 482 624 488 657 q 451 547 472 579 q 388 465 429 515 q 333 397 351 425 q 307 336 314 369 l 294 275 q 290 239 290 254 q 310 191 290 206 q 378 176 331 176 q 467 203 435 176 q 511 282 500 229 l 610 750 l 871 750 l 771 279 q 634 61 742 136 q 338 -14 526 -14 z "},"ฃ":{"ha":857,"x_min":28,"x_max":875,"o":"m 342 -14 q 178 13 249 -14 q 67 90 107 40 q 28 206 28 140 q 32 251 28 229 l 36 272 q 84 365 46 321 q 185 463 122 408 q 240 515 224 497 q 260 546 257 532 q 261 556 261 550 q 243 572 261 572 q 211 557 226 572 l 199 503 l 63 503 l 115 750 l 267 750 l 258 711 q 320 739 283 728 q 394 750 357 750 q 478 726 449 750 q 508 657 508 703 q 504 624 508 643 q 463 520 492 563 q 385 428 433 478 q 331 367 349 390 q 307 315 314 344 l 297 275 q 292 235 292 254 q 313 190 292 203 q 382 176 333 176 q 472 203 439 176 q 515 282 504 229 l 614 750 l 875 750 l 775 279 q 638 61 746 136 q 342 -14 531 -14 z "},"ช":{"ha":853,"x_min":26,"x_max":874,"o":"m 338 -14 q 111 47 196 -14 q 26 214 26 107 q 33 275 26 240 l 40 311 q 71 385 50 354 q 132 461 92 417 q 167 499 154 483 q 185 532 181 515 q 188 547 188 543 q 151 568 188 568 l 76 568 l 136 750 l 374 750 q 481 663 481 750 q 476 624 481 644 q 443 539 467 575 q 382 461 419 503 q 331 393 347 418 q 307 336 314 368 l 294 275 q 290 239 290 254 q 311 192 290 207 q 378 176 332 176 q 469 203 439 176 q 511 282 499 229 l 525 351 q 529 383 529 371 q 517 415 529 406 q 482 425 506 425 l 454 425 l 508 607 l 522 607 q 572 623 556 607 q 597 686 589 639 l 613 764 l 874 764 l 861 704 q 817 594 846 636 q 733 518 789 551 q 790 399 790 478 q 785 344 790 371 l 771 279 q 631 56 739 126 q 338 -14 522 -14 z "},"ซ":{"ha":857,"x_min":26,"x_max":878,"o":"m 342 -14 q 110 42 194 -14 q 26 200 26 99 q 32 251 26 228 l 36 272 q 83 367 46 324 q 186 467 121 410 q 239 514 221 496 q 260 546 257 532 q 261 556 261 550 q 243 572 261 572 q 211 557 226 572 l 199 503 l 63 503 l 115 750 l 267 750 l 258 711 q 320 739 283 728 q 394 750 357 750 q 475 725 447 750 q 503 656 503 700 q 499 624 503 640 q 458 522 486 564 q 383 431 429 479 q 331 367 349 393 q 306 310 313 342 l 299 275 q 294 238 294 254 q 315 190 294 204 q 382 176 336 176 q 515 282 492 176 l 529 351 q 533 381 533 368 q 482 425 533 425 l 458 425 l 513 607 l 525 607 q 576 624 560 607 q 603 693 593 642 l 617 764 l 878 764 l 865 704 q 822 588 850 632 q 738 518 793 544 q 794 399 794 478 q 789 344 794 371 l 775 279 q 638 62 746 138 q 342 -14 529 -14 z "},"ค":{"ha":890,"x_min":-15,"x_max":853,"o":"m 79 444 q 218 686 114 608 q 529 764 322 764 q 769 697 685 764 q 853 517 853 631 q 844 444 853 482 l 750 0 l 489 0 l 585 451 q 590 496 590 474 q 566 554 590 535 q 489 574 542 574 q 387 544 419 574 q 342 451 354 514 l 324 368 q 374 388 344 381 q 432 394 403 394 l 504 394 l 468 190 l 386 190 q 281 168 325 190 l 246 0 l -15 0 l 79 444 z "},"ฅ":{"ha":890,"x_min":-15,"x_max":874,"o":"m 99 540 q 183 709 124 654 q 349 764 242 764 q 440 747 399 764 q 508 693 482 729 q 600 747 546 729 q 707 764 654 764 q 833 728 793 764 q 874 619 874 692 q 864 540 874 592 l 750 0 l 489 0 l 597 513 q 601 543 601 532 q 594 567 601 560 q 569 574 588 574 q 513 536 532 574 l 450 536 q 410 574 443 574 q 374 559 386 574 q 354 513 361 544 l 324 368 q 374 388 344 381 q 432 394 403 394 l 504 394 l 468 190 l 386 190 q 281 168 325 190 l 246 0 l -15 0 l 99 540 z "},"ศ":{"ha":921,"x_min":-15,"x_max":981,"o":"m 79 444 q 218 686 114 608 q 529 764 322 764 q 654 750 592 764 l 981 750 l 928 560 l 838 560 q 850 496 850 535 q 844 444 850 478 l 750 0 l 489 0 l 585 451 q 590 496 590 474 q 566 554 590 535 q 489 574 542 574 q 387 544 419 574 q 342 451 354 514 l 324 368 q 374 388 344 381 q 432 394 403 394 l 504 394 l 468 190 l 386 190 q 281 168 325 190 l 246 0 l -15 0 l 79 444 z "},"ด":{"ha":917,"x_min":19,"x_max":879,"o":"m 278 -14 q 89 49 158 -14 q 19 239 19 111 q 31 350 19 296 q 194 660 71 557 q 540 764 317 764 q 795 696 711 764 q 879 519 879 628 q 872 456 879 493 l 776 0 l 515 0 l 607 432 q 615 492 615 476 q 590 553 615 533 q 501 574 564 574 q 370 521 418 574 q 297 350 322 468 q 285 258 285 294 q 307 195 285 214 q 381 176 329 176 q 467 188 435 176 l 429 11 q 278 -14 368 -14 z "},"ต":{"ha":917,"x_min":17,"x_max":901,"o":"m 278 -14 q 87 46 157 -14 q 17 232 17 106 q 31 350 17 286 q 160 662 75 560 q 386 764 246 764 q 475 747 440 764 q 531 693 510 729 q 625 745 569 726 q 732 764 681 764 q 860 726 818 764 q 901 618 901 688 q 893 550 901 586 l 776 0 l 515 0 l 621 499 q 626 539 626 532 q 618 565 626 557 q 590 574 610 574 q 531 529 556 574 l 453 529 q 440 563 449 553 q 413 574 432 574 q 347 517 372 574 q 297 350 321 461 q 285 258 285 294 q 306 195 285 214 q 381 176 328 176 q 467 188 435 176 l 429 11 q 278 -14 368 -14 z "},"ท":{"ha":876,"x_min":-15,"x_max":850,"o":"m 143 750 l 385 750 l 382 692 q 501 744 435 725 q 638 764 567 764 q 796 713 742 764 q 850 571 850 663 q 842 499 850 539 l 736 0 l 475 0 l 575 471 q 579 510 579 494 q 560 558 579 543 q 496 572 540 572 q 419 557 457 572 q 356 519 381 542 l 246 0 l -15 0 l 143 750 z "},"ฑ":{"ha":872,"x_min":14,"x_max":847,"o":"m 64 238 q 108 342 76 294 q 192 449 140 389 q 240 507 225 486 q 260 546 256 528 q 261 556 261 550 q 243 572 261 572 q 211 557 226 572 l 199 503 l 63 503 l 115 750 l 267 750 l 258 711 q 385 750 319 750 q 438 740 413 750 q 478 714 463 731 q 559 750 514 736 q 651 764 604 764 q 798 717 749 764 q 847 586 847 671 q 839 507 847 549 l 732 0 l 471 0 l 578 504 q 582 535 582 521 q 572 563 582 554 q 538 572 561 572 q 488 551 517 572 q 459 475 478 508 q 408 399 440 442 q 355 318 375 354 q 325 236 335 282 l 275 0 l 14 0 l 64 238 z "},"น":{"ha":876,"x_min":31,"x_max":894,"o":"m 240 -14 q 85 39 140 -14 q 31 182 31 92 q 38 251 31 222 l 143 750 l 404 750 l 304 279 q 299 236 299 257 q 318 191 299 204 q 383 178 338 178 q 459 192 421 178 q 524 231 497 207 l 633 750 l 894 750 l 736 0 l 494 0 l 496 58 q 378 6 444 25 q 240 -14 313 -14 z "},"ม":{"ha":876,"x_min":-15,"x_max":894,"o":"m 467 -14 q 247 58 331 -14 l 226 0 l -15 0 l 143 750 l 404 750 l 294 231 q 342 193 310 208 q 413 178 374 178 q 495 201 469 178 q 533 279 521 224 l 633 750 l 894 750 l 789 251 q 678 55 761 124 q 467 -14 596 -14 z "},"ฌ":{"ha":1326,"x_min":7,"x_max":1344,"o":"m 926 -14 q 717 58 800 -14 l 696 0 l 457 0 l 550 443 q 557 497 557 478 q 531 556 557 539 q 442 574 504 574 q 292 531 361 574 l 289 519 l 425 474 l 399 351 q 327 315 351 339 q 294 249 303 292 l 286 213 q 285 194 285 206 q 292 176 285 182 q 319 169 300 169 l 376 169 l 342 0 l 126 0 q 38 30 69 0 q 7 110 7 60 q 11 146 7 128 l 31 236 q 78 339 43 294 q 168 401 113 383 l 50 440 l 92 638 q 497 764 289 764 q 739 699 658 764 q 819 525 819 635 q 811 451 819 489 l 764 231 q 807 192 779 207 q 872 178 835 178 q 949 199 926 178 q 983 279 971 219 l 1083 750 l 1344 750 l 1239 251 q 926 -14 1182 -14 z "},"ณ":{"ha":1329,"x_min":7,"x_max":1347,"o":"m 708 -14 q 554 37 607 -14 q 501 176 501 88 q 510 251 501 213 l 550 443 q 558 501 558 476 q 532 557 558 540 q 442 574 506 574 q 292 531 361 574 l 289 519 l 425 474 l 399 351 q 327 315 351 339 q 294 249 303 292 l 286 213 q 283 193 283 199 q 291 175 283 181 q 317 169 299 169 l 376 169 l 342 0 l 126 0 q 38 30 69 0 q 7 110 7 60 q 11 146 7 128 l 31 236 q 78 339 43 294 q 168 401 113 383 l 50 440 l 92 638 q 497 764 289 764 q 738 702 657 764 q 819 529 819 640 q 811 451 819 493 l 774 279 q 768 238 768 257 q 786 192 768 206 q 844 178 804 178 q 915 192 879 178 q 976 231 950 207 l 1086 750 l 1347 750 l 1189 0 l 947 0 l 949 58 q 708 -14 836 -14 z "},"ฒ":{"ha":1374,"x_min":17,"x_max":1392,"o":"m 278 -14 q 86 48 156 -14 q 17 233 17 110 q 31 350 17 278 q 158 662 75 560 q 381 764 240 764 q 467 747 433 764 q 522 693 500 729 q 617 745 561 726 q 724 764 672 764 q 845 724 804 764 q 886 613 886 683 q 879 550 886 588 l 811 231 q 856 192 826 207 q 919 178 885 178 q 994 201 968 178 q 1031 279 1019 225 l 1131 750 l 1392 750 l 1286 251 q 1180 54 1258 122 q 974 -14 1101 -14 q 854 5 904 -14 q 764 58 804 24 l 743 0 l 504 0 l 610 499 q 615 540 615 532 q 608 565 615 557 q 582 574 600 574 q 525 529 550 574 l 447 529 q 435 564 442 554 q 410 574 429 574 q 344 515 369 574 q 297 350 319 457 q 285 258 285 294 q 307 195 285 214 q 381 176 329 176 q 467 188 435 176 l 429 11 q 278 -14 368 -14 z "},"ฆ":{"ha":871,"x_min":-21,"x_max":889,"o":"m 461 -14 q 242 58 325 -14 l 221 0 l -21 0 l 36 272 q 84 363 46 319 q 185 463 122 407 q 238 513 219 493 q 260 546 257 532 q 261 556 261 550 q 243 572 261 572 q 211 557 226 572 l 199 503 l 63 503 l 115 750 l 267 750 l 258 711 q 320 739 283 728 q 394 750 357 750 q 478 725 449 750 q 508 656 508 700 q 504 624 508 640 q 460 515 490 561 q 378 413 429 469 q 326 350 343 375 q 303 300 308 325 l 289 231 q 336 193 304 208 q 407 178 368 178 q 490 201 463 178 q 528 279 517 225 l 628 750 l 889 750 l 783 251 q 672 56 757 125 q 461 -14 588 -14 z "},"ธ":{"ha":764,"x_min":-21,"x_max":764,"o":"m 307 -14 q 124 3 214 -14 q -21 49 35 21 l 35 311 l 261 311 l 235 185 q 278 174 250 178 q 332 169 306 169 q 422 185 392 169 q 461 239 453 201 q 463 250 463 243 q 430 294 463 279 q 311 329 397 308 q 253 344 318 328 q 116 404 164 368 q 68 503 68 440 q 72 544 68 522 q 191 708 94 651 q 478 764 288 764 q 645 753 568 764 q 764 729 722 743 l 724 540 q 616 569 683 558 q 486 579 549 579 q 371 572 411 579 q 331 539 331 564 q 362 509 331 521 q 457 483 393 497 q 496 474 471 479 q 538 463 521 468 q 665 398 624 438 q 707 293 707 358 q 700 235 707 269 q 307 -14 649 -14 z "},"ร":{"ha":699,"x_min":-28,"x_max":699,"o":"m 249 -14 q 88 -2 164 -14 q -28 29 13 10 l 14 228 q 122 190 61 204 q 238 176 182 176 q 333 185 306 176 q 365 218 360 194 q 347 258 369 243 q 253 300 324 272 q 217 314 222 311 q 102 383 140 344 q 64 483 64 422 q 69 532 64 508 q 185 702 93 640 q 451 764 278 764 q 588 754 518 764 q 699 731 657 744 l 657 535 q 563 563 618 553 q 464 574 508 574 q 372 565 404 574 q 335 528 340 556 q 348 497 331 508 q 413 468 365 485 q 479 442 450 454 q 603 368 567 404 q 639 276 639 332 q 631 213 639 249 q 515 44 607 101 q 249 -14 424 -14 z "},"จ":{"ha":801,"x_min":6,"x_max":783,"o":"m 308 -14 q 217 -6 261 -14 q 150 14 172 3 l 114 235 l 6 235 l 60 439 l 303 439 l 343 176 q 503 381 463 196 q 513 461 513 424 q 472 548 513 522 q 331 574 431 574 q 81 538 215 574 l 118 715 q 276 751 192 739 q 438 764 361 764 q 783 497 783 764 q 769 379 783 451 q 674 165 743 253 q 510 31 606 76 q 308 -14 415 -14 z "},"ว":{"ha":746,"x_min":-36,"x_max":725,"o":"m 226 -14 q -36 36 63 -14 l 4 226 q 99 190 46 203 q 203 176 151 176 q 368 224 313 176 q 446 375 424 272 q 454 447 454 415 q 415 543 454 513 q 289 574 376 574 q 69 529 175 574 l 110 714 q 393 764 242 764 q 638 695 551 764 q 725 489 725 626 q 713 375 725 438 q 626 153 683 238 q 473 27 569 68 q 226 -14 376 -14 z "},"ง":{"ha":854,"x_min":65,"x_max":836,"o":"m 339 -14 q 242 -7 293 -14 q 158 13 192 0 l 65 511 l 321 511 l 383 176 q 558 396 515 192 q 567 465 567 438 q 540 528 567 511 q 451 546 514 546 l 399 546 l 442 750 l 547 750 q 760 684 685 750 q 836 494 836 618 q 825 397 836 453 q 339 -14 739 -14 z "},"ฐ":{"ha":864,"x_min":-96,"x_max":910,"o":"m 308 -14 q 217 -6 261 -14 q 150 14 172 3 l 114 235 l 6 235 l 60 439 l 303 439 l 343 176 q 503 381 463 196 q 513 461 513 424 q 472 548 513 522 q 331 574 431 574 q 81 538 215 574 l 118 715 q 276 751 192 739 q 438 764 361 764 q 576 750 510 764 l 910 750 l 857 560 l 761 560 q 778 457 778 513 q 769 379 778 419 q 674 165 743 253 q 510 31 606 76 q 308 -14 415 -14 m 361 -301 q 251 -284 296 -301 q 183 -235 206 -267 q 18 -296 129 -296 l -96 -296 l -47 -118 l 33 -118 q 90 -104 68 -118 q 126 -61 113 -90 l 290 -61 q 307 -106 290 -90 q 357 -121 324 -121 q 439 -64 426 -121 l 444 -36 l 649 -36 l 643 -61 q 547 -237 619 -172 q 361 -301 475 -301 z "},"ฉ":{"ha":843,"x_min":8,"x_max":800,"o":"m 207 -14 q 63 37 117 -14 q 8 176 8 88 q 15 243 8 204 l 51 417 l 313 417 l 285 283 q 279 239 279 260 q 297 192 279 207 q 357 178 315 178 q 430 192 396 178 q 490 232 464 207 l 528 411 q 536 476 536 449 q 497 552 536 531 q 357 574 457 574 q 217 563 301 574 q 69 535 132 551 l 108 713 q 279 751 183 738 q 464 764 375 764 q 800 511 800 764 q 789 410 800 468 l 703 0 l 461 0 l 463 58 q 207 -14 350 -14 z "},"ล":{"ha":840,"x_min":-3,"x_max":804,"o":"m 208 -14 q 56 31 114 -14 q -3 167 -3 76 q 4 228 -3 190 q 117 410 28 347 q 350 472 206 472 l 539 472 l 543 492 q 546 515 546 508 q 515 560 546 547 q 406 574 483 574 q 140 535 276 574 l 179 715 q 331 751 244 738 q 497 764 418 764 q 724 703 644 764 q 804 531 804 643 q 796 456 804 496 l 700 0 l 439 0 l 501 294 l 372 294 q 297 280 324 294 q 263 226 271 265 q 260 200 260 217 q 276 169 260 178 q 331 160 292 160 q 403 168 369 160 l 369 7 q 208 -14 307 -14 z "},"ส":{"ha":867,"x_min":-3,"x_max":926,"o":"m 208 -14 q 56 31 114 -14 q -3 167 -3 76 q 4 228 -3 190 q 117 410 28 347 q 350 472 206 472 l 539 472 l 543 492 q 546 515 546 508 q 515 560 546 547 q 406 574 483 574 q 140 535 276 574 l 179 715 q 331 751 244 738 q 497 764 418 764 q 622 750 560 764 l 926 750 l 874 560 l 794 560 q 801 507 801 536 q 796 456 801 478 l 700 0 l 439 0 l 501 294 l 372 294 q 297 280 324 294 q 263 226 271 265 q 260 200 260 217 q 276 169 260 178 q 331 160 292 160 q 403 168 369 160 l 369 7 q 208 -14 307 -14 z "},"บ":{"ha":894,"x_min":42,"x_max":913,"o":"m 365 -14 q 127 51 213 -14 q 42 238 42 115 q 51 319 42 268 l 143 750 l 404 750 l 311 308 q 304 249 304 279 q 328 192 304 208 q 406 176 351 176 q 507 208 471 176 q 558 308 543 239 l 651 750 l 913 750 l 821 319 q 672 69 786 151 q 365 -14 558 -14 z "},"ป":{"ha":894,"x_min":42,"x_max":960,"o":"m 365 -14 q 127 51 213 -14 q 42 238 42 115 q 51 319 42 268 l 143 750 l 404 750 l 311 308 q 304 249 304 279 q 328 192 304 208 q 406 176 351 176 q 508 208 471 176 q 558 308 544 239 l 699 972 l 960 972 l 821 319 q 672 69 786 151 q 365 -14 558 -14 z "}}}
